<svg width="92" height="26" viewBox="0 0 92 26" fill="none" xmlns="http://www.w3.org/2000/svg">
<path fill-rule="evenodd" clip-rule="evenodd" d="M19.4702 2.88912e-05C18.6835 -0.00187122 17.8049 0.0897602 16.8518 0.332201C16.8518 0.332201 11.9651 1.54496 6.57899 6.57437C6.57899 6.57437 4.01078 9.17824 2.19164 12.5312C2.19164 12.5312 0.301156 16.0268 0.0157997 18.9517C0.0157962 18.9517 -0.269556 22.2333 1.58526 23.9098C1.58526 23.9098 3.72543 25.8716 8.39814 25.4792C8.39814 25.4792 11.323 25.1225 14.4976 23.125C14.4976 23.125 16.0314 22.1263 17.0302 21.1989C17.0302 21.1989 16.5665 22.8753 17.2442 24.0881C17.2442 24.0881 17.8862 25.2295 19.3487 25.4792C19.3487 25.4792 20.4188 25.6932 21.9526 25.1225C21.9526 25.1225 22.9156 24.6945 23.5577 24.3735C23.5577 24.3735 24.8775 23.6601 26.1616 22.6613C26.1616 22.6613 25.9119 23.6601 26.4826 24.5161C26.4826 24.5161 27.1603 25.4792 28.4087 25.5862C28.4087 25.5862 31.7617 25.8359 36.4344 20.0931L33.1528 25.3722L36.149 25.3365L38.7529 20.8422C38.7529 20.8422 41.4638 16.2051 42.0345 15.6344C42.0345 15.6344 43.4256 13.7796 45.5301 13.3516L46.9212 13.4586C46.9212 13.4586 47.4919 13.7439 47.4919 14.386L46.4575 14.2076C46.4575 14.2076 45.8511 14.279 45.5301 14.921C45.5301 14.921 45.2447 15.5274 45.3874 16.1338C45.3874 16.1338 45.5658 16.6332 46.0295 16.8115L46.3505 16.9185L47.3849 16.7759C47.3849 16.7758 49.2041 16.0981 51.7009 12.9592L51.1302 13.9936L49.0257 17.5963L46.5645 21.9479C46.5645 21.9479 45.8511 23.3747 46.1722 24.2308C46.1722 24.2308 46.4932 25.0512 47.5633 25.2652L49.8818 25.0868C49.8818 25.0868 51.2016 24.6945 52.2716 23.7671L53.8054 22.5186C53.8054 22.5186 55.6602 20.9492 57.3367 19.0944L57.2297 19.237C57.2297 19.237 55.7673 21.9123 55.5176 22.804C55.5176 22.804 54.9469 24.6945 56.2666 25.4435L57.7647 25.5862C57.7647 25.5862 59.0132 25.4079 60.2616 24.5161L62.2948 22.7683C62.2948 22.7683 64.0426 21.1275 64.97 19.9504C64.97 19.9504 64.5063 21.0205 64.3993 21.8053C64.3993 21.8053 64.0426 24.3021 66.3611 25.3009L68.5369 25.4792C68.5369 25.4792 69.393 25.4079 70.7128 24.9442C70.7128 24.9442 73.7804 23.9454 78.0964 19.9861C78.0964 19.9861 80.2722 17.9886 81.806 16.2051L76.3842 25.3009H79.0594L81.0569 21.9479L83.6252 17.7746C83.6252 17.7746 85.0876 15.4561 87.7628 13.958C87.7628 13.958 88.8329 13.3159 89.6533 13.1732C89.6533 13.1732 90.5094 12.9949 90.6877 13.4229C90.6877 13.4229 89.475 13.1732 89.1896 14.4217C89.1896 14.4217 88.9042 15.6701 89.903 16.0625C89.903 16.0625 90.652 16.3121 91.2584 15.8841C91.2584 15.8841 91.7935 15.4917 91.9718 14.7427C91.9718 14.7427 92.1145 13.9936 91.7578 13.4586C91.7578 13.4586 91.3298 12.8165 90.331 12.7452C90.331 12.7452 89.2253 12.7095 87.0138 14.172C87.0137 14.172 85.373 15.2421 84.6952 15.9198L86.5144 12.8165H83.8035C83.8035 12.8165 81.2353 17.1682 76.7053 20.9135C76.7053 20.9135 72.2822 24.5161 69.7854 24.6231C69.7854 24.6231 67.3598 24.8015 67.1102 22.9467C67.1102 22.9467 66.9675 21.8409 67.6095 20.2715C67.6095 20.2715 69.1077 20.4141 71.1051 19.7721C71.1051 19.7721 72.9956 19.1657 74.5651 18.0956C74.5651 18.0956 76.2416 16.9542 76.8479 15.7414C76.8479 15.7414 77.5613 14.386 76.7409 13.2446C76.7409 13.2446 75.2428 11.7821 71.9969 13.1376C71.9969 13.1376 68.644 14.5287 66.1471 17.8459L65.505 18.809L65.4337 18.916L63.6502 20.9849L61.8311 22.804C61.8311 22.804 59.6196 24.9798 58.5138 24.3378C58.5138 24.3378 58.0858 24.0524 58.0858 23.3747C58.0858 23.3747 58.0858 22.697 58.5851 21.8766L63.7572 12.8879H61.4387C61.4387 12.8879 60.1546 14.9924 58.6565 16.9899C58.6565 16.9899 55.7316 20.8778 52.557 23.125C52.557 23.125 50.3812 24.8015 49.1684 24.2308C49.1684 24.2308 48.6334 23.9811 48.669 23.3034C48.669 23.3034 48.7047 22.5543 49.4181 21.5199L54.4832 12.8879L57.301 12.8522L57.6577 12.4955H54.8042L57.8361 7.10941L55.2679 7.14508C55.2679 7.14508 53.4844 10.177 52.129 11.9961C52.129 11.9961 49.6321 15.2777 47.5633 16.1695C47.5633 16.1695 47.92 15.7058 47.9556 14.9924L47.92 14.4217C47.92 14.4217 47.7773 13.6726 47.0639 13.3159L46.4218 13.1376L45.2091 13.2446C45.2091 13.2446 43.7823 13.5656 42.4625 14.707L43.5683 12.8522H41.0001C41.0001 12.8522 38.6816 16.9899 35.6497 20.5212C35.6497 20.5211 31.6903 25.0868 29.5145 24.5518C29.5145 24.5518 28.8724 24.2308 28.8368 23.4461C28.8368 23.446 28.8368 22.6613 29.5145 21.5556L34.6866 12.8165L32.1184 12.8522L31.298 14.279L30.7629 15.3134C30.7629 15.3134 30.8699 14.9924 30.7629 14.3147C30.7629 14.3147 30.5489 12.7095 29.0151 12.3885L27.8024 12.2815C27.8024 12.2815 24.7348 12.2458 21.2392 15.3134C21.2392 15.3134 18.8493 17.4536 17.0302 20.6995C17.0302 20.6995 13.3919 24.0881 9.53956 24.8372C9.53956 24.8372 6.11529 25.5506 4.65284 24.0168C4.65284 24.0168 3.04771 22.376 3.04771 19.5224C3.04771 19.5224 3.08338 16.1338 5.5089 11.5324C5.5089 11.5324 8.07711 7.75146 9.64657 6.03932C9.64657 6.03932 13.6416 1.65197 17.7792 0.546218C17.7792 0.546218 21.1678 -0.34552 23.0583 1.18827C23.0583 1.18827 24.6634 2.50804 24.8061 5.18326L25.7335 3.6138C25.7335 3.6138 26.9106 1.75898 27.945 0.688896C27.945 0.688896 26.982 1.11693 25.8049 1.25961C25.8049 1.25961 24.3424 1.43796 23.629 1.00992C23.629 1.00992 22.04 0.0062361 19.4702 2.88912e-05ZM28.1813 12.6047C29.2264 12.61 29.7642 13.1019 29.7642 13.1019C31.0126 14.2433 30.0139 16.3835 30.0139 16.3835C28.0877 20.3785 25.2698 22.804 25.2698 22.804L23.5577 24.0168C20.8825 25.3365 19.741 24.4091 19.741 24.4091C18.8136 23.6244 19.206 21.8409 19.206 21.8409C19.4557 20.6282 20.4544 18.8804 20.4544 18.8804L22.3806 16.0625C24.1284 14.1363 26.1259 13.1376 26.1259 13.1376C26.9474 12.7329 27.6339 12.602 28.1813 12.6047ZM74.0668 12.9191C74.1027 12.9186 74.1382 12.9202 74.1727 12.9235C74.1727 12.9235 74.7434 12.9949 74.9931 13.2802C74.9931 13.2802 75.2428 13.6369 75.1715 14.3503C75.1715 14.3503 74.9931 16.2408 72.8886 18.0243C72.8886 18.0243 70.4988 20.0574 67.7165 19.9861L68.2516 18.8804C68.2516 18.8804 69.4643 16.5262 71.2478 14.707C71.2478 14.707 72.9548 12.9327 74.0668 12.9191Z" fill="#C6C6C6"/>
<path fill-rule="evenodd" clip-rule="evenodd" d="M63.2227 8.92829C63.2227 8.92829 63.2227 9.39199 63.5794 9.74869C63.5794 9.74869 63.9004 10.0697 64.3997 10.0697C64.3997 10.0697 64.8635 10.0697 65.1845 9.74869C65.1845 9.74869 65.5055 9.39199 65.5055 8.92829L65.1845 8.10789C65.1845 8.10789 64.8278 7.78687 64.3997 7.78687C64.3997 7.78687 63.9004 7.78687 63.5794 8.10789C63.5794 8.10789 63.2227 8.42892 63.2227 8.92829Z" fill="#C6C6C6"/>
</svg>
