<svg width="87" height="48" viewBox="0 0 87 48" fill="none" xmlns="http://www.w3.org/2000/svg">
<path fill-rule="evenodd" clip-rule="evenodd" d="M80.1202 0.0502966C81.4171 -0.110065 82.7686 0.110014 83.9081 0.753965C85.49 1.61716 86.6371 3.21075 86.923 4.97055C87.0719 5.96236 87.0104 6.99636 86.6634 7.94308C86.1781 9.30907 85.1667 10.483 83.8792 11.1804C82.7037 11.8277 81.3047 12.0624 79.976 11.8498C78.6019 11.6368 77.3153 10.9352 76.3981 9.90583C75.461 8.86849 74.9134 7.49832 74.8854 6.11061C74.8459 4.80016 75.2655 3.48303 76.0575 2.42941C77.0124 1.14109 78.5103 0.252836 80.1202 0.0502966ZM80.648 0.809924C80.1016 0.928942 79.7126 1.38998 79.4945 1.87273C79.3325 2.24065 79.0245 2.5455 78.644 2.68999C78.0878 2.91258 77.4752 2.68749 76.9072 2.83574C76.4087 2.97772 76.0473 3.49723 76.1275 4.00713C76.2429 4.69409 76.8041 5.23447 76.8253 5.94691C76.8682 6.34656 76.6052 6.67522 76.4384 7.01432C76.2352 7.41104 76.0761 7.87292 76.2068 8.31725C76.4028 8.81587 76.9674 9.11697 77.5003 9.0656C78.0581 9.03846 78.6826 9.02802 79.1326 9.41055C79.5403 9.81563 79.7219 10.3911 80.1465 10.7836C80.5551 11.1553 81.2355 11.1912 81.678 10.8563C82.229 10.4412 82.3601 9.66821 82.9557 9.29779C83.522 8.98584 84.194 9.17084 84.8045 9.06978C85.3076 9.00505 85.7314 8.54777 85.7161 8.04247C85.7136 7.46617 85.3021 7.01557 85.1099 6.4969C84.9215 6.10769 84.9661 5.63997 85.174 5.26788C85.4009 4.81645 85.7195 4.3575 85.6694 3.8309C85.6134 3.27631 85.0883 2.83657 84.5304 2.82613C83.9547 2.77268 83.2972 2.93304 82.806 2.55176C82.2753 2.2039 82.1412 1.53531 81.6737 1.1319C81.4052 0.878412 81.0183 0.73559 80.648 0.809924Z" fill="#C6C6C6"/>
<path fill-rule="evenodd" clip-rule="evenodd" d="M29.9265 7.67241C31.7493 7.44565 33.6392 7.83361 35.222 8.75151C37.2243 9.89742 38.7176 11.8293 39.404 13.9983C40.1642 16.3741 39.9851 19.0343 38.8826 21.2789C37.9391 23.222 36.2974 24.8457 34.2794 25.6951C32.4977 26.4556 30.4453 26.5775 28.5855 26.0308C26.6748 25.4809 24.9979 24.2427 23.8563 22.6457C22.5132 20.7865 21.8981 18.45 22.0886 16.1812C22.2663 13.8856 23.29 11.6518 24.9737 10.0457C26.3087 8.75986 28.0675 7.89332 29.9265 7.67241ZM30.0164 12.3947C29.056 12.6102 28.1851 13.1589 27.5593 13.9044C26.7567 14.8486 26.3605 16.1052 26.4424 17.3317C26.52 18.7018 27.2123 20.0361 28.331 20.8642C29.2677 21.5754 30.5051 21.8903 31.6755 21.7007C32.8973 21.5165 34.0062 20.787 34.6951 19.7818C35.4205 18.7436 35.6971 17.4235 35.4812 16.1845C35.2568 14.8369 34.4257 13.5887 33.226 12.8929C32.2737 12.3291 31.099 12.1487 30.0164 12.3947Z" fill="#C6C6C6"/>
<path fill-rule="evenodd" clip-rule="evenodd" d="M0.117188 8.16558C0.764122 8.16307 1.41148 8.16182 2.05841 8.16641C4.72294 11.3432 7.38788 14.5199 10.0541 17.6958C12.7241 14.6013 15.3861 11.501 18.0578 8.40821C18.6827 8.40988 19.3072 8.40821 19.932 8.40988C19.9329 14.2539 19.9329 20.0979 19.932 25.9415C18.2445 25.9431 16.5574 25.9431 14.8711 25.9415C14.8703 23.9315 14.8711 21.9211 14.8703 19.9116C13.2629 21.6113 11.6619 23.316 10.0554 25.0169C8.4917 23.2767 6.93269 21.5315 5.36902 19.7918C5.36817 21.8205 5.36987 23.8488 5.36817 25.8784C3.61827 25.8788 1.86794 25.8809 0.118036 25.8771C0.117188 19.973 0.117188 14.0697 0.117188 8.16558Z" fill="#C6C6C6"/>
<path fill-rule="evenodd" clip-rule="evenodd" d="M42.1196 8.40987C42.7237 8.40737 43.3273 8.40987 43.9314 8.4082C46.8513 10.9681 49.7644 13.536 52.6835 16.0968C52.6852 13.5535 52.6826 11.0111 52.6843 8.46834C54.2675 8.47084 55.852 8.45706 57.4339 8.47544C57.4296 14.3165 57.433 20.1584 57.4322 25.9991C56.9112 26.0028 56.3912 25.9999 55.8698 26.0007C52.8273 23.3393 49.7907 20.6708 46.7469 18.009C46.7469 20.6934 46.7457 23.3786 46.7478 26.063C45.2045 26.0663 43.6625 26.0646 42.1191 26.0638C42.1196 20.1797 42.1196 14.2948 42.1196 8.40987Z" fill="#C6C6C6"/>
<path fill-rule="evenodd" clip-rule="evenodd" d="M59.3662 8.59079C63.9707 8.59079 68.5756 8.58995 73.1809 8.59162C73.1805 9.98726 73.1826 11.3821 73.1792 12.7777C71.6999 12.7794 70.2207 12.7769 68.7419 12.7786C68.7406 17.2073 68.7419 21.636 68.7406 26.0647C67.1167 26.0664 65.4928 26.0664 63.8684 26.0656C63.8659 21.656 63.8693 17.247 63.8667 12.8374C62.3663 12.8358 60.8667 12.8374 59.3662 12.8366C59.3649 11.4213 59.3649 10.0056 59.3662 8.59079Z" fill="#C6C6C6"/>
<path fill-rule="evenodd" clip-rule="evenodd" d="M66.9003 29.2089C68.8432 28.9738 70.8137 29.1066 72.7443 29.3851C72.5992 30.6985 72.455 32.0115 72.3057 33.324C71.3784 33.1294 70.4306 33.0237 69.4821 33.0229C68.2798 33.0145 67.1056 33.4301 66.093 34.0494C65.0515 34.6971 64.2027 35.7019 63.9274 36.9012C63.5939 38.357 63.8896 39.9815 64.8475 41.1579C65.7536 42.262 67.0903 42.9828 68.4881 43.2781C69.9593 43.5048 71.4598 43.3858 72.9327 43.2288C72.9501 44.5067 73.0362 45.7875 72.9471 47.0633C71.1251 47.3372 69.2679 47.4466 67.431 47.2654C66.3034 47.1297 65.1546 46.8916 64.173 46.3062C62.7845 45.6175 61.5479 44.6219 60.6129 43.3984C59.6203 42.1 59.0374 40.5035 58.9793 38.8782C58.9207 37.1743 59.1536 35.417 59.9465 33.8819C60.4636 32.868 61.2459 32.001 62.1571 31.3132C62.8201 30.8079 63.5519 30.4003 64.2735 29.984C65.074 29.5267 65.9925 29.3279 66.9003 29.2089Z" fill="#C6C6C6"/>
<path fill-rule="evenodd" clip-rule="evenodd" d="M14.9646 29.2623C16.5787 29.2586 18.1924 29.2602 19.8062 29.2615C19.807 33.7892 19.8053 38.3169 19.807 42.8454C21.1 42.8546 22.3943 42.8304 23.6865 42.8575C23.6721 44.2728 23.6857 45.6868 23.6801 47.1029C20.7645 47.105 17.8488 47.1029 14.9336 47.1038C14.937 41.1562 14.9595 35.2095 14.9646 29.2623Z" fill="#C6C6C6"/>
<path fill-rule="evenodd" clip-rule="evenodd" d="M31.692 29.2152C32.4581 29.2127 33.2242 29.2144 33.9908 29.2144C36.4148 35.1724 38.8333 41.1329 41.2547 47.0913C39.4887 47.0868 37.7231 47.0817 35.9566 47.0809C34.9275 44.5264 33.9068 41.9681 32.8789 39.4136C31.7395 41.974 30.5954 44.531 29.4551 47.0901C27.7713 47.0964 26.0876 47.0997 24.4043 47.1039C26.8325 41.1396 29.2633 35.1778 31.692 29.2152Z" fill="#C6C6C6"/>
<path fill-rule="evenodd" clip-rule="evenodd" d="M0.000636329 29.3263C3.02023 29.3255 6.0411 29.3218 9.06069 29.328C10.3983 29.4228 11.7672 30.0526 12.4863 31.2035C13.1688 32.2972 13.2206 33.6578 12.9983 34.891C12.7853 36.1045 12.0353 37.3093 10.8203 37.7528C12.0654 38.1228 13.0522 39.1689 13.3788 40.4021C13.6656 41.4841 13.6189 42.6514 13.2736 43.715C12.9016 44.8605 12.0213 45.8122 10.9332 46.3447C10.1293 46.7431 9.24225 46.9915 8.34164 47.0392C5.5613 47.0408 2.78139 47.0408 0.000636329 47.0392C-0.00021211 41.135 -0.00021211 35.2305 0.000636329 29.3263ZM4.92837 32.4751C4.93091 33.6682 4.93812 34.8617 4.93897 36.0548C5.77723 36.0669 6.61549 36.0824 7.45417 36.0924C8.02984 36.0995 8.62968 35.7963 8.85579 35.2555C9.08869 34.6947 9.08275 34.0378 8.85918 33.4753C8.62417 32.8931 7.99929 32.5453 7.38078 32.5273C6.56416 32.5052 5.74626 32.4914 4.92837 32.4751ZM4.80195 39.478C4.8011 40.6861 4.8011 41.8942 4.80195 43.1024C5.6296 43.1007 6.45725 43.1024 7.28406 43.0869C7.98232 42.9859 8.67974 42.5407 8.89651 41.8529C9.08614 41.239 8.99069 40.4961 8.5092 40.0338C8.06632 39.6141 7.43126 39.4508 6.83057 39.4404C6.15479 39.4508 5.47858 39.4621 4.80195 39.478Z" fill="#C6C6C6"/>
<path fill-rule="evenodd" clip-rule="evenodd" d="M42.0176 29.5246C42.6221 29.5225 43.2266 29.5234 43.8307 29.5234C46.7485 32.0845 49.6633 34.6491 52.5811 37.2111C52.584 34.6687 52.5802 32.1255 52.5832 29.5818C54.1647 29.581 55.747 29.581 57.3293 29.5827C57.331 35.4267 57.3302 41.2706 57.3302 47.1142C56.8105 47.1163 56.2909 47.1142 55.7712 47.1151C52.7274 44.4528 49.69 41.7839 46.6458 39.1216C46.6454 41.8048 46.6454 44.4887 46.6454 47.1719C45.1029 47.1756 43.5605 47.1727 42.0184 47.1727C42.0176 41.2903 42.0176 35.4074 42.0176 29.5246Z" fill="#C6C6C6"/>
</svg>
