<svg width="93" height="45" viewBox="0 0 93 45" fill="none" xmlns="http://www.w3.org/2000/svg">
<path fill-rule="evenodd" clip-rule="evenodd" d="M0 0H93V34.1639H0V0ZM87.9679 17.097C87.9679 23.5345 83.1173 28.7145 76.3803 28.7145C69.6733 28.7145 64.7928 23.5345 64.7928 17.097C64.7928 10.6595 69.6434 5.47949 76.3803 5.47949C83.0873 5.47949 87.9679 10.6295 87.9679 17.097ZM86.8301 17.097C86.8301 11.3182 82.4885 6.55741 76.3803 6.55741C70.3021 6.55741 65.9305 11.3182 65.9305 17.097C65.9305 22.8758 70.2721 27.6366 76.3803 27.6366C82.4586 27.6067 86.8301 22.8459 86.8301 17.097ZM18.6829 5.92868H19.7907V21.5584C19.7907 25.4808 16.6169 28.7146 12.395 28.7146C8.17321 28.7146 5.0293 25.4808 5.0293 21.5584V5.92868H6.1671V21.5584C6.1671 24.8521 8.86188 27.5468 12.425 27.5468C15.9881 27.5468 18.6829 24.8221 18.6829 21.5584V5.92868ZM50.5113 27.3671L49.7627 28.2354L34.8216 15.8394V28.2354H33.6838V13.3842L50.5113 27.3671ZM35.4495 5.92868L34.7309 6.82694L51.5284 20.7799V5.92868H50.3906V18.3247L35.4495 5.92868Z" fill="#C6C6C6"/>
<path d="M6.79561 44.5237L6.43631 43.4159H4.84938L4.49008 44.5237H3.68164L5.20868 40.1821H6.077L7.60405 44.5237H6.79561ZM5.62787 40.9606L5.02903 42.817H6.25666L5.62787 40.9606Z" fill="#C6C6C6"/>
<path d="M12.7539 40.1821H14.3708C15.0295 40.1821 15.5385 40.3618 15.8978 40.751C16.2571 41.1403 16.4368 41.6493 16.4368 42.338C16.4368 43.0266 16.2571 43.5656 15.8978 43.9548C15.5385 44.3441 15.0295 44.5237 14.3708 44.5237H12.7539V40.1821ZM13.5324 40.8409V43.865H14.281C14.7301 43.865 15.0594 43.7452 15.299 43.4758C15.5385 43.2063 15.6583 42.847 15.6583 42.338C15.6583 41.8589 15.5385 41.4696 15.299 41.2301C15.0594 40.9606 14.7301 40.8409 14.3109 40.8409H13.5324Z" fill="#C6C6C6"/>
<path d="M23.6512 44.5237H22.753L21.2559 40.1821H22.1242L23.232 43.6853H23.262L24.3698 40.1821H25.2082L23.6512 44.5237Z" fill="#C6C6C6"/>
<path d="M33.1153 43.865V44.5237H30.3008V40.1821H33.1153V40.8409H31.0793V42.0086H32.9956V42.6374H31.0793V43.865H33.1153Z" fill="#C6C6C6"/>
<path d="M39.2531 42.9067V44.5535H38.4746V40.2119H40.2112C40.6903 40.2119 41.0496 40.3317 41.3191 40.5712C41.5886 40.8108 41.7084 41.1401 41.7084 41.5593C41.7084 41.8587 41.6485 42.0983 41.4988 42.3378C41.349 42.5474 41.1395 42.727 40.8999 42.8169L41.8581 44.5535H40.9598L40.1214 42.9067H39.2531ZM39.2531 40.8108V42.2779H40.1514C40.3909 42.2779 40.6005 42.218 40.7203 42.0683C40.87 41.9486 40.9299 41.7689 40.9299 41.5294C40.9299 41.2898 40.87 41.1102 40.7203 40.9904C40.5706 40.8706 40.3909 40.7808 40.1514 40.7808H39.2531V40.8108Z" fill="#C6C6C6"/>
<path d="M48.8635 44.5237H48.085V40.8409H46.7676V40.1821H50.181V40.8409H48.8635V44.5237Z" fill="#C6C6C6"/>
<path d="M56.1711 44.5237H55.3926V40.1821H56.1711V44.5237Z" fill="#C6C6C6"/>
<path d="M61.4395 43.2962H62.188C62.2179 43.5058 62.3078 43.6555 62.4874 43.7752C62.6671 43.895 62.8767 43.9549 63.1461 43.9549C63.4156 43.9549 63.6252 43.895 63.7749 43.7752C63.9546 43.6555 64.0145 43.5058 64.0145 43.3261C64.0145 43.1764 63.9546 43.0566 63.8348 42.9369C63.715 42.847 63.5055 42.7572 63.236 42.6973L62.6671 42.5776C62.2778 42.4877 61.9784 42.338 61.7688 42.1584C61.5892 41.9787 61.4694 41.7092 61.4694 41.4098C61.4694 41.0206 61.6191 40.7212 61.9185 40.4816C62.2179 40.2421 62.6072 40.1223 63.0863 40.1223C63.5653 40.1223 63.9546 40.2421 64.2241 40.4816C64.5235 40.7212 64.6732 41.0206 64.6732 41.4098H63.9246C63.8947 41.2002 63.8049 41.0505 63.6552 40.9307C63.5055 40.811 63.2959 40.7511 63.0563 40.7511C62.8168 40.7511 62.6072 40.811 62.4575 40.9307C62.3078 41.0505 62.2179 41.2002 62.2179 41.3799C62.2179 41.5296 62.2778 41.6494 62.3976 41.7392C62.5174 41.829 62.697 41.9188 62.9665 41.9787L63.4755 42.0985C63.9246 42.1883 64.2241 42.338 64.4337 42.5476C64.6433 42.7273 64.7331 42.9967 64.7331 43.3261C64.7331 43.7453 64.5834 44.0747 64.2839 44.3142C63.9845 44.5537 63.5653 44.6735 63.0264 44.6735C62.5174 44.6735 62.1281 44.5537 61.8287 44.3142C61.6191 44.0148 61.4395 43.7154 61.4395 43.2962Z" fill="#C6C6C6"/>
<path d="M70.8722 44.5237H70.0938V40.1821H70.8722V44.5237Z" fill="#C6C6C6"/>
<path d="M77.0708 44.5237H76.3223V40.1821H76.981L79.1368 43.2063H79.1668V40.1821H79.9153V44.5237H79.2566L77.1008 41.4696H77.0708V44.5237Z" fill="#C6C6C6"/>
<path d="M89.1665 42.7271C89.1665 43.326 88.9869 43.7751 88.6575 44.1044C88.3282 44.4338 87.8491 44.6135 87.2802 44.6135C86.6514 44.6135 86.1424 44.4039 85.7831 44.0146C85.4238 43.6254 85.2441 43.0565 85.2441 42.3678C85.2441 41.6791 85.4238 41.1402 85.7831 40.7509C86.1424 40.3617 86.6514 40.1521 87.2802 40.1521C87.7593 40.1521 88.1785 40.2719 88.5378 40.5413C88.8971 40.8108 89.0767 41.1701 89.1665 41.5893H88.3282C88.2683 41.3498 88.1186 41.1402 87.9389 41.0204C87.7593 40.8707 87.5197 40.8108 87.2503 40.8108C86.861 40.8108 86.5616 40.9605 86.322 41.23C86.0825 41.4995 85.9927 41.8887 85.9927 42.3678C85.9927 42.8768 86.1125 43.2661 86.322 43.5355C86.5616 43.835 86.861 43.9547 87.2503 43.9547C87.5796 43.9547 87.8491 43.8649 88.0587 43.6853C88.2683 43.5056 88.3581 43.2361 88.3881 42.9367V42.8768H87.3401V42.278H89.1366V42.7271H89.1665Z" fill="#C6C6C6"/>
</svg>
