<svg width="93" height="60" viewBox="0 0 93 60" fill="none" xmlns="http://www.w3.org/2000/svg">
<path fill-rule="evenodd" clip-rule="evenodd" d="M13.4064 55.6251C13.395 55.6473 13.3728 55.6918 13.3619 55.7254C12.1604 57.995 9.80142 59.5411 7.10908 59.5411C3.20396 59.5411 0 56.27 0 52.2315C0 48.2152 3.20396 44.9219 7.10908 44.9219C9.8128 44.9219 12.1827 46.5016 13.3728 48.8048C13.4064 48.8493 13.4172 48.8715 13.4508 48.9382C13.4622 48.9496 11.1812 50.596 11.159 50.5629C11.1476 50.5184 11.1368 50.4848 11.1145 50.4626C10.4577 48.8271 8.90073 47.7367 7.10908 47.7703C4.717 47.7925 2.74766 49.7727 2.74766 52.2315C2.74766 54.7125 4.717 56.7155 7.10908 56.7155C8.8449 56.7155 10.358 55.6473 11.0473 54.1342C11.0809 54.0785 11.0923 54.034 11.1145 53.9896L13.4064 55.6251Z" fill="#C6C6C6"/>
<path fill-rule="evenodd" clip-rule="evenodd" d="M16.3555 45.0557H19.0923V50.1623H26.2799V45.0557H29.0389V59.263H26.2799V53.0216H19.0923V59.263H16.3555V45.0557Z" fill="#C6C6C6"/>
<path fill-rule="evenodd" clip-rule="evenodd" d="M67.666 59.263V45.0557H77.6011V47.9258H70.4362V50.7628H77.0561V53.5998H70.4362V56.4369H78.6134V59.263H67.666Z" fill="#C6C6C6"/>
<path fill-rule="evenodd" clip-rule="evenodd" d="M82.4961 59.263V45.0557H85.2774V56.4369H92.999V59.263H82.4961Z" fill="#C6C6C6"/>
<path fill-rule="evenodd" clip-rule="evenodd" d="M52.7364 59.263H52.6475H49.9551V45.0557H50.1551H53.8153L59.9013 53.5998V45.0557H62.6603V59.263H60.4574L52.7364 48.549V59.263Z" fill="#C6C6C6"/>
<path fill-rule="evenodd" clip-rule="evenodd" d="M39.485 47.9258L37.0599 53.5998H42.0218L39.485 47.9258ZM35.8134 56.4369L34.5453 59.263H31.252L37.5492 45.0557H41.3986L47.7403 59.263H44.447L43.168 56.4369H35.8134Z" fill="#C6C6C6"/>
<path fill-rule="evenodd" clip-rule="evenodd" d="M47.9304 39.5839C44.9463 41.3093 41.3764 42.3348 37.5729 42.3348C29.7907 42.3348 22.9745 38.0922 19.2878 31.8012C19.2878 31.772 19.2593 31.772 19.2593 31.7428C19.2593 31.7136 19.2294 31.7136 19.2294 31.6843L22.2136 30.1342L25.1977 28.6119C25.2276 28.6425 25.2575 28.6704 25.286 28.7302C27.8312 32.8546 32.3956 35.6056 37.5729 35.6056C39.2417 35.6056 40.8506 35.3134 42.2842 34.8444C39.0949 31.1876 37.164 26.3897 37.164 21.1521C37.164 15.9451 39.0664 11.1473 42.2258 7.4598C40.7921 6.96304 39.2118 6.70005 37.5729 6.70005C32.454 6.70005 27.7143 9.44964 25.1107 13.8676C25.0808 13.8969 25.0808 13.9275 25.0808 13.9553L19.084 10.8551C19.1125 10.7966 19.1424 10.7382 19.171 10.7076C22.8291 4.30111 29.7323 0 37.5729 0C41.3764 0 44.9463 1.02414 47.9304 2.78021C50.9144 1.02414 54.4843 0 58.2864 0C66.1272 0 73.0318 4.30111 76.6887 10.7076C76.7179 10.7382 76.7471 10.7966 76.7763 10.8551L70.779 13.9553C70.779 13.9275 70.779 13.8969 70.7498 13.8676C68.1463 9.44964 63.4069 6.70005 58.2864 6.70005C56.6489 6.70005 55.0686 6.96304 53.6349 7.4598C56.7943 11.1473 58.6968 15.9451 58.6968 21.1521C58.6968 26.3897 56.7658 31.1876 53.5765 34.8444C55.0102 35.3134 56.619 35.6056 58.2864 35.6056C63.4653 35.6056 68.0294 32.8546 70.5744 28.7302C70.6037 28.6704 70.6329 28.6425 70.6621 28.6119L73.6455 30.1342L76.6302 31.6843C76.6302 31.7136 76.601 31.7136 76.601 31.7428C76.601 31.772 76.5718 31.772 76.5718 31.8012C72.8857 38.0922 66.0688 42.3348 58.2864 42.3348C54.4843 42.3348 50.9144 41.3093 47.9304 39.5839ZM47.9304 31.1876C45.4722 28.5841 43.8931 25.0441 43.8931 21.1521C43.8931 17.3199 45.3852 13.8384 47.9304 11.2349C50.4756 13.8384 51.9677 17.3199 51.9677 21.1521C51.9677 25.0441 50.3872 28.5841 47.9304 31.1876Z" fill="#C6C6C6"/>
</svg>
