<svg width="66" height="80" viewBox="0 0 66 80" fill="none" xmlns="http://www.w3.org/2000/svg">
<path fill-rule="evenodd" clip-rule="evenodd" d="M48.7409 0.000206606C54.4069 0.000206606 60.0737 -0.000619819 65.7397 0.00103303C65.743 1.27703 65.7331 2.55386 65.7455 3.83069C64.3058 3.8935 62.834 4.05465 61.5084 4.65711C60.1638 5.26123 59.0365 6.36038 58.4564 7.7215C51.5665 23.9178 44.6815 40.1157 37.799 56.3153C37.68 56.5814 37.5842 56.8566 37.4453 57.1137C34.9809 57.0847 32.5157 57.1095 30.0513 57.1004C28.9637 54.9393 27.8935 52.7691 26.7968 50.613C25.5399 53.9815 24.2754 57.3467 23.0184 60.7144C31.148 60.7152 39.2775 60.7144 47.4071 60.7152C48.8955 60.735 50.4285 60.6731 51.821 60.0913C54.135 59.1615 55.9771 57.3649 57.4762 55.417C59.2861 53.0567 60.6596 50.3998 61.8836 47.6998C63.2563 47.6883 64.6281 47.704 66 47.7015C63.3984 53.2584 60.7836 58.8103 58.1589 64.3564C39.4255 64.3573 20.6929 64.3564 1.95945 64.3564C2.41564 63.1656 2.84952 61.9648 3.33876 60.7863C3.36851 60.6648 3.51975 60.6954 3.61148 60.6838C5.95026 60.6665 8.30475 60.5755 10.5997 60.0888C11.7939 59.8086 13.0294 59.4351 13.9484 58.5822C14.4343 58.1186 14.5856 57.4417 14.7467 56.817C16.9591 50.8965 19.1747 44.9768 21.3887 39.0571C16.7095 29.0871 12.0146 19.1229 7.33287 9.1537C6.95602 8.28182 6.45852 7.4182 5.67589 6.85045C4.0561 5.63726 1.95119 5.48354 0.000826425 5.40586C-0.000826426 3.97697 0.000826426 2.5489 0 1.12001C6.57752 1.11753 13.1542 1.11836 19.7317 1.11919C19.7326 2.54808 19.7334 3.97697 19.7309 5.40586C18.8739 5.4604 17.964 5.44635 17.188 5.87031C16.8029 6.05212 16.5764 6.50996 16.6756 6.92648C16.7971 7.60828 17.3359 8.09505 17.6087 8.71073C20.3863 14.6932 23.1639 20.6765 25.9498 26.6566C27.3456 22.7534 28.7414 18.851 30.143 14.9502C30.3488 14.4081 30.4216 13.7817 30.1868 13.2362C30.0026 12.8057 29.5844 12.5396 29.172 12.3602C28.3704 12.0297 27.4894 12.033 26.6398 11.9718C27.0737 10.7661 27.5101 9.5603 27.9596 8.36115C28.0638 8.29421 28.2084 8.34545 28.3282 8.32892C35.0016 8.33306 41.6758 8.32892 48.35 8.3314C47.8889 9.54294 47.4302 10.7545 46.974 11.9677C45.3666 12.0421 43.7096 12.0825 42.2022 12.7106C41.5114 12.9999 40.8577 13.442 40.4494 14.0817C40.1659 14.5503 39.9899 15.0734 39.7998 15.5841C37.0115 23.1889 34.1975 30.7837 31.4405 38.4001C32.9678 41.8521 34.5595 45.2743 36.1173 48.7122C41.7742 35.3539 47.4294 21.9939 53.0929 8.63801C53.4747 7.83472 54.0962 7.10168 54.1449 6.17774C54.192 5.45462 53.6557 4.83066 53.0342 4.53398C51.6946 3.91581 50.1888 3.88523 48.7409 3.83317C48.7393 2.55551 48.7393 1.27786 48.7409 0.000206606Z" fill="#C6C6C6"/>
<path fill-rule="evenodd" clip-rule="evenodd" d="M59.0263 71.9272C60.8123 73.7768 62.5841 75.6387 64.3527 77.504C64.3502 75.7701 64.3601 74.0355 64.3584 72.3016C64.6642 72.3024 64.97 72.2991 65.2766 72.295C65.2774 74.7701 65.2774 77.2461 65.2766 79.7213C63.489 77.8808 61.7279 76.0156 59.9495 74.166C59.9519 75.9106 59.9453 77.656 59.9445 79.4014C59.6379 79.4039 59.3321 79.4031 59.0263 79.4031C59.0255 76.9106 59.0247 74.4189 59.0263 71.9272Z" fill="#C6C6C6"/>
<path fill-rule="evenodd" clip-rule="evenodd" d="M7.03737 72.1818C9.00509 71.8794 11.0869 73.4198 11.2621 75.4264C11.4273 76.5743 10.9819 77.7709 10.1414 78.5618C8.75964 79.9139 6.27458 79.8891 4.93329 78.4891C4.20851 77.7866 3.7953 76.7743 3.8391 75.7636C3.85894 74.0049 5.31262 72.4339 7.03737 72.1818ZM7.0382 73.0909C5.89277 73.2777 4.96056 74.2834 4.80024 75.4231C4.58206 76.7181 5.38121 78.1114 6.63159 78.5346C7.72578 78.9478 9.05715 78.5585 9.75961 77.6247C10.6679 76.485 10.5141 74.6462 9.39681 73.7C8.76873 73.1289 7.86049 72.9405 7.0382 73.0909Z" fill="#C6C6C6"/>
<path fill-rule="evenodd" clip-rule="evenodd" d="M21.2462 72.5645C22.2544 71.8075 23.9015 72.1207 24.4833 73.2645C24.2403 73.4017 23.9973 73.5397 23.7544 73.6769C23.3172 72.9934 22.2519 72.8265 21.6643 73.4066C21.4156 73.5884 21.4428 73.9215 21.4693 74.195C21.5404 74.552 21.9205 74.7033 22.2007 74.871C22.923 75.2512 23.7907 75.4702 24.2981 76.1594C24.8642 76.9288 24.7709 78.0743 24.1535 78.7866C23.5081 79.5676 22.3279 79.7577 21.4255 79.3486C20.7329 79.0065 20.3049 78.2834 20.166 77.5421C20.4759 77.4685 20.7875 77.4007 21.0982 77.3313C21.1296 78.0073 21.6544 78.6908 22.3684 78.7032C23.3321 78.8081 24.0981 77.5553 23.537 76.7561C22.9378 75.9404 21.7825 75.9289 21.0933 75.2239C20.2817 74.5603 20.3635 73.1298 21.2462 72.5645Z" fill="#C6C6C6"/>
<path fill-rule="evenodd" clip-rule="evenodd" d="M54.1445 72.1768C55.4337 72.0157 56.7659 72.6107 57.5576 73.6305C58.6989 75.0586 58.5163 77.337 57.1618 78.5651C56.3882 79.3295 55.2511 79.6444 54.1833 79.5312C53.128 79.4618 52.1404 78.87 51.5313 78.0139C50.8751 77.1007 50.7049 75.88 51.0156 74.8065C51.4214 73.4156 52.7156 72.3586 54.1445 72.1768ZM53.9866 73.1032C52.5652 73.3454 51.5487 74.8594 51.7983 76.2676C51.9561 77.6221 53.2412 78.7246 54.6007 78.699C55.5279 78.7147 56.4122 78.1891 56.9122 77.4205C57.6717 76.3197 57.4717 74.6933 56.4932 73.7875C55.8527 73.1388 54.8635 72.9198 53.9866 73.1032Z" fill="#C6C6C6"/>
<path fill-rule="evenodd" clip-rule="evenodd" d="M0.738281 72.2966C1.03166 72.295 1.32504 72.295 1.61842 72.2966C1.61925 74.3949 1.6176 76.4941 1.61925 78.5924C2.34816 78.594 3.07624 78.5924 3.80515 78.5932C3.8068 78.8626 3.8068 79.132 3.80597 79.4023C2.78286 79.4031 1.76057 79.4039 0.738281 79.4023C0.739108 77.0337 0.739108 74.6652 0.738281 72.2966Z" fill="#C6C6C6"/>
<path fill-rule="evenodd" clip-rule="evenodd" d="M11.9731 72.3026C12.2839 72.3001 12.5946 72.3009 12.9062 72.3017C12.9086 73.7 12.902 75.0992 12.9095 76.4975C12.9235 77.1124 12.9996 77.7884 13.4343 78.2619C14.126 78.9404 15.4846 78.8437 15.9672 77.9644C16.211 77.5512 16.2821 77.0619 16.2755 76.5892C16.2697 75.1603 16.2697 73.7315 16.2705 72.3017C16.5813 72.3001 16.892 72.3009 17.2028 72.3017C17.2028 73.7604 17.2061 75.219 17.2019 76.6777C17.2036 77.3396 17.0887 78.0396 16.6656 78.5718C15.7557 79.8321 13.6466 79.904 12.65 78.7131C12.1764 78.2173 11.9814 77.5181 11.9748 76.8454C11.9707 75.3314 11.974 73.8166 11.9731 72.3026Z" fill="#C6C6C6"/>
<path fill-rule="evenodd" clip-rule="evenodd" d="M18.3524 72.2977C18.6582 72.2944 18.9648 72.2952 19.2714 72.2969C19.2714 74.6654 19.2722 77.0339 19.2705 79.4033C18.9648 79.4033 18.6582 79.4041 18.3516 79.4016C18.3532 77.0339 18.3532 74.6654 18.3524 72.2977Z" fill="#C6C6C6"/>
<path fill-rule="evenodd" clip-rule="evenodd" d="M27.5547 72.3035C27.891 72.2944 28.229 72.2944 28.5662 72.296C29.272 74.0233 29.967 75.7546 30.6604 77.4868C31.3521 75.7604 32.0637 74.0423 32.7397 72.3101C33.086 72.2812 33.4331 72.301 33.7802 72.296C32.7479 74.8092 31.7116 77.3207 30.6703 79.8297C29.6108 77.3298 28.5894 74.8133 27.5547 72.3035Z" fill="#C6C6C6"/>
<path fill-rule="evenodd" clip-rule="evenodd" d="M34.2002 72.2949C34.5059 72.2991 34.8117 72.3024 35.1183 72.3015C35.1291 73.6784 35.1167 75.056 35.1282 76.4328C35.1497 77.0865 35.2001 77.8278 35.6993 78.3121C36.2753 78.8055 37.1927 78.8361 37.8075 78.3972C38.1654 78.1427 38.3621 77.7196 38.4397 77.2981C38.562 76.5725 38.5182 75.8345 38.5265 75.1023C38.5315 74.1693 38.5323 73.2362 38.5306 72.3032C38.8248 72.2999 39.1199 72.3007 39.4149 72.3015C39.4281 73.5957 39.4174 74.8891 39.4207 76.1833C39.4414 76.9857 39.4157 77.8568 38.9273 78.5344C38.072 79.7683 36.1034 79.9013 35.0208 78.8989C34.4795 78.3981 34.2076 77.6593 34.2035 76.9303C34.1952 75.3849 34.2018 73.8403 34.2002 72.2949Z" fill="#C6C6C6"/>
<path fill-rule="evenodd" clip-rule="evenodd" d="M40.5681 72.3017C40.8871 72.3025 41.2061 72.2992 41.5259 72.2959C41.5259 74.6644 41.5251 77.033 41.5259 79.4023C41.2044 79.4032 40.8838 79.4032 40.5631 79.4023C40.5598 77.0355 40.5706 74.6686 40.5681 72.3017Z" fill="#C6C6C6"/>
<path fill-rule="evenodd" clip-rule="evenodd" d="M42.1002 72.3016C44.9654 72.304 47.8298 72.2966 50.6951 72.2974C50.6942 72.5809 50.6942 72.8644 50.6951 73.1486C50.1455 73.1511 49.5967 73.1486 49.048 73.1495C49.0455 75.2337 49.0472 77.318 49.0472 79.4022C48.7273 79.403 48.4083 79.403 48.0885 79.4022C48.0869 77.318 48.0943 75.2337 48.0852 73.1495C46.9604 73.1511 45.8357 73.1486 44.7109 73.1503C44.7093 75.2345 44.7109 77.318 44.7101 79.4022C44.4167 79.403 44.1233 79.403 43.8308 79.4022C43.8299 77.318 43.8316 75.2345 43.8299 73.1503C43.2531 73.1486 42.6771 73.1511 42.1002 73.1486C42.0994 72.866 42.0994 72.5834 42.1002 72.3016Z" fill="#C6C6C6"/>
</svg>
