<svg width="66" height="55" viewBox="0 0 66 55" fill="none" xmlns="http://www.w3.org/2000/svg">
<path fill-rule="evenodd" clip-rule="evenodd" d="M30.8707 9.07563C30.5636 8.9916 30.2983 8.90756 30.047 8.86555C29.8375 8.82353 29.6281 8.80952 29.3907 8.79552L29.4047 8.87955C29.4326 9.08964 29.4187 9.31372 29.3907 9.53781C29.3628 9.7479 29.3209 9.94398 29.2651 10.1401C29.3628 10.2381 29.4466 10.3501 29.5304 10.4482C29.6281 10.5742 29.6979 10.7003 29.7677 10.8123L29.7817 10.8403V10.8683C29.7817 10.9244 29.7677 10.9664 29.7538 11.0084C29.7258 11.0784 29.67 11.1204 29.5862 11.1204C29.5443 11.1204 29.4885 11.1064 29.4605 11.0784C29.4187 11.0504 29.3907 11.0224 29.3768 10.9804C29.3209 10.8683 29.2651 10.7703 29.1953 10.6723C29.1673 10.6303 29.1394 10.5882 29.1115 10.5602C29.0696 10.6583 29.0138 10.7563 28.9579 10.8543C28.8881 10.9804 28.8043 11.1064 28.7205 11.2185C28.7624 11.3165 28.8043 11.4006 28.8322 11.5126C28.8741 11.6387 28.8881 11.7787 28.8881 11.9188C28.8881 12.451 28.6368 12.9272 28.2458 13.3053C27.8968 13.6415 27.436 13.9076 26.9194 14.0896C26.4028 14.2717 25.8443 14.3697 25.2998 14.3697C24.5318 14.3697 23.7918 14.1877 23.2333 13.7675C23.3171 14.1176 23.5266 14.4118 23.7918 14.6359C24.1967 14.972 24.7692 15.1541 25.3277 15.1541C25.97 15.1541 26.6122 14.93 27.2405 14.4678C27.8828 14.0056 28.5111 13.3053 29.1394 12.381C29.4047 11.9888 29.6839 11.6247 30.0051 11.2745C30.3262 10.9244 30.6753 10.5882 31.0662 10.2801C31.4153 9.98599 31.7504 9.7479 32.0575 9.56583C32.2391 9.45378 32.4206 9.36975 32.5881 9.29972C32.0715 9.31373 31.513 9.2577 30.8707 9.07563ZM3.86757 39.5378L3.99323 40.07L2.31775 40.4622L2.49926 41.2465L4.17474 40.8543L4.3004 41.3866L2.22001 41.8627L1.78718 40L3.86757 39.5378ZM62.8445 33.8655C62.8445 33.7115 62.8864 33.5574 62.9283 33.4314C62.9841 33.3053 63.0539 33.1793 63.1517 33.0952C63.2494 32.9972 63.3611 32.9272 63.5007 32.8852C63.6404 32.8431 63.8079 32.8151 63.9894 32.8291C64.157 32.8291 64.3106 32.8711 64.4502 32.9272C64.5898 32.9832 64.7015 33.0672 64.7992 33.1653C64.897 33.2633 64.9528 33.3754 65.0087 33.5154C65.0506 33.6555 65.0785 33.8095 65.0645 33.9636C65.0645 34.0476 65.0506 34.1317 65.0366 34.2017C65.0226 34.2717 65.0087 34.3417 64.9947 34.3978C64.9808 34.4678 64.9528 34.5238 64.9249 34.5658C64.897 34.6218 64.883 34.6639 64.8551 34.7059L64.3385 34.6919V34.6218C64.3664 34.5938 64.3943 34.5658 64.4223 34.5238C64.4502 34.4818 64.4921 34.4398 64.52 34.3838C64.5479 34.3277 64.5758 34.2717 64.6038 34.2157C64.6317 34.1597 64.6456 34.0896 64.6456 34.0196C64.6456 33.9356 64.6456 33.8655 64.6177 33.7955C64.5898 33.7255 64.5619 33.6555 64.506 33.5994C64.4502 33.5434 64.3804 33.4874 64.2966 33.4594C64.2128 33.4174 64.1011 33.4034 63.9755 33.3894C63.8358 33.3894 63.7241 33.4034 63.6404 33.4314C63.5426 33.4594 63.4728 33.5154 63.417 33.5714C63.3611 33.6274 63.3192 33.6975 63.2913 33.7675C63.2634 33.8375 63.2494 33.9076 63.2494 33.9776C63.2494 34.0476 63.2494 34.1176 63.2773 34.1737C63.2913 34.2437 63.3192 34.2997 63.3472 34.3557C63.3751 34.3978 63.403 34.4538 63.4309 34.4958C63.4589 34.5378 63.4868 34.5658 63.5007 34.5938V34.6499L62.9981 34.6359C62.9702 34.5798 62.9562 34.5238 62.9422 34.4818C62.9283 34.4258 62.9004 34.3838 62.9004 34.3277C62.8864 34.2577 62.8724 34.1877 62.8585 34.1317C62.8445 34.0616 62.8445 33.9776 62.8445 33.8655ZM64.3943 37.0308L64.4502 36.3585L62.7328 36.2325L62.7747 35.6863L64.4921 35.8123L64.5479 35.1401L64.9668 35.1681L64.8272 37.0448L64.3943 37.0308ZM62.9143 39.3557C62.8166 39.3417 62.7328 39.2997 62.649 39.2437C62.5792 39.1877 62.5234 39.1176 62.4815 39.0336C62.4396 38.9356 62.4117 38.8375 62.3977 38.7395C62.3838 38.6415 62.3977 38.5014 62.4256 38.3473L62.6071 37.437L64.7015 37.8431L64.5479 38.6555C64.52 38.8235 64.4921 38.9496 64.4641 39.0196C64.4362 39.0896 64.3943 39.1737 64.3385 39.2437C64.2826 39.3137 64.2128 39.3697 64.143 39.3838C64.0732 39.4118 63.9894 39.4118 63.9056 39.3978C63.8079 39.3838 63.7241 39.3277 63.6543 39.2717C63.5845 39.2017 63.5426 39.1176 63.5147 39.0056H63.5007C63.4449 39.1316 63.3751 39.2297 63.2634 39.2997C63.1796 39.3697 63.0539 39.3838 62.9143 39.3557ZM63.9056 38.8375C63.9336 38.8375 63.9755 38.8375 64.0173 38.8375C64.0592 38.8235 64.0872 38.7955 64.1151 38.7675C64.143 38.7255 64.157 38.6835 64.1709 38.6274C64.1849 38.5714 64.1989 38.4874 64.2268 38.3894L64.2407 38.3333L63.7939 38.2493L63.78 38.3333C63.766 38.4174 63.7521 38.4874 63.7381 38.5574C63.7241 38.6134 63.7241 38.6695 63.7381 38.6975C63.7521 38.7535 63.766 38.7815 63.8079 38.8095C63.8219 38.8095 63.8638 38.8235 63.9056 38.8375ZM63.026 38.7955C63.0958 38.8095 63.1517 38.8095 63.1936 38.7815C63.2355 38.7675 63.2634 38.7255 63.3053 38.6695C63.3192 38.6274 63.3472 38.5714 63.3611 38.5014C63.3751 38.4314 63.389 38.3473 63.403 38.2773L63.4309 38.1653L62.9004 38.0672L62.8864 38.1092C62.8585 38.2633 62.8305 38.3753 62.8305 38.4314C62.8166 38.5014 62.8166 38.5574 62.8305 38.6134C62.8445 38.6695 62.8724 38.7115 62.9004 38.7535C62.9422 38.7675 62.9841 38.7955 63.026 38.7955ZM61.6437 41.7507L61.7973 41.2045L62.2581 41.1765L62.4675 40.4202L62.0905 40.1681L62.2302 39.6359L64.0872 40.9524L63.9196 41.5686L61.6437 41.7507ZM62.649 41.1345L63.4449 41.0784L62.7747 40.6303L62.649 41.1345ZM2.27586 36.9608C2.61096 36.8908 2.8902 36.9468 3.12756 37.1008C3.36492 37.2549 3.50455 37.507 3.57436 37.8431C3.64417 38.1793 3.58832 38.4594 3.43474 38.6975C3.28115 38.9216 3.02983 39.0756 2.69473 39.1457C2.35964 39.2157 2.08039 39.1597 1.84303 39.0056C1.60567 38.8515 1.46605 38.5994 1.39623 38.2633C1.32642 37.9272 1.38227 37.6471 1.53586 37.409C1.68944 37.1709 1.9268 37.0308 2.27586 36.9608ZM2.93209 37.577C2.86228 37.535 2.77851 37.507 2.68077 37.507C2.58303 37.493 2.4853 37.507 2.3736 37.535C2.24794 37.563 2.1502 37.591 2.06643 37.6471C1.98265 37.6891 1.9268 37.7451 1.87095 37.8011C1.82907 37.8571 1.80114 37.9272 1.78718 37.9972C1.77322 38.0672 1.77322 38.1373 1.78718 38.1933C1.80114 38.2633 1.82907 38.3193 1.85699 38.3754C1.89888 38.4314 1.94077 38.4734 2.01058 38.5154C2.06643 38.5574 2.1502 38.5714 2.24794 38.5854C2.34567 38.5994 2.45737 38.5854 2.58303 38.5714C2.70869 38.5434 2.80643 38.5154 2.89021 38.4734C2.97398 38.4314 3.02983 38.3754 3.08568 38.3193C3.12756 38.2633 3.15549 38.1933 3.16945 38.1373C3.18341 38.0672 3.18341 37.9972 3.16945 37.9272C3.15549 37.8571 3.12756 37.7871 3.08568 37.7311C3.05775 37.6611 3.0019 37.619 2.93209 37.577ZM3.16945 34.1877L3.21134 34.7339L1.49397 34.8739L1.53586 35.4762C1.63359 35.4762 1.70341 35.4762 1.75926 35.4762C1.8151 35.4762 1.88492 35.4762 1.96869 35.4762C2.16416 35.4762 2.33171 35.4762 2.45737 35.4902C2.597 35.5042 2.69473 35.5322 2.79247 35.5462C2.87624 35.5742 2.96002 35.6022 3.01587 35.6303C3.07172 35.6583 3.1136 35.7003 3.15549 35.7283C3.19738 35.7703 3.23926 35.8263 3.28115 35.8964C3.30908 35.9664 3.337 36.0364 3.337 36.1204C3.337 36.1625 3.337 36.2185 3.337 36.2745C3.337 36.3305 3.337 36.3585 3.337 36.3726L2.86228 36.4146V36.4006C2.86228 36.3866 2.86228 36.3866 2.86228 36.3726C2.86228 36.3585 2.86228 36.3445 2.86228 36.3305C2.86228 36.2745 2.84832 36.2325 2.84832 36.2185C2.83436 36.1905 2.82039 36.1765 2.80643 36.1485C2.73662 36.0784 2.63888 36.0364 2.4853 36.0224C2.34567 36.0084 2.1502 35.9944 1.89888 36.0084C1.80114 36.0084 1.68944 36.0084 1.57774 36.0224C1.46605 36.0224 1.32642 36.0364 1.17284 36.0504L1.04718 34.3838L3.16945 34.1877ZM3.21134 31.4846L3.18341 32.0168L1.75926 31.9608L3.14153 32.8992L3.12756 33.4314L0.991326 33.3473L1.01925 32.8151L2.30379 32.8711L1.04718 32.0028L1.0751 31.4146L3.21134 31.4846ZM1.73133 28.8796L1.66152 29.5378L3.36492 29.7339L3.30908 30.2801L1.60567 30.084L1.53586 30.7423L1.13095 30.7003L1.34039 28.8235L1.73133 28.8796ZM3.79776 27.0308L3.50455 28.5574L1.4102 28.1513L1.70341 26.6246L2.10831 26.7087L1.9268 27.6891L2.28982 27.7591L2.45737 26.8487L2.86228 26.9328L2.68077 27.8431L3.19738 27.9412L3.37889 26.9608L3.79776 27.0308ZM4.44003 24.4958L4.27248 25.112L3.47662 25.3641L4.02115 26.0084L3.85361 26.5966L3.01587 25.5742L1.80114 26.0084L1.96869 25.3922L2.72266 25.1401L2.20605 24.5238L2.3736 23.9496L3.16945 24.944L4.44003 24.4958ZM5.18003 22.1849L3.15549 21.5126L2.98794 22.0448L3.72795 22.2829L3.47662 23.0532L2.73662 22.8151L2.56907 23.3473L4.59361 24.0196L4.76116 23.4874L3.86757 23.1933L4.11889 22.423L5.01248 22.7171L5.18003 22.1849ZM6.29702 19.7199L6.07362 20.2101L4.77512 19.6359L5.7106 21.0224L5.50116 21.4986L3.54644 20.6303L3.76983 20.1401L4.94267 20.6583L4.10493 19.3838L4.34229 18.8515L6.29702 19.7199ZM7.51174 17.535L7.23249 18.0112L6.54834 17.619C6.50645 17.7311 6.47853 17.8151 6.4506 17.8852C6.42268 17.9552 6.38079 18.0532 6.31098 18.1653C6.25513 18.2493 6.19928 18.3193 6.14343 18.3894C6.07362 18.4454 6.00381 18.5014 5.934 18.5294C5.85022 18.5574 5.78041 18.5714 5.68267 18.5574C5.5989 18.5434 5.50116 18.5154 5.41739 18.4594L4.73323 18.0672L5.01248 17.591L5.44531 17.8431C5.51513 17.8852 5.58494 17.9132 5.62682 17.9412C5.68267 17.9692 5.73852 17.9692 5.79437 17.9692C5.85022 17.9692 5.89211 17.9412 5.94796 17.8992C5.98985 17.8571 6.04569 17.8011 6.10154 17.7031C6.11551 17.6751 6.14343 17.619 6.17136 17.577C6.19928 17.521 6.21324 17.479 6.22721 17.437L5.38946 16.9468L5.66871 16.4706L7.51174 17.535ZM8.81024 15.6303L8.47514 15.3922L7.90269 16.2045L7.46985 15.8964L8.00042 15.1401L7.66533 14.902L7.13476 15.6583L6.84155 15.4482L7.414 14.6359L7.07891 14.3978L6.18532 15.6583L7.91665 16.9048L8.81024 15.6303ZM9.81553 14.3417C9.71779 14.4678 9.60609 14.5658 9.49439 14.6499C9.36873 14.7339 9.25703 14.7759 9.11741 14.8039C8.99175 14.8179 8.85213 14.8179 8.69854 14.7759C8.55892 14.7339 8.40533 14.6639 8.26571 14.5518C8.12608 14.4538 8.02835 14.3417 7.94457 14.2157C7.8608 14.0896 7.81891 13.9636 7.79099 13.8235C7.77703 13.6975 7.77703 13.5574 7.81891 13.4174C7.8608 13.2773 7.93061 13.1373 8.02835 13.0112C8.0842 12.9412 8.14005 12.8711 8.18193 12.8291C8.23778 12.7731 8.27967 12.7311 8.33552 12.6891C8.39137 12.6471 8.43326 12.619 8.48911 12.591C8.54495 12.563 8.58684 12.535 8.62873 12.521L9.03364 12.8291L8.99175 12.8852C8.96382 12.8992 8.92194 12.8992 8.86609 12.9132C8.81024 12.9272 8.76835 12.9412 8.7125 12.9692C8.65665 12.9972 8.6008 13.0252 8.54495 13.0532C8.48911 13.0952 8.44722 13.1373 8.40533 13.1933C8.36344 13.2493 8.32156 13.3193 8.29363 13.3894C8.26571 13.4594 8.26571 13.5294 8.26571 13.6134C8.27967 13.6975 8.30759 13.7675 8.34948 13.8515C8.40533 13.9356 8.47514 14.0196 8.57288 14.0896C8.68458 14.1737 8.78231 14.2297 8.88005 14.2437C8.97779 14.2717 9.06156 14.2717 9.13137 14.2577C9.21515 14.2437 9.271 14.2157 9.34081 14.1737C9.39666 14.1317 9.45251 14.0756 9.49439 14.0196C9.53628 13.9636 9.5642 13.9076 9.59213 13.8375C9.62005 13.7675 9.63402 13.7115 9.63402 13.6415C9.63402 13.5854 9.64798 13.5294 9.64798 13.4874C9.64798 13.4314 9.64798 13.3894 9.64798 13.3613L9.6759 13.3193L10.0808 13.6275C10.0668 13.6835 10.0529 13.7395 10.0389 13.7955C10.025 13.8515 10.011 13.8936 9.98308 13.9496C9.95515 14.0196 9.92723 14.0756 9.8993 14.1317C9.94119 14.1877 9.88534 14.2577 9.81553 14.3417ZM12.0355 11.8207L10.6672 11.6527C10.6812 11.6106 10.6812 11.5686 10.6672 11.5266C10.6672 11.4706 10.6393 11.4006 10.6114 11.2885C10.5695 11.1765 10.5555 11.0924 10.5555 11.0364C10.5555 10.9804 10.5835 10.9244 10.6393 10.8683L10.751 10.7563L10.4159 10.4342C10.4019 10.4482 10.388 10.4622 10.3601 10.4902C10.3321 10.5182 10.3042 10.5462 10.2623 10.5882C10.1506 10.7003 10.0808 10.8123 10.0668 10.9104C10.0529 11.0084 10.0668 11.1204 10.1087 11.2745C10.1227 11.3025 10.1367 11.3445 10.1506 11.4006C10.1646 11.4566 10.1785 11.4986 10.1925 11.5406C10.2065 11.5966 10.2204 11.6527 10.2344 11.7087C10.2344 11.7507 10.2484 11.7927 10.2344 11.8347C10.2344 11.8627 10.2204 11.8908 10.2065 11.9188C10.1925 11.9468 10.1646 11.9748 10.1367 12.0028L9.50836 11.4006L9.13137 11.7927L10.6672 13.2773L11.0442 12.8852L10.4299 12.2829L10.5276 12.1849L11.5887 12.3249L12.0355 11.8207ZM13.8367 10.1961L13.4318 10.5462L12.5103 9.45378L12.7476 11.1064L12.3427 11.4426L10.9604 9.80392L11.3653 9.45378L12.1891 10.4342L12.0076 8.94958L12.4544 8.57143L13.8367 10.1961ZM15.959 8.54342L14.7303 6.79272L14.2416 7.14286L14.3114 8.66947L13.5714 7.61905L13.1386 7.92717L14.3673 9.67787L14.8001 9.36975L14.7023 7.70308L15.5261 8.86555L15.959 8.54342ZM14.1439 6.34454C14.2416 6.48459 14.2695 6.63866 14.2276 6.80672C14.1718 6.96078 14.0461 7.11485 13.8506 7.2549C13.6552 7.39496 13.4737 7.46499 13.3061 7.45098C13.1386 7.45098 12.9989 7.36695 12.9012 7.22689L13.2922 6.94678C13.348 7.03081 13.4178 7.08683 13.4737 7.10084C13.5295 7.11485 13.6133 7.08683 13.6971 7.03081C13.7808 6.97479 13.8227 6.90476 13.8367 6.84874C13.8506 6.77871 13.8227 6.70868 13.7529 6.62465L14.1439 6.34454ZM20.5805 5.91036L19.9801 6.20448L19.0307 5.70028L18.905 5.7563L19.282 6.54062L18.7794 6.77871L17.8439 4.85994L18.3465 4.62185L18.7235 5.40616C18.7654 5.37815 18.7933 5.36415 18.8212 5.35014C18.8492 5.33613 18.8631 5.30812 18.8771 5.28011C18.8911 5.2521 18.905 5.21008 18.919 5.16807C18.9329 5.12605 18.9329 5.07003 18.9469 5C18.9469 4.95798 18.9469 4.91597 18.9609 4.85994C18.9609 4.80392 18.9609 4.7619 18.9609 4.71989C18.9748 4.56583 19.0027 4.45378 19.0446 4.36975C19.0865 4.28571 19.1982 4.20168 19.3378 4.13165C19.3797 4.10364 19.4216 4.08964 19.4495 4.07563C19.4914 4.06162 19.5054 4.04762 19.5333 4.04762L19.7288 4.46779L19.5892 4.53782C19.5194 4.56583 19.4775 4.62185 19.4495 4.67787C19.4216 4.73389 19.4216 4.81793 19.4077 4.92997C19.4077 5.04202 19.3937 5.12605 19.3797 5.18207C19.3658 5.2381 19.3518 5.26611 19.3239 5.30812L20.5805 5.91036ZM22.5771 3.96359C22.4514 3.64146 22.2699 3.41737 22.0186 3.30532C21.7673 3.19328 21.4741 3.19328 21.153 3.30532C20.8318 3.43137 20.6224 3.61345 20.4967 3.86555C20.385 4.11765 20.385 4.41176 20.5107 4.73389C20.6363 5.05602 20.8179 5.26611 21.0692 5.39216C21.3205 5.5042 21.6137 5.5042 21.9348 5.39216C22.256 5.26611 22.4794 5.08403 22.5911 4.81793C22.7028 4.56583 22.7028 4.27171 22.5771 3.96359ZM22.0884 4.71989C22.0605 4.78992 22.0326 4.84594 21.9767 4.90196C21.9209 4.94398 21.865 4.98599 21.8092 5.01401C21.7394 5.04202 21.6696 5.05602 21.5997 5.04202C21.5299 5.04202 21.4601 5.01401 21.4043 4.98599C21.3345 4.94398 21.2786 4.90196 21.2228 4.81793C21.1669 4.7479 21.1111 4.64986 21.0692 4.52381C21.0273 4.41176 20.9994 4.29972 20.9994 4.20168C20.9994 4.10364 20.9994 4.01961 21.0273 3.94958C21.0552 3.87955 21.0971 3.82353 21.139 3.76751C21.1948 3.72549 21.2507 3.68347 21.3065 3.66947C21.3763 3.64146 21.4322 3.62745 21.502 3.64146C21.5718 3.64146 21.6416 3.65546 21.6975 3.69748C21.7673 3.7395 21.8231 3.78151 21.879 3.86555C21.9348 3.93557 21.9907 4.03361 22.0326 4.15966C22.0745 4.27171 22.1024 4.36975 22.1024 4.46779C22.1164 4.55182 22.1164 4.64986 22.0884 4.71989ZM25.3835 4.17367L24.853 4.31372L24.4062 2.66106L23.8198 2.82913C23.8337 2.92717 23.8616 2.9972 23.8616 3.03922C23.8756 3.09524 23.8896 3.16527 23.9035 3.2493C23.9454 3.44538 23.9733 3.59944 23.9733 3.7395C23.9873 3.87955 23.9873 3.9916 23.9733 4.07563C23.9594 4.17367 23.9454 4.2437 23.9315 4.29972C23.9175 4.35574 23.8896 4.41176 23.8616 4.45378C23.8337 4.5098 23.7779 4.56583 23.722 4.60784C23.6662 4.64986 23.5964 4.69188 23.5126 4.70588C23.4707 4.71989 23.4148 4.73389 23.373 4.73389C23.3171 4.7479 23.2892 4.7479 23.2752 4.7479L23.1496 4.28571H23.1635C23.1775 4.28571 23.1775 4.28571 23.1915 4.28571C23.2054 4.28571 23.2194 4.28571 23.2333 4.27171C23.2892 4.2577 23.3171 4.2437 23.345 4.22969C23.373 4.21569 23.3869 4.20168 23.4009 4.17367C23.4567 4.08964 23.4707 3.97759 23.4707 3.83753C23.4567 3.69748 23.4288 3.5014 23.373 3.26331C23.359 3.16527 23.3311 3.05322 23.3032 2.94118C23.2752 2.82913 23.2473 2.70308 23.2054 2.54902L24.8111 2.10084L25.3835 4.17367ZM28.0085 3.59944L27.4639 3.69748L27.1428 2.0028L26.5424 2.11485C26.5564 2.21289 26.5703 2.28291 26.5703 2.33894C26.5843 2.39496 26.5843 2.46499 26.5983 2.54902C26.6262 2.7451 26.6402 2.89916 26.6402 3.03922C26.6402 3.17927 26.6262 3.29132 26.6122 3.37535C26.5983 3.45938 26.5703 3.54342 26.5564 3.59944C26.5285 3.65546 26.5005 3.71148 26.4726 3.7535C26.4307 3.80952 26.3888 3.85154 26.319 3.89356C26.2492 3.93557 26.1794 3.96359 26.1096 3.97759C26.0677 3.9916 26.0118 3.9916 25.956 4.0056C25.9001 4.0056 25.8722 4.01961 25.8583 4.01961L25.7745 3.55742H25.7884C25.8024 3.55742 25.8024 3.55742 25.8164 3.55742C25.8303 3.55742 25.8443 3.55742 25.8583 3.55742C25.9141 3.54342 25.942 3.54342 25.97 3.52941C25.9979 3.51541 26.0118 3.5014 26.0258 3.48739C26.0817 3.41737 26.1096 3.30532 26.1096 3.16527C26.1096 3.02521 26.0956 2.82913 26.0537 2.57703C26.0398 2.47899 26.0258 2.36695 26.0118 2.2549C25.9979 2.14286 25.97 2.0028 25.942 1.86275L27.5896 1.54062L28.0085 3.59944ZM30.2843 3.30532L28.7485 3.47339L28.5111 1.34454L30.047 1.17647L30.0889 1.58263L29.0975 1.69468L29.1394 2.05882L30.0609 1.96078L30.1028 2.36695L29.1813 2.46499L29.2371 2.98319L30.2285 2.87115L30.2843 3.30532ZM33.0628 3.65546L32.5602 3.66947L32.5462 3.17927L31.2477 3.23529L31.2617 3.72549L30.759 3.7395L30.7172 2.82913H30.8847C30.9824 2.59104 31.0523 2.32493 31.1081 2.03081C31.15 1.73669 31.1779 1.42857 31.164 1.09244L32.7557 1.02241L32.8255 2.7451L33.0349 2.73109L33.0628 3.65546ZM32.253 2.77311L32.1972 1.47059L31.6666 1.4986C31.6526 1.76471 31.6247 2.0028 31.5828 2.22689C31.5409 2.45098 31.4711 2.64706 31.4013 2.82913L32.253 2.77311ZM36.5953 3.37535L35.9391 3.31933L35.4644 2.40896L35.3247 2.39496L35.2549 3.26331L34.7104 3.22129L34.7802 2.35294L34.6406 2.33894L34.0262 3.16527L33.37 3.10924L34.1659 2.07283C34.1379 2.04482 34.11 2.01681 34.0821 1.97479C34.0542 1.93277 34.0262 1.86275 33.9983 1.76471C33.9843 1.72269 33.9704 1.68067 33.9564 1.65266C33.9425 1.62465 33.9285 1.58263 33.9006 1.55462C33.8726 1.52661 33.8587 1.5126 33.8308 1.4986C33.8028 1.48459 33.7749 1.47059 33.733 1.47059L33.6074 1.45658L33.6493 0.994398C33.6632 0.994398 33.7051 0.994398 33.733 0.994398C33.7749 0.994398 33.8168 0.994398 33.8726 1.0084C34.0262 1.02241 34.1379 1.05042 34.2217 1.12045C34.3055 1.17647 34.3613 1.27451 34.4172 1.41457C34.4311 1.44258 34.4451 1.48459 34.4591 1.54062C34.473 1.59664 34.487 1.63866 34.501 1.66667C34.5428 1.77871 34.5847 1.86275 34.6406 1.90476C34.6825 1.94678 34.7383 1.97479 34.8221 1.97479L34.8919 1.09244L35.4364 1.13445L35.3666 2.01681C35.4504 2.01681 35.5062 2.0028 35.5621 1.97479C35.604 1.94678 35.6598 1.86275 35.7296 1.7507C35.7436 1.70868 35.7715 1.68067 35.7994 1.62465C35.8274 1.58263 35.8413 1.54062 35.8553 1.5126C35.9251 1.38655 35.9949 1.30252 36.0927 1.2605C36.1764 1.20448 36.3021 1.19048 36.4417 1.20448C36.4836 1.20448 36.5395 1.21849 36.5813 1.21849C36.6232 1.21849 36.6512 1.23249 36.6651 1.23249L36.6232 1.69468L36.4976 1.68067C36.4557 1.68067 36.4138 1.68067 36.3998 1.69468C36.3719 1.70868 36.344 1.72269 36.33 1.73669C36.3021 1.7507 36.2881 1.77871 36.2602 1.82073C36.2462 1.86275 36.2183 1.89076 36.1904 1.93277C36.1485 2.01681 36.1066 2.08683 36.0787 2.12885C36.0508 2.17087 36.0089 2.19888 35.981 2.21289L36.5953 3.37535ZM41.524 2.60504L40.5606 2.38095L40.1697 4.06162L39.6391 3.93557L40.1278 1.84874L41.6217 2.19888L41.524 2.60504ZM43.9535 4.07563C43.8418 4.39776 43.6742 4.62185 43.4229 4.7619C43.1716 4.88795 42.8923 4.90196 42.5572 4.78992C42.2361 4.67787 42.0127 4.4958 41.887 4.2437C41.7614 3.9916 41.7614 3.69748 41.8591 3.37535C41.9708 3.05322 42.1384 2.81513 42.3897 2.68908C42.641 2.56303 42.9202 2.54902 43.2553 2.66106C43.5765 2.77311 43.7999 2.94118 43.9255 3.19328C44.0512 3.45938 44.0652 3.7535 43.9535 4.07563ZM43.0878 4.36975C43.1576 4.32773 43.2135 4.2577 43.2693 4.18767C43.3252 4.11765 43.367 4.01961 43.4089 3.90756C43.4508 3.78151 43.4648 3.68347 43.4648 3.58543C43.4648 3.48739 43.4508 3.40336 43.4229 3.34734C43.395 3.27731 43.3531 3.22129 43.2972 3.17927C43.2414 3.13725 43.1855 3.09524 43.1157 3.08123C43.0459 3.05322 42.9901 3.05322 42.9202 3.05322C42.8504 3.05322 42.7806 3.08123 42.7248 3.12325C42.6689 3.16527 42.5991 3.22129 42.5433 3.29132C42.4874 3.37535 42.4316 3.47339 42.4036 3.58543C42.3618 3.71148 42.3478 3.80952 42.3478 3.90756C42.3478 4.0056 42.3618 4.08964 42.3897 4.14566C42.4176 4.21569 42.4595 4.27171 42.5153 4.31372C42.5712 4.35574 42.627 4.39776 42.6968 4.41176C42.7667 4.43978 42.8365 4.43978 42.9063 4.43978C42.9621 4.42577 43.0319 4.39776 43.0878 4.36975ZM46.3969 4.71989C46.355 4.80392 46.2991 4.88796 46.2433 4.95798C46.1735 5.02801 46.1037 5.08403 46.0199 5.11204C45.9082 5.15406 45.7965 5.16807 45.6848 5.16807C45.5731 5.16807 45.4474 5.12605 45.3078 5.07003L45.0006 4.92997L44.7214 5.57423L44.2187 5.35014L45.0844 3.38936L45.9082 3.7535C46.0338 3.80952 46.1316 3.86555 46.2014 3.92157C46.2712 3.97759 46.341 4.04762 46.3829 4.11765C46.4388 4.20168 46.4667 4.29972 46.4806 4.39776C46.4667 4.4958 46.4527 4.60784 46.3969 4.71989ZM45.8663 4.4958C45.8942 4.43978 45.8942 4.38375 45.8803 4.32773C45.8663 4.27171 45.8523 4.22969 45.8104 4.20168C45.7686 4.15966 45.7267 4.11765 45.6708 4.10364C45.6289 4.07563 45.5591 4.04762 45.4754 4.01961L45.3916 3.97759L45.1403 4.56583L45.2799 4.63585C45.3637 4.67787 45.4335 4.70588 45.4893 4.71989C45.5452 4.73389 45.601 4.73389 45.6569 4.71989C45.6988 4.70588 45.7406 4.67787 45.7686 4.64986C45.8105 4.59384 45.8384 4.55182 45.8663 4.4958ZM48.6727 6.27451C48.5191 6.58263 48.3097 6.77871 48.0444 6.87675C47.7791 6.97479 47.4999 6.93277 47.1927 6.77871C46.8855 6.62465 46.6901 6.41457 46.6063 6.14846C46.5225 5.88235 46.5505 5.60224 46.704 5.29412C46.8576 4.98599 47.0671 4.78992 47.3323 4.69188C47.5976 4.59384 47.8769 4.63585 48.184 4.78992C48.4912 4.94398 48.6867 5.15406 48.7705 5.42017C48.8542 5.68627 48.8263 5.96639 48.6727 6.27451ZM47.7791 6.44258C47.8629 6.41457 47.9188 6.35854 47.9886 6.28852C48.0444 6.21849 48.1142 6.13445 48.1561 6.02241C48.212 5.91036 48.2539 5.79832 48.2678 5.71429C48.2818 5.61625 48.2818 5.53221 48.2539 5.46218C48.2399 5.39216 48.198 5.32213 48.1561 5.28011C48.1142 5.22409 48.0584 5.18207 48.0025 5.15406C47.9327 5.12605 47.8769 5.09804 47.8071 5.09804C47.7373 5.09804 47.6674 5.09804 47.5976 5.12605C47.5278 5.15406 47.458 5.19608 47.3882 5.26611C47.3184 5.33613 47.2625 5.43417 47.2067 5.54622C47.1508 5.65826 47.1089 5.77031 47.095 5.85434C47.081 5.95238 47.081 6.03641 47.095 6.10644C47.1089 6.17647 47.1508 6.2465 47.1927 6.28852C47.2346 6.34454 47.2905 6.38655 47.3603 6.41457C47.4301 6.44258 47.4859 6.47059 47.5557 6.47059C47.6395 6.48459 47.7093 6.47059 47.7791 6.44258ZM50.1807 9.18767L50.6833 8.43137L50.5018 8.31933L51.4512 6.87675L50.1248 6.0084C49.9433 6.28852 49.7478 6.52661 49.5384 6.73669C49.329 6.94678 49.1195 7.11485 48.8961 7.2549L48.7565 7.17087L48.2539 7.92717L48.6727 8.20728L48.938 7.78711L50.0131 8.5014L49.7339 8.92157L50.1807 9.18767ZM50.041 8.0112L49.329 7.54902C49.4965 7.45098 49.6501 7.32493 49.8176 7.17087C49.9852 7.01681 50.1527 6.83473 50.3063 6.62465L50.7531 6.91877L50.041 8.0112ZM51.6467 9.7619C51.521 9.66387 51.4233 9.55182 51.3395 9.43978C51.2558 9.31373 51.2139 9.18767 51.186 9.06162C51.172 8.93557 51.172 8.79552 51.2139 8.64146C51.2558 8.5014 51.3256 8.34734 51.4373 8.20728C51.535 8.06723 51.6467 7.96919 51.7724 7.88515C51.898 7.80112 52.0237 7.7591 52.1633 7.73109C52.289 7.71709 52.4286 7.71709 52.5682 7.7591C52.7078 7.80112 52.8475 7.87115 52.9731 7.96919C53.0429 8.02521 53.1128 8.08123 53.1546 8.12325C53.2105 8.17927 53.2524 8.22129 53.2943 8.27731C53.3362 8.33333 53.3641 8.37535 53.392 8.43137C53.4199 8.48739 53.4478 8.52941 53.4618 8.57143L53.1546 8.97759L53.0988 8.93557C53.0848 8.90756 53.0848 8.86555 53.0709 8.80952C53.0569 8.7535 53.0429 8.71148 53.015 8.65546C52.9871 8.59944 52.9592 8.54342 52.9312 8.48739C52.8894 8.43137 52.8475 8.38935 52.7916 8.34734C52.7358 8.30532 52.666 8.2633 52.5961 8.23529C52.5263 8.20728 52.4565 8.20728 52.3728 8.20728C52.289 8.22129 52.2192 8.2493 52.1354 8.29132C52.0516 8.34734 51.9678 8.41737 51.898 8.51541C51.8143 8.62745 51.7584 8.72549 51.7444 8.82353C51.7165 8.92157 51.7165 9.0056 51.7305 9.07563C51.7444 9.15966 51.7724 9.21569 51.8143 9.28572C51.8561 9.34174 51.912 9.39776 51.9678 9.43978C52.0237 9.48179 52.0795 9.5098 52.1494 9.53781C52.2192 9.56583 52.275 9.57983 52.3448 9.57983C52.4007 9.57983 52.4565 9.59384 52.4984 9.59384C52.5543 9.59384 52.5961 9.59384 52.6241 9.59384L52.666 9.62185L52.3588 10.028C52.3029 10.014 52.2471 10 52.1912 9.98599C52.1354 9.97199 52.0935 9.95798 52.0377 9.92997C51.9678 9.90196 51.912 9.87395 51.8561 9.84594C51.8003 9.87395 51.7305 9.83193 51.6467 9.7619ZM54.1739 11.9748L54.3414 10.6022C54.3833 10.6162 54.4252 10.6162 54.4671 10.6022C54.523 10.6022 54.5928 10.5742 54.7045 10.5462C54.8162 10.5042 54.8999 10.4902 54.9558 10.4902C55.0116 10.4902 55.0675 10.5182 55.1233 10.5742L55.235 10.6863L55.5562 10.3501C55.5422 10.3361 55.5282 10.3221 55.5003 10.2941C55.4724 10.2661 55.4445 10.2381 55.4026 10.1961C55.2909 10.084 55.1792 10.014 55.0814 10C54.9837 9.98599 54.872 10 54.7184 10.042C54.6905 10.056 54.6486 10.07 54.5928 10.084C54.5369 10.098 54.495 10.112 54.4531 10.126C54.3973 10.1401 54.3414 10.1541 54.2856 10.1681C54.2437 10.1681 54.2018 10.1821 54.1599 10.1681C54.132 10.1681 54.1041 10.1541 54.0762 10.1401C54.0482 10.126 54.0203 10.098 53.9924 10.07L54.5928 9.43978L54.2018 9.06162L52.7218 10.6022L53.1128 10.9804L53.7131 10.3641L53.8109 10.4622L53.6712 11.5266L54.1739 11.9748ZM56.7011 13.1653C56.4358 13.3894 56.1705 13.4874 55.8913 13.4734C55.612 13.4594 55.3607 13.3193 55.1373 13.0532C54.9139 12.7871 54.8162 12.521 54.8441 12.2409C54.872 11.9608 55.0116 11.7087 55.2769 11.4986C55.5422 11.2745 55.8075 11.1765 56.0867 11.1905C56.366 11.2045 56.6173 11.3585 56.8407 11.6106C57.0641 11.8767 57.1618 12.1429 57.1339 12.423C57.106 12.7031 56.9664 12.9552 56.7011 13.1653ZM55.8214 12.9692C55.7516 12.9692 55.6818 12.9552 55.612 12.9272C55.5562 12.8992 55.5003 12.8571 55.4445 12.8011C55.4026 12.7451 55.3607 12.6891 55.3467 12.619C55.3188 12.549 55.3188 12.479 55.3328 12.409C55.3467 12.3389 55.3747 12.2549 55.4305 12.1849C55.4864 12.1008 55.5562 12.0168 55.6539 11.9468C55.7516 11.8627 55.8354 11.8067 55.9332 11.7647C56.0309 11.7227 56.1007 11.7087 56.1845 11.7087C56.2682 11.7087 56.3241 11.7227 56.3939 11.7647C56.4498 11.7927 56.5056 11.8347 56.5475 11.8908C56.5894 11.9468 56.6313 12.0028 56.6452 12.0728C56.6732 12.1429 56.6731 12.2129 56.6592 12.2829C56.6452 12.3529 56.6173 12.437 56.5615 12.507C56.5056 12.591 56.4358 12.6751 56.3381 12.7591C56.2403 12.8431 56.1565 12.8992 56.0728 12.9272C55.989 12.9412 55.9052 12.9552 55.8214 12.9692ZM58.586 14.4958L58.9071 14.2437L57.9577 13.0392L56.2822 14.3697L56.6313 14.8039L57.9856 13.7395L58.586 14.4958ZM59.5773 17.1709C59.2841 17.3529 59.0049 17.409 58.7396 17.3529C58.4603 17.2969 58.2369 17.1148 58.0554 16.8207C57.8739 16.5266 57.8181 16.2465 57.8739 15.9804C57.9437 15.7143 58.1113 15.4762 58.4045 15.2941C58.6977 15.112 58.9769 15.042 59.2422 15.112C59.5215 15.1681 59.7449 15.3501 59.9264 15.6303C60.1079 15.9244 60.1637 16.2045 60.1079 16.4706C60.0381 16.7647 59.8566 16.9888 59.5773 17.1709ZM58.7256 16.8487C58.8094 16.8627 58.8932 16.8487 58.9769 16.8207C59.0607 16.7927 59.1584 16.7507 59.2562 16.6807C59.3679 16.6106 59.4517 16.5406 59.5075 16.4706C59.5634 16.4006 59.6052 16.3305 59.6332 16.2605C59.6611 16.1905 59.6611 16.1204 59.6471 16.0504C59.6332 15.9804 59.6052 15.9244 59.5773 15.8683C59.5354 15.8123 59.4935 15.7563 59.4377 15.7143C59.3819 15.6723 59.312 15.6443 59.2422 15.6303C59.1724 15.6162 59.0886 15.6303 58.9909 15.6443C58.8932 15.6723 58.7954 15.7143 58.6837 15.7843C58.572 15.8543 58.4883 15.9244 58.4324 15.9944C58.3766 16.0644 58.3347 16.1345 58.3067 16.2045C58.2788 16.2745 58.2788 16.3445 58.2928 16.4146C58.3067 16.4846 58.3347 16.5406 58.3626 16.6106C58.4045 16.6667 58.4464 16.7227 58.5022 16.7647C58.586 16.8067 58.6558 16.8347 58.7256 16.8487ZM60.9456 22.381L60.6803 21.8067L61.1271 21.0924L60.2894 20.9524L60.0381 20.3922L61.3226 20.6443L61.9788 19.5238L62.2441 20.098L61.8253 20.7843L62.6211 20.9244L62.8724 21.4846L61.6158 21.2325L60.9456 22.381ZM62.7887 24.4678C63.1098 24.3557 63.3332 24.1597 63.4449 23.9076C63.5705 23.6555 63.5705 23.3613 63.4449 23.0392C63.3332 22.7171 63.1377 22.493 62.8864 22.381C62.6351 22.2689 62.3419 22.2689 62.0207 22.381C61.6996 22.493 61.4762 22.6891 61.3645 22.9412C61.2388 23.1933 61.2388 23.4874 61.3645 23.8095C61.4762 24.1317 61.6717 24.3557 61.923 24.4678C62.1883 24.5938 62.4675 24.5938 62.7887 24.4678ZM62.0347 23.9776C61.9649 23.9496 61.909 23.9216 61.8532 23.8655C61.8113 23.8095 61.7694 23.7535 61.7415 23.6835C61.7136 23.6134 61.6996 23.5434 61.7136 23.4734C61.7136 23.4034 61.7415 23.3333 61.7694 23.2773C61.8113 23.2073 61.8671 23.1513 61.937 23.0952C62.0068 23.0392 62.1045 22.9832 62.2302 22.9412C62.3419 22.8992 62.4536 22.8711 62.5513 22.8711C62.649 22.8711 62.7328 22.8711 62.8026 22.8992C62.8724 22.9272 62.9283 22.9692 62.9702 23.0112C63.0121 23.0672 63.0539 23.1232 63.0679 23.1793C63.0958 23.2493 63.0958 23.3053 63.0958 23.3753C63.0958 23.4454 63.0679 23.5154 63.04 23.5714C62.9981 23.6415 62.9562 23.6975 62.8724 23.7535C62.8026 23.8095 62.7049 23.8655 62.5792 23.9076C62.4675 23.9496 62.3698 23.9776 62.2721 23.9776C62.1883 24.0056 62.1045 24.0056 62.0347 23.9776ZM62.9004 26.9328C62.8026 26.9608 62.7049 26.9608 62.6071 26.9328C62.5094 26.9048 62.4256 26.8627 62.3558 26.7927C62.2721 26.7227 62.2022 26.6247 62.1464 26.5126C62.0905 26.4006 62.0347 26.2605 62.0068 26.0924C61.9788 25.9384 61.9509 25.7983 61.9509 25.6583C61.9509 25.5182 61.9509 25.3922 61.9649 25.2801L62.4396 25.1681L62.4536 25.2241C62.4396 25.2521 62.4396 25.2941 62.4117 25.3501C62.3977 25.4062 62.3837 25.4622 62.3837 25.5322C62.3698 25.6022 62.3698 25.6723 62.3698 25.7283C62.3698 25.7843 62.3698 25.8543 62.3977 25.9384C62.4117 26.0084 62.4396 26.0784 62.4675 26.1345C62.4954 26.1905 62.5234 26.2325 62.5513 26.2745C62.5932 26.3165 62.6351 26.3445 62.663 26.3585C62.7049 26.3725 62.7468 26.3725 62.8026 26.3585C62.8585 26.3445 62.9004 26.3305 62.9283 26.3025C62.9562 26.2745 62.9841 26.2465 62.9981 26.2045C63.0121 26.1625 63.0121 26.1204 63.0121 26.0644C63.0121 26.0084 62.9981 25.9524 62.9841 25.8824L62.9004 25.5042L63.2773 25.4202L63.3611 25.7843C63.3751 25.8543 63.403 25.9104 63.417 25.9664C63.4449 26.0084 63.4589 26.0504 63.4868 26.0644C63.5147 26.0924 63.5426 26.1064 63.5705 26.1064C63.5985 26.1064 63.6404 26.1064 63.6823 26.0924C63.7521 26.0784 63.7939 26.0364 63.8079 25.9524C63.8219 25.8683 63.8219 25.7703 63.7939 25.6583C63.78 25.5882 63.7521 25.5182 63.7241 25.4622C63.6962 25.4062 63.6683 25.3501 63.6404 25.2941C63.5985 25.2381 63.5705 25.1961 63.5426 25.1681C63.5147 25.1401 63.4868 25.098 63.4589 25.07L63.4449 25.014L63.8777 24.916C63.9336 25 63.9894 25.112 64.0592 25.2381C64.1151 25.3641 64.1709 25.5042 64.1989 25.6583C64.2687 25.9384 64.2687 26.1765 64.2128 26.3305C64.157 26.4986 64.0453 26.5966 63.8917 26.6246C63.78 26.6527 63.6683 26.6387 63.5566 26.5826C63.4589 26.5266 63.3751 26.4426 63.3192 26.3305H63.3053C63.3053 26.3866 63.3053 26.4426 63.2913 26.4986C63.2773 26.5546 63.2634 26.6106 63.2355 26.6667C63.2075 26.7227 63.1656 26.7787 63.1238 26.8207C63.0539 26.8767 62.9841 26.9048 62.9004 26.9328ZM62.7328 29.4538L62.6351 28.9076L63.403 28.7535L63.3472 28.4594L62.4815 28.0812L62.3558 27.437L63.3472 27.8992C63.3751 27.7591 63.4309 27.6471 63.5147 27.549C63.5985 27.465 63.7241 27.395 63.8917 27.3669C64.0034 27.3529 64.1011 27.3529 64.1849 27.381C64.2687 27.409 64.3524 27.465 64.4223 27.521C64.4781 27.577 64.52 27.6471 64.5619 27.7311C64.6038 27.8151 64.6317 27.9272 64.6596 28.0392L64.8551 29.0196L62.7328 29.4538ZM63.78 28.6835L64.3385 28.5714L64.2826 28.3053C64.2687 28.2213 64.2547 28.1653 64.2407 28.1232C64.2268 28.0812 64.1989 28.0392 64.157 28.0112C64.129 27.9832 64.0872 27.9692 64.0453 27.9552C64.0034 27.9412 63.9615 27.9412 63.9196 27.9552C63.8777 27.9692 63.8358 27.9832 63.7939 28.0112C63.766 28.0392 63.7381 28.0672 63.7102 28.1092C63.6962 28.1513 63.6823 28.1933 63.6823 28.2493C63.6823 28.2913 63.6962 28.3613 63.7102 28.4454L63.78 28.6835ZM62.9004 32.1569L62.8585 31.6246L64.2687 31.5126L62.7887 30.7423L62.7468 30.2101L64.869 30.042L64.9109 30.5742L63.6264 30.6723L64.9668 31.4006L65.0087 31.9888L62.9004 32.1569ZM65.7068 31.7367C65.5253 31.7507 65.3857 31.6947 65.274 31.5686C65.1623 31.4426 65.0924 31.2605 65.0785 31.0084C65.0645 30.7703 65.0924 30.5742 65.1902 30.4342C65.274 30.2941 65.4136 30.2101 65.5951 30.1961L65.637 30.6723C65.5253 30.6863 65.4555 30.7143 65.4136 30.7563C65.3717 30.7983 65.3577 30.8824 65.3577 30.9804C65.3717 31.0924 65.3996 31.1625 65.4415 31.1905C65.4974 31.2325 65.5672 31.2465 65.6789 31.2325L65.7068 31.7367ZM24.6296 21.4426L7.62344 18.5574C8.92194 16.2885 10.4997 14.2157 12.3288 12.381C17.6205 7.07283 24.9228 3.79552 32.993 3.79552C41.0633 3.79552 48.3656 7.07283 53.6573 12.381C55.4864 14.2157 57.0781 16.2885 58.3626 18.5574L41.3565 21.4566L41.2867 36.6527L43.0319 36.7787C43.3391 36.7647 43.6602 36.7507 43.9674 36.7367V36.8487L44.7074 36.9048V36.7087C45.4195 36.6807 46.1455 36.6387 46.8716 36.6106C46.8716 37.8571 46.8856 39.1036 46.8995 40.3641L45.3637 40.3782V43.8936L59.9683 44.4538C59.1305 46.4566 58.0834 48.3333 56.8547 50.084L49.6501 44.3978L41.0493 44.1176H36.8606V42.0728H29.1394V44.1176H24.9367L16.3359 44.3978L9.13137 50.084C7.90269 48.3473 6.85551 46.4566 6.01777 44.4538L20.6224 43.8936V40.3782L19.0865 40.3641C19.0865 39.1176 19.1005 37.8571 19.1144 36.6106C19.8405 36.6387 20.5665 36.6807 21.2786 36.7087V36.9048L22.0186 36.8487V36.7367C22.3258 36.7507 22.6469 36.7647 22.9541 36.7787L24.6994 36.6527L24.6296 21.4426ZM57.8181 54.916L57.8041 55H57.7483H8.26571H8.20986L8.1959 54.916C5.61286 51.9608 3.54644 48.5434 2.13624 44.8039C0.753967 41.1625 0 37.2129 0 33.1092C0 23.9636 3.70002 15.6863 9.66194 9.69188C15.6378 3.71148 23.8896 0 33.007 0C42.1244 0 50.3761 3.71148 56.3381 9.69188C62.3139 15.6863 66 23.9636 66 33.0952C66 37.2129 65.246 41.1485 63.8777 44.7899C62.4675 48.5434 60.4011 51.9608 57.8181 54.916ZM21.7952 47.8852C22.2001 47.2969 22.4514 46.8347 22.5631 46.4706C22.6748 46.1204 22.6748 45.8543 22.5631 45.6443C22.4794 45.4762 22.3258 45.3361 22.1024 45.2521C21.879 45.1681 21.5718 45.126 21.2088 45.126C20.4828 45.126 19.7288 45.2941 18.9329 45.6302C18.5141 45.8123 18.1092 46.0224 17.7322 46.2745C17.3412 46.5266 16.9642 46.8207 16.6012 47.1709C16.1265 47.605 15.8054 47.9972 15.6239 48.3193C15.4424 48.6555 15.3865 48.9356 15.4563 49.1457C15.5122 49.3137 15.6518 49.4258 15.8473 49.5098C16.0427 49.5938 16.2941 49.6359 16.6012 49.6359C17.0061 49.6359 17.3831 49.5798 17.7322 49.4818C18.0812 49.3838 18.5001 49.2437 18.9469 49.0476C18.6118 49.3978 18.2627 49.7199 17.8997 49.986C17.5227 50.2661 17.1458 50.5042 16.7548 50.7003C16.3778 50.8824 16.0148 51.0224 15.6378 51.1204C15.2608 51.2045 14.9118 51.2605 14.6186 51.2605C14.2416 51.2605 13.9763 51.2185 13.8367 51.1485C13.6971 51.0784 13.5854 51.0084 13.5295 50.9524C13.4597 50.9524 13.3759 50.9524 13.2922 50.9524C12.594 51.6387 11.8261 52.381 11.0163 53.1793C11.1001 53.2213 11.2955 53.2633 11.6167 53.3193C11.9378 53.3753 12.2729 53.3894 12.594 53.3894C13.5155 53.3894 14.451 53.2213 15.4144 52.8852C16.3359 52.563 17.2435 52.1008 18.1231 51.5126C18.8911 50.9944 19.6031 50.4062 20.2454 49.7479C20.8597 49.1176 21.3763 48.5014 21.7952 47.8852ZM20.1477 47.605C20.4409 47.2409 20.6363 46.9468 20.748 46.7367C20.8458 46.5266 20.8877 46.3585 20.8597 46.2465C20.8458 46.1625 20.7899 46.1064 20.7201 46.0644C20.6363 46.0364 20.5386 46.0084 20.4129 46.0084C20.3012 46.0084 20.1756 46.0224 20.0499 46.0644C19.9103 46.0924 19.7707 46.1485 19.5892 46.2325C19.4216 46.3165 19.2401 46.4286 19.0586 46.5686C18.8771 46.7087 18.6816 46.8768 18.4861 47.0868C18.2907 47.2969 18.165 47.465 18.0952 47.619C18.0254 47.7731 17.9975 47.8852 18.0393 47.9832C18.0812 48.0672 18.151 48.1373 18.2767 48.1653C18.4024 48.2073 18.556 48.2213 18.7514 48.2213C18.905 48.2213 19.0726 48.2073 19.296 48.1653C19.5054 48.1232 19.659 48.0952 19.7986 48.0532C19.8265 48.0252 19.8684 47.9692 19.9382 47.8992C19.9662 47.8431 20.036 47.7451 20.1477 47.605ZM28.8462 48.3053C28.9858 47.7031 29.0556 47.2129 29.0556 46.8067C29.0556 46.4146 28.9858 46.1064 28.8462 45.8683C28.7066 45.6302 28.4971 45.4622 28.2319 45.3361C27.9666 45.2241 27.6036 45.1681 27.1428 45.1681C26.71 45.1681 26.3051 45.2241 25.9281 45.3221C25.5511 45.4342 25.1881 45.6022 24.853 45.8263C24.5039 46.0644 24.1688 46.3725 23.8337 46.7647C23.4847 47.1709 23.1216 47.6751 22.7447 48.2913C22.3397 48.9496 22.0186 49.5658 21.7813 50.1541C21.5299 50.7843 21.4043 51.3305 21.4322 51.8067C21.4462 52.2969 21.6277 52.6891 21.9907 52.9552C22.3537 53.2353 22.8982 53.3754 23.6243 53.3754C24.3643 53.3754 25.0205 53.2353 25.6209 52.9552C26.2073 52.6891 26.71 52.2969 27.1568 51.8207C27.5756 51.3585 27.9247 50.8123 28.2179 50.1681C28.4692 49.5798 28.6926 48.9496 28.8462 48.3053ZM26.9334 48.2913C27.2405 47.437 27.3662 46.8768 27.3243 46.5686C27.2824 46.2745 27.0869 46.1204 26.7379 46.1204C26.3888 46.1204 26.0677 46.2605 25.7745 46.5686C25.4673 46.8768 25.1043 47.437 24.6854 48.3053C24.2247 49.2437 23.9454 49.986 23.9035 50.4762C23.8616 50.9944 24.0711 51.2605 24.5458 51.2605C25.0205 51.2605 25.4673 50.9944 25.8583 50.4762C26.2213 49.986 26.5843 49.2437 26.9334 48.2913ZM40.9376 53.1232C40.3931 51.6807 39.9183 50.4202 39.4995 49.2997C39.1225 48.3193 38.7874 47.437 38.4802 46.6387C37.0561 46.6387 35.6179 46.6246 34.1938 46.6246C34.2217 46.9328 34.2357 47.2269 34.2496 47.493C34.2636 47.7731 34.2776 48.0252 34.2776 48.2493C34.3055 48.8936 34.2915 49.4258 34.2357 49.8039C34.1798 50.1961 34.0402 50.5322 33.8168 50.8123C33.747 50.8824 33.6632 50.9384 33.5655 50.9524C33.4677 50.9804 33.37 50.9804 33.2723 50.9804C33.2304 50.9804 33.2025 50.9804 33.1606 50.9804C33.1326 50.9804 33.0908 50.9664 33.0768 50.9664C33.0489 50.9664 33.0349 50.9664 33.0209 50.9664C33.0209 51.6386 33.0209 52.3389 33.0349 53.1092C33.0768 53.1092 33.1885 53.1232 33.3979 53.1373C33.5934 53.1513 33.8028 53.1653 33.9983 53.1653C34.2496 53.1653 34.5149 53.1092 34.7662 53.0112C35.0315 52.9132 35.227 52.7731 35.3806 52.605C35.5062 52.465 35.6319 52.2829 35.7436 52.1008C35.8553 51.9048 35.9391 51.6667 36.0228 51.3585C36.0927 51.0644 36.1345 50.7003 36.1345 50.2661C36.1345 49.8599 36.0927 49.3557 36.0089 48.7675C35.981 48.5714 35.953 48.4174 35.9391 48.2773C35.9251 48.1373 35.8832 47.9552 35.8553 47.7171C36.3161 47.7171 36.7908 47.7171 37.2515 47.7171C37.447 48.4174 37.6564 49.1877 37.8798 50.028C38.1312 50.9524 38.4104 51.9748 38.7176 53.1232C39.4297 53.1232 40.1836 53.1232 40.9376 53.1232ZM47.2486 49.7059C47.0531 49.4678 46.8716 49.2297 46.6761 49.0056C46.3131 48.5574 45.9501 48.1653 45.5871 47.8571C45.238 47.549 44.8889 47.2969 44.5259 47.1008C43.8278 46.7227 43.1018 46.5266 42.3199 46.5266C41.4682 46.5266 40.9097 46.7367 40.6304 47.1849C40.4908 47.423 40.4349 47.7031 40.4629 48.0532C40.4908 48.4174 40.6304 48.8375 40.8538 49.3417C41.1051 49.888 41.4123 50.3922 41.7893 50.8543C42.1942 51.3445 42.6689 51.7787 43.2135 52.1569C44.3584 52.9552 45.6848 53.3754 47.1089 53.3754C47.6674 53.3754 48.1282 53.3193 48.4912 53.1933C48.8542 53.0672 49.1754 52.8852 49.4686 52.619C48.8822 51.8908 48.3376 51.2045 47.835 50.5602C47.7652 50.5602 47.6814 50.5602 47.6116 50.5602C47.5418 50.7703 47.3882 50.9664 47.1229 51.1485C46.8437 51.3445 46.4946 51.4426 46.0618 51.4286C45.3776 51.4286 44.7493 51.2605 44.2048 50.9524C43.6882 50.6443 43.2553 50.2101 42.9342 49.6919C44.3723 49.7059 45.8104 49.7059 47.2486 49.7059ZM44.5678 48.5574C44.3025 48.1793 44.0233 47.9132 43.7301 47.7311C43.4508 47.563 43.1436 47.465 42.7946 47.465C42.4734 47.465 42.264 47.535 42.1523 47.7031C42.0406 47.8711 42.0825 48.1513 42.278 48.5434C43.0319 48.5434 43.7999 48.5434 44.5678 48.5574ZM51.0882 47.7311C50.6693 47.3669 50.2644 47.0168 49.8875 46.6807C48.3237 46.6807 46.7738 46.6667 45.2101 46.6667C45.4893 47.0028 45.7825 47.3529 46.0897 47.7171C46.6482 47.7171 47.1927 47.7171 47.7512 47.7171C48.4074 48.4174 49.1335 49.1877 49.9154 50.028C50.781 50.9524 51.7444 51.9748 52.8195 53.1232C53.5595 53.1232 54.3135 53.1232 55.0535 53.1232C53.8667 51.9888 52.7916 50.9524 51.8282 50.028C50.9486 49.1877 50.1527 48.4174 49.4127 47.7171C49.9712 47.7311 50.5297 47.7311 51.0882 47.7311ZM33.1047 9.28572C33.1466 9.36975 33.1187 9.43978 33.0349 9.52381C32.9372 9.62185 32.7138 9.73389 32.5043 9.83193C32.3787 9.88795 32.267 9.94398 32.2111 9.98599C32.0855 10.07 31.9738 10.1541 31.8621 10.2521C31.7504 10.3501 31.6526 10.4482 31.5689 10.5462C31.4432 10.6863 31.3175 10.8543 31.1919 11.0504C31.0662 11.2465 30.9266 11.4846 30.8009 11.7367C30.6473 12.0448 30.5217 12.2969 30.4239 12.493C30.3122 12.6891 30.2285 12.8431 30.1587 12.9412C29.8794 13.3333 29.5583 13.6975 29.1813 14.0056C28.8183 14.3277 28.3994 14.6078 27.9247 14.8459C27.0171 15.3221 26.1375 15.5602 25.2998 15.5602C24.6017 15.5602 23.9454 15.3361 23.4707 14.916C23.0379 14.5378 22.7726 14.0056 22.7586 13.3473L22.7028 13.2773C22.3677 12.8431 22.1164 12.521 22.1164 11.8487C22.1164 11.6106 22.1443 11.3725 22.2141 11.1625C22.4375 10.3922 23.0099 9.81793 23.736 9.43978C24.4481 9.07563 25.3137 8.89356 26.1235 8.89356H26.2632L26.2492 8.87955C26.2213 8.83753 26.2213 8.79552 26.2213 8.7395V8.71148L26.2352 8.68347C26.3888 8.29132 26.6681 7.96919 26.9892 7.7591C27.2685 7.57703 27.5896 7.47899 27.8968 7.46499C28.2179 7.45098 28.5251 7.52101 28.7904 7.70308C28.9858 7.84314 29.1534 8.02521 29.2651 8.29132C29.3488 8.27731 29.4466 8.2633 29.5304 8.2633C29.67 8.2493 29.8096 8.2493 29.9632 8.2493C30.4938 8.2493 31.0941 8.40336 31.6945 8.54342C32.0436 8.62745 32.3787 8.71148 32.6998 8.76751C33.3002 8.83753 33.9704 8.69748 34.6964 8.55742C35.576 8.37535 36.5534 8.17927 37.6425 8.30532C37.8519 8.16527 38.0474 8.03922 38.2429 7.95518C38.4663 7.85714 38.6757 7.80112 38.8712 7.80112C39.0527 7.80112 39.2063 7.82913 39.304 7.89916C39.4297 7.96919 39.4995 8.09524 39.4995 8.23529C39.4995 8.34734 39.4576 8.44538 39.3878 8.52941C39.3319 8.58543 39.2621 8.62745 39.1783 8.64146C39.6112 8.7395 40.058 8.83753 40.4768 8.82353C40.6165 8.82353 40.7561 8.80952 40.9236 8.79552C41.0214 8.78151 41.1331 8.78151 41.2308 8.76751C41.161 8.65546 41.0772 8.55742 40.9655 8.5014C40.8259 8.41737 40.6444 8.40336 40.421 8.45938C40.3232 8.4874 40.2116 8.47339 40.1557 8.44538C40.0859 8.41737 40.044 8.36134 40.044 8.29132C40.044 8.22129 40.0719 8.16527 40.1697 8.12325C40.2395 8.09524 40.407 8.06723 40.7002 8.06723C40.9795 8.06723 41.2308 8.13725 41.4263 8.2493C41.6078 8.34734 41.7614 8.5014 41.8591 8.66947C42.0406 8.62745 42.2082 8.58543 42.3618 8.54342C42.627 8.47339 42.8365 8.38935 42.9342 8.34734C43.0459 8.30532 43.2135 8.22129 43.367 8.13725C43.4787 8.08123 43.5765 8.0112 43.6463 7.95518C43.7301 7.88515 43.8138 7.88515 43.8836 7.91317C43.9116 7.92717 43.9255 7.94118 43.9535 7.95518C43.9674 7.96919 43.9814 7.9972 43.9953 8.02521C44.0233 8.09524 44.0093 8.16527 43.9535 8.22129C43.9255 8.23529 43.8697 8.27731 43.7859 8.33333C43.7161 8.37535 43.6184 8.43137 43.5206 8.5014C43.3531 8.59944 43.1436 8.71148 42.8644 8.82353C42.627 8.92157 42.3478 9.01961 42.0406 9.08964C42.0546 9.13165 42.0546 9.15966 42.0546 9.20168C42.0685 9.28571 42.0685 9.38375 42.0685 9.48179C42.0685 9.80392 42.0127 10.126 41.901 10.4622C42.4874 9.92997 43.2833 9.34174 44.0931 8.85154C45.0425 8.27731 46.0059 7.84314 46.718 7.80112H46.7738C46.8855 7.80112 47.0112 7.81513 47.1089 7.87115C47.2346 7.92717 47.3323 8.03922 47.3323 8.20728V8.22129C47.3323 8.33333 47.2905 8.43137 47.2206 8.51541C47.1508 8.58543 47.0531 8.62745 46.9414 8.64146H46.9274H46.9135C46.6901 8.64146 46.5644 8.54342 46.5644 8.33333C46.5644 8.27731 46.5784 8.20728 46.6203 8.16527C45.4614 8.27731 43.6602 9.42577 42.1663 10.8263C40.784 12.1289 39.681 13.6274 39.681 14.6499C39.681 14.7899 39.7089 14.888 39.7648 14.944C39.8206 15 39.9044 15.028 40.03 15.028C40.1836 15.028 40.3791 14.916 40.6304 14.6919C40.8957 14.4538 41.2308 14.0756 41.6078 13.5994C41.6636 13.5294 41.7334 13.5014 41.7893 13.4874C41.8312 13.4874 41.8731 13.5014 41.901 13.5154C41.9429 13.5434 41.9568 13.5854 41.9708 13.6275C41.9848 13.6835 41.9568 13.7535 41.901 13.8375C41.524 14.3417 41.175 14.7339 40.8678 14.986C40.5327 15.2661 40.2255 15.4062 39.9742 15.4062C39.29 15.4062 38.941 15 38.941 14.1877C38.941 13.9776 38.9689 13.7535 39.0108 13.5294L39.0247 13.4454C38.3406 14.0756 37.7123 14.5658 37.1259 14.902C36.3998 15.3221 35.7436 15.5462 35.1572 15.5462C35.0315 15.5462 34.85 15.5322 34.7104 15.5042C34.5568 15.4762 34.4311 15.4062 34.4311 15.2941C34.4172 15.1401 34.473 15.084 34.5847 15.07C34.6406 15.07 34.6825 15.084 34.7523 15.098C34.7942 15.112 34.836 15.126 34.864 15.126H34.8779C35.3387 15.2241 35.8832 15.056 36.3859 14.8039C36.9164 14.5518 37.4051 14.1877 37.7681 13.9076C38.3964 13.4034 38.8712 12.9692 39.29 12.507C39.7089 12.0308 40.0859 11.5126 40.5187 10.8543C40.7421 10.5182 40.9236 10.2521 41.0493 9.98599C41.1749 9.73389 41.2448 9.4958 41.2727 9.22969V9.20168C41.0912 9.22969 40.8957 9.2577 40.7002 9.27171C40.5466 9.28571 40.3791 9.29972 40.2116 9.29972C40.2255 9.35574 40.1976 9.41176 40.1557 9.46779C40.1278 9.5098 40.0859 9.53782 40.03 9.57983C39.9183 9.66387 39.7508 9.7479 39.6949 9.7619L39.667 9.77591C39.5693 9.81793 39.3459 9.88795 38.8851 10.3221C38.4104 10.7703 38.1312 11.3305 37.8519 11.8908C37.6425 12.2969 37.447 12.7171 37.1538 13.0812C36.7768 13.5714 36.6791 13.6415 36.4278 13.8655C36.3579 13.9216 36.2602 14.0056 36.1764 14.0756C35.8693 14.3417 35.3108 14.6639 34.7243 14.888C34.2357 15.07 33.7051 15.1961 33.2862 15.1821C33.1606 15.1821 33.0349 15.1401 32.9511 15.07C32.8394 14.986 32.7557 14.8739 32.7138 14.7339C32.6719 14.6078 32.644 14.4538 32.6579 14.2717C32.6719 13.8796 32.8394 13.4034 33.1745 12.9412V12.9272V12.9132L33.3281 12.7591C33.6492 12.423 34.2217 11.8067 34.2217 11.5966C34.2357 11.4286 34.124 11.3725 33.9843 11.3725C33.8866 11.3725 33.7749 11.3725 33.6772 11.3866C33.5375 11.4006 33.3979 11.4146 33.2862 11.3866C32.9092 11.8487 32.5043 12.381 32.1413 12.8992C31.8341 13.3333 31.5689 13.7675 31.3873 14.1317C31.1919 14.5378 30.9545 14.8179 30.8009 14.93C30.7032 15 30.6055 15.014 30.5217 14.972C30.4379 14.93 30.396 14.8319 30.41 14.6919C30.4379 14.4818 30.6055 14.0896 31.0104 13.4594L31.0243 13.4454C31.8481 12.381 32.9651 10.9244 33.7051 9.69188L33.7889 9.55182L33.9145 9.63585C33.9564 9.66387 34.0402 9.67787 34.1379 9.67787C34.2776 9.67787 34.4172 9.64986 34.501 9.62185L35.3108 9.29972L34.6406 9.85994C34.5847 9.90196 34.4451 10.056 34.2357 10.2801C34.11 10.4202 33.9564 10.6022 33.7889 10.7983C33.8308 10.8123 33.8587 10.8123 33.9006 10.8263C33.9983 10.8543 34.096 10.8964 34.1798 10.9384C34.864 10.6583 35.604 9.98599 36.3161 9.34174C36.5395 9.14566 36.7628 8.94958 36.9723 8.76751C36.9164 8.7535 36.8466 8.7535 36.7908 8.7395C36.6372 8.72549 36.4976 8.71148 36.3579 8.71148C35.7017 8.71148 35.1013 8.83753 34.501 8.96358C34.0402 9.14566 33.5934 9.2437 33.1047 9.28572ZM26.5983 8.92157C26.6262 8.89356 26.6402 8.86555 26.6402 8.83753C26.7519 8.52941 26.9613 8.27731 27.2126 8.10924C27.422 7.96919 27.6594 7.88515 27.8968 7.87115C28.1202 7.85714 28.3575 7.89916 28.539 8.02521C28.6647 8.10924 28.7764 8.22129 28.8462 8.37535C28.5809 8.43137 28.3296 8.5014 28.0922 8.59944C27.813 8.71148 27.5477 8.86555 27.2964 9.04762C27.0869 8.97759 26.8496 8.93557 26.5983 8.92157ZM38.7874 8.54342C38.7455 8.48739 38.7315 8.43137 38.7315 8.34734C38.7315 8.30532 38.7455 8.2633 38.7595 8.22129C38.7734 8.20728 38.7734 8.19328 38.7874 8.17927C38.6897 8.19328 38.578 8.22129 38.4663 8.27731C38.3825 8.31933 38.3127 8.36134 38.2149 8.41737C38.3685 8.45938 38.55 8.5014 38.7176 8.54342H38.7874ZM39.6531 9.34174C39.5134 9.34174 39.3878 9.32773 39.2621 9.31372C39.0666 9.29972 38.8851 9.27171 38.6897 9.22969C38.4244 9.17367 38.187 9.11765 37.9636 9.04762L37.7402 8.9916L37.6006 8.96358L37.5447 8.94958L36.4278 10.028C36.0927 10.3221 35.7436 10.5742 35.3806 10.7843C35.1013 10.9524 34.8081 11.1064 34.5149 11.2465C34.5708 11.3025 34.6266 11.3585 34.6545 11.4286C34.7383 11.5546 34.7802 11.6947 34.7802 11.8487C34.7802 12.409 34.1938 13.0672 33.733 13.5854C33.6213 13.7115 33.5096 13.8375 33.4258 13.9356C33.3421 14.0476 33.2304 14.2297 33.1745 14.4258C33.1466 14.5238 33.1187 14.6078 33.1326 14.6919C33.1326 14.7339 33.1606 14.7759 33.2025 14.7899C33.2304 14.8039 33.2583 14.8039 33.3142 14.8179C33.7051 14.8459 34.0821 14.6919 34.4172 14.4538C34.7662 14.2157 35.0734 13.8936 35.3387 13.6275C35.4364 13.5154 35.576 13.3473 35.7296 13.1653C35.9111 12.9272 36.1066 12.6611 36.2183 12.493C36.2602 12.437 36.3021 12.3669 36.344 12.2969C36.4976 12.0448 36.6791 11.7647 37.1398 11.3165C37.4889 10.9664 37.8938 10.5742 38.3266 10.2241C38.7595 9.84594 39.2063 9.53781 39.6531 9.34174ZM28.9998 8.79552C29.0277 8.94958 29.0417 9.13165 29.0277 9.29972C29.0138 9.48179 28.9858 9.66386 28.9439 9.83193C28.7764 9.69188 28.5809 9.56583 28.3854 9.45378C28.2039 9.35574 28.0085 9.2577 27.813 9.18767C27.9945 9.07563 28.162 8.9916 28.3436 8.93557C28.567 8.85154 28.7903 8.80952 28.9998 8.79552ZM28.8183 10.2521C28.7624 10.3922 28.7066 10.5182 28.6368 10.6443C28.5949 10.7283 28.539 10.8123 28.4832 10.8824C28.3017 10.6723 28.0783 10.5042 27.799 10.3641C27.5198 10.2381 27.1986 10.1541 26.8356 10.112C26.8915 10.014 26.9613 9.91597 27.0311 9.83193C27.1288 9.70588 27.2545 9.59384 27.3802 9.4958C27.6734 9.56583 27.9387 9.67787 28.176 9.80392C28.4134 9.92997 28.6228 10.07 28.8183 10.2521ZM28.2039 11.2325C27.9107 11.5266 27.5896 11.6807 27.3103 11.7087C27.1568 11.7227 27.0171 11.6947 26.9194 11.6387C26.8077 11.5826 26.7239 11.4846 26.6681 11.3725C26.5843 11.1765 26.5703 10.9104 26.6541 10.5742C27.0311 10.6022 27.3383 10.6723 27.6036 10.7983C27.8409 10.8964 28.0503 11.0364 28.2039 11.2325ZM26.9054 9.38375C26.682 9.60784 26.5145 9.84594 26.4028 10.084C26.3609 10.084 26.3051 10.084 26.2492 10.084C25.2718 10.084 24.4341 10.4202 23.7499 11.1064C23.4288 11.4146 23.1915 11.7367 23.0379 12.0728C22.9262 12.3109 22.8564 12.563 22.8145 12.8151C22.633 12.563 22.5352 12.2549 22.5352 11.8908C22.5352 11.7227 22.5492 11.5686 22.5911 11.4286C22.7447 10.7283 23.2752 10.2101 23.9454 9.85994C24.6296 9.5098 25.4673 9.34174 26.2352 9.34174C26.4586 9.34174 26.696 9.35574 26.9054 9.38375ZM28.4692 11.9468C28.4692 12.409 28.2179 12.8011 27.813 13.1232C27.4919 13.3753 27.0869 13.5854 26.6402 13.7255C26.1934 13.8655 25.7047 13.9496 25.216 13.9496C24.3922 13.9496 23.6243 13.7255 23.1775 13.1933C23.1775 12.8011 23.2613 12.451 23.4288 12.1289C23.5964 11.7927 23.8477 11.4986 24.1828 11.2465C24.4899 11.0084 24.839 10.8263 25.216 10.7003C25.5371 10.6022 25.8722 10.5322 26.2492 10.5182C26.1515 10.9244 26.1934 11.2605 26.3051 11.4986C26.4028 11.6947 26.5564 11.8487 26.7379 11.9328C26.9194 12.0168 27.1288 12.0588 27.3522 12.0308C27.7013 12.0028 28.0922 11.8347 28.4134 11.5266C28.4273 11.5546 28.4273 11.5826 28.4413 11.6106C28.4553 11.7507 28.4692 11.8487 28.4692 11.9468ZM5.16607 24.1737L5.06833 24.4678L5.1521 24.4818L5.16607 24.1737ZM4.77512 25.4902C4.42606 26.8067 4.16078 28.1653 3.99323 29.5378L5.02644 29.6359C5.06833 28.2633 5.09626 26.8908 5.12418 25.5322L4.77512 25.4902ZM3.88153 30.6022C3.81172 31.4286 3.76983 32.2689 3.76983 33.1092C3.76983 33.6835 3.78379 34.2437 3.81172 34.8039L4.88682 34.8599C4.91474 33.4734 4.95663 32.0868 4.98456 30.7003L3.88153 30.6022ZM3.90946 35.8824C4.04908 37.3389 4.28644 38.7535 4.62154 40.1401H4.77512C4.80305 38.7395 4.84493 37.3249 4.87286 35.9244L3.90946 35.8824ZM61.3785 40.1401C61.7136 38.7535 61.9509 37.3389 62.0905 35.8824L61.1132 35.9244C61.1551 37.3249 61.183 38.7255 61.2109 40.1401H61.3785ZM62.1743 34.8039C62.2022 34.2437 62.2162 33.6835 62.2162 33.1092C62.2162 32.2689 62.1743 31.4286 62.1045 30.6022L60.9875 30.7003C61.0154 32.0868 61.0573 33.4734 61.0853 34.8599L62.1743 34.8039ZM62.0068 29.5378C61.8392 28.1513 61.5739 26.8067 61.2249 25.4902L60.8758 25.5322C60.9037 26.8908 60.9456 28.2633 60.9736 29.6359L62.0068 29.5378ZM60.9317 24.4678L60.8339 24.1737L60.8479 24.4818L60.9317 24.4678ZM59.8286 21.4706C59.703 21.1905 59.5773 20.9104 59.4517 20.6443L57.1758 21.0224C57.2037 22.3389 57.2316 23.6555 57.2456 24.972C58.1113 24.8599 58.9909 24.7339 59.8845 24.6218C59.8845 23.5574 59.8566 22.521 59.8286 21.4706ZM6.54834 20.6443C6.42268 20.9244 6.29702 21.1905 6.17136 21.4706C6.14343 22.507 6.12947 23.5574 6.10154 24.6078C6.99513 24.7339 7.87476 24.8459 8.74043 24.958C8.76835 23.6415 8.79628 22.3249 8.81024 21.0084L6.54834 20.6443ZM21.5997 43.8235L24.7413 43.6975L24.7133 38.0952L24.085 38.1232V40.3922C23.4009 40.3782 22.7167 40.3782 22.0047 40.3641V38.2213L21.5858 38.2353V43.8235H21.5997ZM24.7133 37.577V37.1429L24.085 37.1849V37.605L24.7133 37.577ZM22.0186 37.7171V37.3389L21.2786 37.395V37.7591H21.3345L22.0186 37.7171ZM40.8817 43.7535V38.0812L38.7315 37.9692V40.9524H37.824V43.6975L37.838 43.7675H40.8817V43.7535ZM40.8817 37.563V37.1148L37.4191 36.8767H28.5809L25.1183 37.1148V37.563L28.4273 37.395L28.6926 37.381V37.395H28.8881H37.1259H37.3213V37.381L37.5866 37.395L40.8817 37.563ZM40.8817 36.6106V21.3725V21.1204H41.1331H41.8731V19.5798H41.0214H40.77V19.3277V17.0448H25.23V19.3277V19.5798H24.9786H24.1269V21.1204H24.8669H25.1183V21.3725V36.6106L28.567 36.3726H28.5809H37.4191H37.433L40.8817 36.6106ZM25.1183 38.0672V43.7395H28.162L28.176 43.6695V40.9244H27.2685V37.9412L25.1183 38.0672ZM29.1394 41.5266H29.8515V38.4454H36.1485V41.5266H36.8606V37.8992H29.1394V41.5266ZM38.7315 32.7591H37.2236V35.9244H38.7315V32.7591ZM29.4466 32.7591V35.9944H32.7138V32.7451H29.4466V32.7591ZM26.5703 22.1148V24.8179L28.8602 26.6246V22.1148H26.5703ZM29.4466 22.1148V27.6611H32.7138V22.1148H29.4466ZM29.4466 28.1513V32.2969H32.7138V28.1513H29.4466ZM27.2685 28.1513V31.3165H28.7764V28.1513H27.2685ZM27.2685 32.7591V35.9244H28.7764V32.7591H27.2685ZM36.5674 22.1148H33.3002V27.6611H36.5674V22.1148ZM36.5674 28.1513H33.3002V32.2969H36.5674V28.1513ZM36.5674 32.7591H33.3002V35.9944H36.5674V32.7591ZM39.4297 22.1148H37.1398V26.6246L39.4297 24.8179V22.1148ZM38.7315 28.1513H37.2236V31.3165H38.7315V28.1513ZM41.3006 37.1429V37.577L41.9289 37.605V37.1849L41.3006 37.1429ZM41.3006 38.0952L41.2727 43.7115L44.4003 43.8375V38.2493L43.9814 38.2353V40.3782C43.2833 40.3922 42.5851 40.3922 41.901 40.4062V38.1373L41.3006 38.0952ZM43.9535 23.2213C43.2693 23.3333 42.5991 23.4454 41.9289 23.5574C41.9289 24.7059 41.9289 25.8683 41.9289 27.0308C42.5991 26.9468 43.2833 26.8487 43.9674 26.7647C43.9535 25.5742 43.9535 24.3978 43.9535 23.2213ZM43.9814 37.7171L44.6655 37.7451H44.7214V37.381L43.9814 37.3249V37.7171ZM59.9264 25.6443C59.0328 25.7563 58.1532 25.8683 57.2735 25.9804C57.3015 27.3109 57.3294 28.6415 57.3433 29.972C58.223 29.888 59.1026 29.8039 60.0102 29.7199C59.9962 28.3613 59.9543 27.0028 59.9264 25.6443ZM60.052 30.7843C59.1445 30.8683 58.2649 30.9384 57.3852 31.0084C57.4132 32.3529 57.4411 33.6975 57.469 35.056C58.3486 35 59.2422 34.958 60.1498 34.916C60.1079 33.5294 60.08 32.1569 60.052 30.7843ZM60.1637 35.9804C59.2562 36.0224 58.3626 36.0644 57.483 36.1064C57.5109 37.465 57.5388 38.8375 57.5667 40.1961C58.4603 40.1821 59.3539 40.1681 60.2754 40.1541C60.2196 38.7535 60.1917 37.3669 60.1637 35.9804ZM56.5615 36.1345C55.6958 36.1765 54.858 36.2045 54.0203 36.2465C54.0343 37.563 54.0622 38.8936 54.0762 40.2241C54.9139 40.2101 55.7656 40.1961 56.6313 40.1961C56.6173 38.8515 56.5894 37.493 56.5615 36.1345ZM56.4777 31.0924C55.626 31.1625 54.7882 31.2325 53.9505 31.3165C53.9645 32.619 53.9924 33.9356 54.0063 35.2521C54.8441 35.2101 55.6818 35.1541 56.5475 35.112C56.5196 33.7675 56.5056 32.423 56.4777 31.0924ZM56.3799 26.0924C55.5282 26.2045 54.7045 26.3025 53.8667 26.4146C53.8807 27.7031 53.9086 29.0056 53.9226 30.3081C54.7603 30.2241 55.598 30.1541 56.4498 30.07C56.4358 28.7395 56.4079 27.409 56.3799 26.0924ZM56.2962 21.1625C55.4584 21.3025 54.6207 21.4426 53.8109 21.5826C53.8248 22.8571 53.8528 24.1457 53.8667 25.4202C54.6905 25.3081 55.5282 25.1961 56.366 25.084C56.3381 23.7815 56.3241 22.465 56.2962 21.1625ZM52.9592 21.7227C52.1633 21.8487 51.3814 21.9888 50.5995 22.1148C50.6135 23.3613 50.6275 24.6078 50.6414 25.8543C51.4233 25.7563 52.2192 25.6443 53.015 25.5322C53.0011 24.2577 52.9731 22.9832 52.9592 21.7227ZM53.029 26.5266C52.2192 26.6246 51.4373 26.7227 50.6554 26.8207C50.6693 28.0812 50.6833 29.3417 50.6973 30.6022C51.4792 30.5322 52.275 30.4482 53.0848 30.3781C53.0569 29.0896 53.0429 27.8011 53.029 26.5266ZM53.0988 31.3725C52.289 31.4426 51.4931 31.5126 50.7112 31.5826C50.7252 32.8571 50.7392 34.1317 50.7531 35.4062C51.549 35.3641 52.3448 35.3221 53.1546 35.2801C53.1267 33.9776 53.1128 32.6751 53.0988 31.3725ZM53.1686 36.3025C52.3588 36.3445 51.549 36.3725 50.7671 36.4146C50.781 37.7031 50.795 38.9916 50.809 40.2801C51.6048 40.2661 52.4007 40.2661 53.2245 40.2521C53.1965 38.9356 53.1826 37.605 53.1686 36.3025ZM49.9433 36.4426C49.1754 36.4706 48.4074 36.5126 47.6674 36.5546C47.6814 37.8151 47.6814 39.0616 47.6954 40.3221C48.4493 40.3081 49.2173 40.3081 49.9852 40.2941C49.9712 39.0056 49.9573 37.7171 49.9433 36.4426ZM49.8875 31.6527C49.1195 31.7227 48.3656 31.7787 47.6116 31.8487C47.6256 33.0812 47.6256 34.3277 47.6395 35.5742C48.3935 35.5322 49.1474 35.4902 49.9154 35.4482C49.9154 34.1877 49.9014 32.9132 49.8875 31.6527ZM49.8456 26.9188C49.0776 27.0168 48.3376 27.1148 47.5976 27.1989C47.6116 28.4314 47.6116 29.6499 47.6256 30.8824C48.3656 30.8123 49.1195 30.7423 49.8875 30.6723C49.8735 29.4258 49.8595 28.1793 49.8456 26.9188ZM49.8037 22.2409C49.0497 22.3669 48.2957 22.493 47.5697 22.619C47.5837 23.8375 47.5837 25.056 47.5976 26.2605C48.3376 26.1625 49.0916 26.0644 49.8456 25.9524C49.8176 24.7199 49.8176 23.4874 49.8037 22.2409ZM46.8018 22.7451C46.0897 22.8571 45.3776 22.9832 44.6795 23.0952C44.6795 24.2857 44.6795 25.4622 44.6935 26.6527C45.3916 26.5546 46.1037 26.4566 46.8297 26.3725C46.8157 25.1541 46.8157 23.9496 46.8018 22.7451ZM46.8297 27.3109C46.1176 27.409 45.3916 27.493 44.6935 27.577C44.6935 28.7675 44.7074 29.972 44.7074 31.1765C45.4195 31.1064 46.1316 31.0364 46.8576 30.9804C46.8437 29.7479 46.8297 28.5294 46.8297 27.3109ZM46.8576 31.9188C46.1316 31.9888 45.4195 32.0448 44.7074 32.1008C44.7074 33.3053 44.7214 34.5238 44.7214 35.7423C45.4335 35.7003 46.1595 35.6583 46.8855 35.6303C46.8716 34.3838 46.8576 33.1513 46.8576 31.9188ZM43.9674 32.1709C43.2833 32.2269 42.5991 32.2969 41.915 32.3529C41.915 33.5294 41.915 34.7199 41.915 35.8964C42.5991 35.8543 43.2833 35.8263 43.9814 35.7843C43.9814 34.5798 43.9814 33.3613 43.9674 32.1709ZM43.9674 27.6611C43.2833 27.7451 42.5991 27.8291 41.9289 27.9132C41.9289 29.0756 41.9289 30.2521 41.9289 31.4286C42.6131 31.3725 43.2833 31.3025 43.9814 31.2325C43.9674 30.042 43.9674 28.8515 43.9674 27.6611ZM16.0567 36.4426C16.0427 37.7171 16.0288 39.0056 16.0148 40.2941C16.7827 40.3081 17.5507 40.3081 18.3046 40.3221C18.3186 39.0616 18.3186 37.8011 18.3326 36.5546C17.5926 36.5126 16.8386 36.4846 16.0567 36.4426ZM19.1982 22.7451C19.1843 23.9496 19.1843 25.1541 19.1703 26.3725C19.8824 26.4706 20.5945 26.5686 21.3065 26.6527C21.3065 25.4622 21.3205 24.2857 21.3205 23.0952C20.6224 22.9832 19.9243 22.8571 19.1982 22.7451ZM22.0605 23.2213C22.0605 24.3978 22.0465 25.5742 22.0465 26.7647C22.7307 26.8627 23.4149 26.9468 24.085 27.0308C24.085 25.8683 24.085 24.7199 24.085 23.5574C23.4149 23.4454 22.7447 23.3333 22.0605 23.2213ZM22.0465 27.6611C22.0465 28.8515 22.0326 30.042 22.0326 31.2325C22.7307 31.3025 23.4009 31.3585 24.085 31.4286C24.085 30.2521 24.085 29.0896 24.085 27.9132C23.4149 27.8431 22.7307 27.7591 22.0465 27.6611ZM19.1703 27.3109C19.1703 28.5294 19.1563 29.7479 19.1563 30.9804C19.8824 31.0504 20.5945 31.1204 21.3065 31.1765C21.3065 29.972 21.3205 28.7815 21.3205 27.577C20.6084 27.493 19.8963 27.395 19.1703 27.3109ZM19.1424 31.9188C19.1424 33.1513 19.1284 34.3838 19.1144 35.6303C19.8405 35.6723 20.5665 35.7143 21.2786 35.7423C21.2786 34.5238 21.2926 33.3193 21.2926 32.1008C20.5945 32.0448 19.8684 31.9748 19.1424 31.9188ZM22.0326 32.1709C22.0326 33.3754 22.0186 34.5798 22.0186 35.7843C22.7167 35.8263 23.4009 35.8543 24.085 35.8964C24.085 34.7059 24.085 33.5294 24.085 32.3529C23.4009 32.2829 22.7167 32.2269 22.0326 32.1709ZM5.83626 35.9804C5.80834 37.3669 5.76645 38.7675 5.73852 40.1541C6.64608 40.1681 7.55363 40.1821 8.44722 40.1961C8.47514 38.8235 8.50307 37.465 8.53099 36.1064C7.6374 36.0644 6.74381 36.0224 5.83626 35.9804ZM5.96192 30.7843C5.934 32.1569 5.90607 33.5294 5.86418 34.916C6.77174 34.958 7.66533 35.014 8.54495 35.056C8.57288 33.6975 8.6008 32.3529 8.62873 31.0084C7.7491 30.9384 6.85551 30.8543 5.96192 30.7843ZM6.07362 25.6443C6.04569 27.0028 6.01777 28.3613 5.97588 29.7199C6.86947 29.8039 7.76306 29.888 8.64269 29.972C8.67062 28.6415 8.69854 27.3109 8.7125 25.9804C7.84684 25.8683 6.96721 25.7563 6.07362 25.6443ZM9.70383 21.1625C9.6759 22.465 9.66194 23.7675 9.63402 25.084C10.4857 25.1961 11.3095 25.3081 12.1333 25.4202C12.1472 24.1317 12.1752 22.8571 12.1891 21.5826C11.3793 21.4426 10.5555 21.3025 9.70383 21.1625ZM9.62006 26.0924C9.59213 27.409 9.57817 28.7395 9.55024 30.056C10.4019 30.1401 11.2397 30.2101 12.0774 30.2941C12.0914 28.9916 12.1193 27.7031 12.1333 26.4006C11.2955 26.3025 10.4718 26.2045 9.62006 26.0924ZM9.52232 31.0924C9.49439 32.423 9.48043 33.7675 9.45251 35.112C10.3042 35.1541 11.1559 35.2101 11.9937 35.2521C12.0076 33.9356 12.0355 32.619 12.0495 31.3165C11.2257 31.2325 10.388 31.1625 9.52232 31.0924ZM9.43854 36.1345C9.41062 37.479 9.3827 38.8375 9.36873 40.1961C10.2344 40.2101 11.0861 40.2241 11.9238 40.2241C11.9378 38.8936 11.9657 37.563 11.9797 36.2465C11.142 36.2185 10.2902 36.1765 9.43854 36.1345ZM12.8454 36.3025C12.8314 37.619 12.8035 38.9356 12.7895 40.2521C13.6133 40.2661 14.4091 40.2801 15.205 40.2801C15.219 38.9916 15.2329 37.6891 15.2469 36.4146C14.451 36.3725 13.6552 36.3305 12.8454 36.3025ZM12.9152 31.3725C12.9012 32.6751 12.8733 33.9776 12.8593 35.2801C13.6691 35.3221 14.479 35.3641 15.2608 35.4062C15.2748 34.1317 15.2888 32.8431 15.3027 31.5826C14.5208 31.5126 13.711 31.4426 12.9152 31.3725ZM12.971 26.5266C12.9571 27.8151 12.9291 29.0896 12.9152 30.3922C13.725 30.4622 14.5208 30.5462 15.3027 30.6162C15.3167 29.3557 15.3307 28.0952 15.3446 26.8347C14.5767 26.7227 13.7808 26.6246 12.971 26.5266ZM13.0408 21.7227C13.0269 22.9972 12.9989 24.2577 12.985 25.5322C13.7808 25.6443 14.5767 25.7423 15.3586 25.8543C15.3725 24.6078 15.3865 23.3613 15.4005 22.1148C14.6325 21.9888 13.8367 21.8487 13.0408 21.7227ZM16.2103 22.2409C16.1963 23.4734 16.1824 24.7199 16.1684 25.9524C16.9224 26.0504 17.6763 26.1625 18.4163 26.2605C18.4303 25.042 18.4303 23.8235 18.4443 22.619C17.7043 22.493 16.9642 22.3669 16.2103 22.2409ZM16.1544 26.9188C16.1405 28.1653 16.1265 29.4258 16.1125 30.6863C16.8805 30.7563 17.6344 30.8263 18.3744 30.8964C18.3884 29.6639 18.3884 28.4314 18.4024 27.2129C17.6763 27.1148 16.9224 27.0168 16.1544 26.9188ZM16.1125 31.6527C16.0986 32.9132 16.0846 34.1877 16.0707 35.4622C16.8386 35.5042 17.6065 35.5462 18.3465 35.5882C18.3605 34.3417 18.3605 33.0952 18.3744 31.8627C17.6344 31.7927 16.8805 31.7227 16.1125 31.6527Z" fill="#C6C6C6"/>
</svg>
