<svg width="85" height="51" viewBox="0 0 85 51" fill="none" xmlns="http://www.w3.org/2000/svg">
<path fill-rule="evenodd" clip-rule="evenodd" d="M34.2966 0C37.0983 0.0118363 39.8989 -0.00107604 42.7006 0.00645617C43.7167 0.0763981 44.7361 0.00968427 45.7534 0.0473453C45.7049 0.954439 45.7189 1.86153 45.7189 2.7697C42.8892 2.7697 40.0595 2.76325 37.2298 2.77293C37.2287 4.12765 37.233 5.48345 37.2287 6.83925C38.817 6.84032 40.4054 6.84678 41.9926 6.83494C42.0002 7.70115 41.9894 8.56735 42.0002 9.43356C40.4108 9.45292 38.8203 9.42817 37.2308 9.44539C37.2362 12.8586 37.2157 16.2706 37.2416 19.6827C36.247 19.7043 35.2524 19.7043 34.2578 19.6838C34.2901 16.7828 34.2309 13.8808 34.2944 10.9809C34.2944 7.32023 34.2891 3.65958 34.2966 0Z" fill="#C6C6C6"/>
<path fill-rule="evenodd" clip-rule="evenodd" d="M46.7625 0.00757247C47.7539 0.00542041 48.7452 -0.00318784 49.7366 0.0118766C49.7107 2.62878 49.7646 5.24784 49.7032 7.86367C49.7053 10.9486 49.7032 14.0325 49.7043 17.1175C49.7 17.9773 49.7226 18.8381 49.6665 19.6968C48.062 19.7204 46.4597 19.6462 44.8563 19.6634C42.658 19.6656 40.4608 19.6591 38.2637 19.6677C38.2647 18.7552 38.2949 17.8428 38.2831 16.9303C41.1085 16.9335 43.9339 16.9271 46.7603 16.9346C46.7765 15.5691 46.7636 14.2036 46.7657 12.8392C45.1774 12.8349 43.5901 12.8339 42.0018 12.8382C41.9996 11.9709 42.005 11.1025 41.9996 10.2352C43.588 10.2083 45.1774 10.2438 46.7668 10.2169C46.7657 6.81346 46.7722 3.40998 46.7625 0.00757247Z" fill="#C6C6C6"/>
<path fill-rule="evenodd" clip-rule="evenodd" d="M0.00155489 28.2771C5.01119 28.2771 10.0197 28.2814 15.0294 28.2749C15.0348 29.6199 15.0402 30.965 15.0272 32.3111C11.4896 32.31 7.95081 32.3079 4.41206 32.3122C4.41422 34.0005 4.40991 35.6898 4.41422 37.3781C7.51224 37.3717 10.6103 37.377 13.7072 37.376C13.7244 38.7167 13.704 40.0574 13.718 41.3982C10.6167 41.3949 7.51655 41.4014 4.41637 41.3949C4.40883 44.5757 4.41206 47.7564 4.41422 50.9372C2.94548 50.921 1.47675 50.921 0.00802033 50.9361C-0.00814327 43.3834 0.00586518 35.8297 0.00155489 28.2771Z" fill="#C6C6C6"/>
<path fill-rule="evenodd" clip-rule="evenodd" d="M17.9516 50.9369C17.9462 43.3811 17.9451 35.8252 17.9527 28.2693C23.1293 28.2854 28.307 28.2768 33.4848 28.2736C33.4859 29.6197 33.4794 30.9658 33.488 32.3109C29.7499 32.3109 26.0107 32.3044 22.2726 32.3152C22.2845 33.8948 22.2737 35.4755 22.278 37.0561C25.7112 37.0475 29.1432 37.0529 32.5764 37.0529C32.5635 38.3926 32.5786 39.7333 32.5667 41.073C29.1379 41.0762 25.7079 41.0783 22.2791 41.0708C22.2705 43.0098 22.2877 44.9488 22.2705 46.8868C26.1778 46.8997 30.085 46.8889 33.9934 46.8921C34.0031 48.2372 34.0031 49.5822 33.9934 50.9283C28.6465 50.9326 23.2985 50.9143 17.9516 50.9369Z" fill="#C6C6C6"/>
<path fill-rule="evenodd" clip-rule="evenodd" d="M37.3107 28.2693C38.8668 28.2811 40.4228 28.2844 41.9788 28.2693C44.7859 33.5343 47.5919 38.7993 50.4043 44.0611C50.414 38.8004 50.413 33.5397 50.4043 28.28C51.7761 28.2725 53.1478 28.2822 54.5196 28.2747C54.5261 35.8273 54.525 43.38 54.5207 50.9326C53.053 50.9219 51.5854 50.9283 50.1188 50.9283C47.2395 45.5363 44.3538 40.1476 41.4594 34.7631C41.4605 40.154 41.4616 45.5439 41.4583 50.9348C40.0758 50.9229 38.6922 50.9176 37.3086 50.938C37.3183 43.3821 37.314 35.8252 37.3107 28.2693Z" fill="#C6C6C6"/>
<path fill-rule="evenodd" clip-rule="evenodd" d="M58.7327 28.2737C61.9374 28.2834 65.1421 28.2737 68.3468 28.2791C70.1043 28.307 71.9038 28.802 73.2583 29.9609C74.6775 31.0714 75.5061 32.7457 76.0245 34.434C76.462 35.9716 76.6214 37.5749 76.6484 39.1696C76.5848 41.6326 76.2367 44.1548 75.0977 46.3714C74.3844 47.9069 73.1958 49.2315 71.7066 50.0482C70.615 50.6411 69.3683 50.8908 68.1356 50.923C65.0041 50.9381 61.8716 50.9112 58.7402 50.937C58.7186 43.3822 58.7337 35.8274 58.7327 28.2737ZM63.1001 32.2227C63.0882 37.1412 63.0936 42.0598 63.0968 46.9783C64.4901 46.9719 65.8823 46.9783 67.2756 46.9751C67.8457 46.96 68.4276 46.889 68.9534 46.6587C69.9717 46.2391 70.6948 45.3298 71.1743 44.3689C71.9836 42.6172 72.1603 40.6437 72.1075 38.7381C72.059 36.9121 71.781 34.9569 70.5752 33.5064C69.85 32.609 68.6496 32.3109 67.5483 32.2389C66.0655 32.212 64.5828 32.2442 63.1001 32.2227Z" fill="#C6C6C6"/>
<path fill-rule="evenodd" clip-rule="evenodd" d="M79.5954 50.9424C79.5793 43.3844 79.5814 35.8263 79.5944 28.2683C81.0609 28.2898 82.5286 28.2737 83.9952 28.2748C84.0016 35.8253 84.0049 43.3768 83.9941 50.9284C82.5275 50.9349 81.0609 50.9069 79.5954 50.9424Z" fill="#C6C6C6"/>
</svg>
