<svg width="93" height="54" viewBox="0 0 93 54" fill="none" xmlns="http://www.w3.org/2000/svg">
<path fill-rule="evenodd" clip-rule="evenodd" d="M0 26.5125H5.53028V28.5232H3.82094V31.8918H10.0549V28.5232H8.29542V26.5125H13.926V28.5232H12.1159V38.4277H13.926V40.3878H8.29542V38.4277H10.0549V33.8519H3.82094V38.4277H5.53028V40.3878H0V38.4277H1.75999V28.5232H0V26.5125Z" fill="#C6C6C6"/>
<path fill-rule="evenodd" clip-rule="evenodd" d="M66.1602 26.5125H77.5222V30.384H75.6112V28.5232H70.0814V31.8416H74.8077V33.8022H70.0814V38.4277H75.5615V35.7624H77.5723V40.3878H66.1602V38.4277H68.0205V28.5232H66.1602V26.5125Z" fill="#C6C6C6"/>
<path fill-rule="evenodd" clip-rule="evenodd" d="M16.4902 26.5125H27.9024V30.384H25.9413V28.5232H20.4115V31.8416H25.1373V33.8022H20.4115V38.4277H25.8911V35.7624H27.9024V40.3878H16.4902V38.4277H18.3501V28.5232H16.4902V26.5125Z" fill="#C6C6C6"/>
<path fill-rule="evenodd" clip-rule="evenodd" d="M69.4785 24.6523H73.5503L74.5559 25.8591H70.5845L69.4785 24.6523Z" fill="#C6C6C6"/>
<path fill-rule="evenodd" clip-rule="evenodd" d="M88.6841 32.4452C87.2767 32.0926 86.3212 32.1437 84.8632 31.6913C83.6062 31.2379 83.3549 30.484 83.3549 29.9815C83.3549 29.4283 83.9082 28.071 85.9189 28.071C87.9302 28.071 89.2875 29.4282 89.3376 30.5844H91.2983V26.5121H89.3878V27.4165L89.4881 27.6683V27.7184V27.6683C89.4379 27.6683 89.3878 27.5173 89.1867 27.3668C89.1867 27.3668 89.1867 27.3668 89.1867 27.3167C88.6334 26.8136 87.4773 26.2102 85.768 26.2102C83.707 26.2102 81.2935 27.5173 81.2935 29.9805C81.2935 32.393 83.0033 33.198 84.5111 33.6003C85.9691 34.0016 86.723 34.0016 87.9804 34.3542C89.1867 34.6556 89.9912 35.4095 89.9912 36.5159C89.9912 37.5206 89.3376 38.8788 86.723 38.8788C84.159 38.8788 83.1036 37.4709 82.8017 35.5103H80.9414V40.3865H82.8524V39.4817L82.8017 39.2299C82.8017 39.2299 82.8524 39.3809 83.1032 39.5314V39.5815C84.0581 40.3364 85.3657 40.8389 86.9743 40.8389C88.8341 40.8389 92.0015 39.8844 92.0015 36.5661C92.002 34.154 90.7455 33.0485 88.6841 32.4452Z" fill="#C6C6C6"/>
<path fill-rule="evenodd" clip-rule="evenodd" d="M61.6856 38.4277V28.5232H63.546V26.5125H58.5187L55.1502 34.6569L55.1001 35.0592L54.9993 34.6569L51.6814 26.5125H46.6035V28.5232H48.4638V38.4277H46.6035V40.3878H52.2848V38.4277H50.5253V29.3273V28.7244L50.6757 29.1768L54.5468 38.4277H55.6528L59.5239 29.1768L59.6247 28.6742L59.6749 29.2274V38.4277H57.9154V40.3878H63.546V38.4277H61.6856Z" fill="#C6C6C6"/>
<path fill-rule="evenodd" clip-rule="evenodd" d="M21.1663 21.1835H19.2559V20.6809H20.6638C20.7134 20.7817 21.0154 21.0325 21.1663 21.1835Z" fill="#C6C6C6"/>
<path fill-rule="evenodd" clip-rule="evenodd" d="M69.1777 21.1835C69.1777 20.9824 69.3784 20.7817 69.6301 20.6809H70.6358V21.1835H69.1777Z" fill="#C6C6C6"/>
<path fill-rule="evenodd" clip-rule="evenodd" d="M37.6042 21.5354C36.7496 21.9377 35.6938 21.887 34.8391 21.5354H24.8343C23.8794 21.9377 22.7734 21.9377 21.8179 21.5354H19.2539V22.4904H70.634V21.5354H37.6042Z" fill="#C6C6C6"/>
<path fill-rule="evenodd" clip-rule="evenodd" d="M25.4375 21.1835C25.5885 21.0832 25.9401 20.7311 25.9907 20.6809H33.7329C33.8337 20.8319 34.085 21.0832 34.2355 21.1835H25.4375Z" fill="#C6C6C6"/>
<path fill-rule="evenodd" clip-rule="evenodd" d="M36.2456 20.882C37.5526 20.882 38.6586 19.776 38.6586 18.469C38.6586 17.1117 37.5526 16.0058 36.2456 16.0058C34.8883 16.0058 33.7824 17.1117 33.7824 18.469C33.7824 19.776 34.8883 20.882 36.2456 20.882V21.3846C34.5864 21.3846 33.2793 20.0775 33.2793 18.4685C33.2793 16.8093 34.5864 15.5022 36.2456 15.5022C37.8541 15.5022 39.1612 16.8093 39.1612 18.4685C39.1612 20.077 37.8541 21.3846 36.2456 21.3846V20.882Z" fill="#C6C6C6"/>
<path fill-rule="evenodd" clip-rule="evenodd" d="M26.6445 18.0669C26.6445 16.2572 25.1363 14.7485 23.3262 14.7485C21.4659 14.7485 20.0078 16.2567 20.0078 18.0669C20.0078 19.9272 21.4659 21.3853 23.3262 21.3853C25.1363 21.3848 26.6445 19.9267 26.6445 18.0669H26.0913C26.0913 19.6253 24.8344 20.8822 23.3262 20.8822C21.7678 20.8822 20.5109 19.6253 20.5109 18.0669C20.5109 16.5085 21.7678 15.3018 23.3262 15.3018C24.8344 15.3018 26.0913 16.5085 26.0913 18.0669H26.6445Z" fill="#C6C6C6"/>
<path fill-rule="evenodd" clip-rule="evenodd" d="M37.8054 20.1278L36.8003 18.9716V18.921C36.8504 18.8708 36.8504 18.8207 36.9006 18.77L38.4088 19.1723C38.4589 19.1723 38.5598 19.2224 38.5598 19.2726C38.5598 19.222 38.6104 19.0213 38.6606 18.9205C38.6104 18.9712 38.5096 18.9712 38.4093 18.9712L37.0014 18.5689C36.9512 18.5689 36.9512 18.5182 36.9512 18.5182V18.3171V18.267L38.4093 17.7137C38.4093 17.7137 38.5602 17.7137 38.5602 17.7639C38.5602 17.7137 38.4594 17.462 38.4594 17.4118C38.4594 17.462 38.3586 17.5628 38.3085 17.5628L38.4093 17.5121L36.9011 18.0653C36.9011 18.116 36.9011 18.0653 36.8509 18.0653C36.8509 18.0152 36.8007 17.9645 36.7501 17.9645C36.7501 17.9144 36.6999 17.8642 36.7501 17.8642L37.5546 16.6073C37.6048 16.5571 37.7056 16.507 37.7557 16.507C37.7056 16.507 37.5044 16.356 37.4036 16.3058C37.4543 16.3058 37.4543 16.4568 37.4036 16.507L36.5991 17.7639H36.4988C36.4988 17.7639 36.398 17.7137 36.3478 17.7137C36.3478 17.7137 36.2977 17.7137 36.2977 17.6631L36.2475 16.205C36.2475 16.1047 36.2475 16.0039 36.3478 16.0039H35.9461C35.9962 16.0039 36.0464 16.1549 36.0464 16.205L36.097 17.6631C36.097 17.7137 36.0464 17.7137 36.0464 17.7137C36.0464 17.7137 35.9461 17.7639 35.8954 17.8141C35.8954 17.8141 35.8453 17.8141 35.8453 17.7639L34.8903 16.6073C34.8396 16.5571 34.8396 16.4563 34.8396 16.4062C34.7895 16.4563 34.5883 16.6073 34.5382 16.6574C34.5883 16.6574 34.6891 16.7076 34.7393 16.7578L35.6948 17.9144V17.9645C35.6441 17.9645 35.594 18.0653 35.594 18.1155C35.594 18.1155 35.5438 18.1657 35.4932 18.1657L34.0858 17.7634C33.985 17.7132 33.9348 17.6626 33.9348 17.6124C33.9348 17.6626 33.834 17.9139 33.834 17.964C33.834 17.964 33.985 17.9139 34.0351 17.964L35.443 18.3161C35.4932 18.3161 35.4932 18.3663 35.4932 18.3663V18.5674V18.6181L34.0858 19.221C34.0351 19.221 33.9348 19.2716 33.9348 19.221C33.9348 19.2716 33.985 19.4727 34.0351 19.5731C34.0351 19.5229 34.1359 19.4221 34.1861 19.4221L35.5433 18.8187C35.5935 18.8187 35.5935 18.8689 35.5935 18.8689C35.6436 18.8689 35.6943 18.919 35.6943 18.9697C35.7445 18.9697 35.7445 19.0198 35.7445 19.0198L34.8898 20.2768C34.8391 20.3269 34.789 20.3771 34.7388 20.3771C34.7895 20.4277 34.9901 20.5782 35.0408 20.5782C34.9901 20.5782 35.0408 20.4272 35.0408 20.3771L35.8954 19.1708C35.8954 19.1202 35.9461 19.1202 35.9461 19.1202C35.9962 19.1708 36.0464 19.1708 36.097 19.1708C36.1472 19.1708 36.1472 19.1708 36.1472 19.221L36.248 20.7292C36.248 20.7798 36.1974 20.8801 36.1472 20.8801H36.5495C36.4486 20.8801 36.4486 20.7798 36.4486 20.679L36.3478 19.221C36.3478 19.1708 36.3985 19.1708 36.3985 19.1708C36.4486 19.1708 36.5495 19.1202 36.5996 19.07C36.5996 19.07 36.6503 19.07 36.6503 19.1207L37.6554 20.2266C37.6554 20.2773 37.7061 20.3776 37.7061 20.4277C37.7562 20.3771 37.9072 20.2266 37.9574 20.1764C37.9062 20.2286 37.8054 20.1278 37.8054 20.1278Z" fill="#C6C6C6"/>
<path fill-rule="evenodd" clip-rule="evenodd" d="M23.2264 16.1563C24.6338 16.1563 26.0417 16.3073 26.8462 16.5586C26.9465 16.5586 26.9465 16.6594 26.8462 16.7095C25.9916 16.9107 24.5837 17.0616 23.2771 17.0616C21.97 17.1118 20.5621 17.0616 19.6573 16.8605C19.5569 16.8605 19.5569 16.7597 19.6573 16.7597C20.4613 16.4578 21.819 16.2065 23.2264 16.1563V15.905C21.7182 15.9557 20.21 16.3073 18.9531 16.7597C18.8021 16.8103 18.8021 16.9107 18.9531 16.9107C20.361 17.2628 21.819 17.3129 23.2766 17.2628C24.684 17.2126 26.1922 17.1118 27.5494 16.7095C27.7506 16.6594 27.7004 16.5586 27.5996 16.5586C26.2925 16.1563 24.7843 15.905 23.2259 15.905V16.1563H23.2264Z" fill="#C6C6C6"/>
<path fill-rule="evenodd" clip-rule="evenodd" d="M38.1586 15.2514C37.8065 15.3523 37.2036 15.5534 36.9016 15.5534C36.6504 15.5534 35.3939 15.5027 34.5388 15.5534C33.3822 15.6035 33.2818 15.7545 33.2317 15.6537C32.9804 15.2514 32.7793 14.6485 32.377 14.2965C30.0141 14.6987 27.7014 14.3471 25.5903 13.5927V13.2913C25.7413 13.3415 25.8416 13.3415 25.9419 13.3415C25.5903 12.8389 24.9869 12.6879 24.6348 12.1347C24.4337 11.9837 24.3835 11.6823 24.1824 11.5313C24.2326 12.0845 23.7801 12.4863 23.73 12.9387C24.0314 13.0395 24.4337 13.0395 24.5847 12.9889C24.7858 12.9387 25.0371 12.9889 25.1379 13.1398C25.2889 13.1905 25.3892 13.2908 25.5903 13.2908V13.5923C25.3385 13.5416 25.2884 13.4914 25.0877 13.3911C24.8364 13.4919 24.6353 13.4418 24.5345 13.341C24.4839 13.2908 23.9813 13.2908 23.7802 13.2908C23.1266 13.2908 22.4229 13.5421 22.0708 14.0953C21.9198 14.3968 21.9705 14.7489 22.1215 15.0002C22.2223 15.1511 22.6747 15.8047 22.9761 16.0058L22.5739 16.1066C21.9705 15.5534 21.5186 15.0508 21.6189 14.3973C21.9203 12.9894 23.2274 13.1905 23.5795 12.5876C23.8308 12.0344 23.9311 10.4258 23.6297 9.97343C22.775 9.62134 21.7192 9.16892 21.5186 8.16328C21.4679 7.912 21.5687 7.61055 21.82 7.5599C22.2724 7.45909 22.5739 7.71087 22.926 7.86134C23.0769 7.76103 22.775 7.40893 23.1271 7.40893C23.5795 7.40893 23.881 8.31376 24.0319 8.36392L23.9818 8.71601C23.6798 8.6152 22.5739 8.01182 22.4736 7.96166C22.2724 7.86085 22.0211 7.71038 21.8702 7.9115C21.669 8.16279 21.9203 8.46473 22.0713 8.71601C24.4342 11.1792 28.3554 8.56505 30.9195 10.3245C30.9701 10.1736 30.9195 10.1234 30.8186 10.0733C29.0591 8.41408 26.2438 9.26875 23.9818 8.71601L24.0319 8.36392C26.8472 9.06762 30.5678 7.9115 32.0254 11.1291C32.9804 12.4863 33.986 14.6481 36.047 14.6982C37.7062 14.7484 38.8121 14.0948 39.6166 12.8886C40.7226 10.8778 41.3761 8.56505 43.3368 7.2078C43.5379 7.10699 43.6387 7.2078 43.5379 7.25796C42.5829 8.21295 41.7277 9.46987 41.2753 10.5257C42.0297 13.3911 43.6884 12.7882 44.0906 12.7381C43.9898 11.6823 44.0906 8.56505 46.3532 7.81118C46.8558 7.40893 48.6659 6.25281 51.0288 7.25796C49.2693 8.91714 48.213 11.28 47.8614 12.9387L45.9013 13.4919C46.0522 13.1905 46.0522 12.6874 46.0016 12.1347C45.8005 12.2355 45.5993 12.386 45.1469 12.6373C44.9458 12.6879 45.0963 12.386 45.0963 12.386C45.0963 12.2852 45.5988 12.0845 46.0011 11.8328C45.8501 10.6762 45.7498 9.16843 46.7053 8.21295C44.7447 8.86649 45.2974 12.9889 45.4985 13.4914C44.9453 13.7427 44.1914 13.7427 44.1914 13.7427L44.0911 13.039C43.2364 13.3405 41.7784 13.1394 41.1248 10.8773C40.4211 12.3353 39.8178 14.6481 38.1586 15.2514Z" fill="#C6C6C6"/>
<path fill-rule="evenodd" clip-rule="evenodd" d="M68.8253 9.11788C68.7245 9.01707 68.6743 8.96691 68.5735 8.96691C68.5233 8.91626 68.5735 8.8661 68.6242 8.8661C68.6748 8.81594 68.7751 8.8661 68.8253 8.96691C68.8749 9.01756 68.8749 9.11788 68.8253 9.11788Z" fill="#C6C6C6"/>
<path fill-rule="evenodd" clip-rule="evenodd" d="M23.8297 18.8208L24.8855 20.0275C24.9859 20.1278 24.9859 20.2788 24.9357 20.329C25.0867 20.2788 25.2873 20.0275 25.3881 19.9267C25.3375 19.9769 25.1368 19.9769 25.0867 19.8766L23.9807 18.6698V18.569C23.9807 18.569 23.9807 18.569 24.0309 18.5183C24.0309 18.4682 24.081 18.4682 24.081 18.4682L25.6394 19.0214C25.7904 19.1222 25.8405 19.2225 25.8405 19.2727C25.8912 19.1724 25.9915 18.8704 26.0416 18.7701C25.9915 18.8208 25.8405 18.8709 25.7402 18.8208L24.1818 18.2675C24.1317 18.2675 24.1317 18.2675 24.1317 18.2169V18.1166C24.1317 18.0659 24.1818 18.0659 24.1818 18.0659L25.7904 17.8146C25.9915 17.7645 26.0918 17.8653 26.0918 17.9154C26.0918 17.8146 26.0416 17.463 26.0416 17.3622C26.0416 17.4124 25.9408 17.5633 25.7402 17.6135L24.1818 17.8648C24.1317 17.8648 24.1317 17.8141 24.1317 17.8141C24.081 17.764 24.081 17.7138 24.0309 17.6632V17.6145L25.2878 16.5587C25.4388 16.4579 25.5897 16.4579 25.6399 16.5085C25.5391 16.4077 25.3379 16.1564 25.2376 16.0561C25.2878 16.1068 25.2376 16.2572 25.1368 16.4082L23.9301 17.4134C23.8799 17.4635 23.8799 17.4635 23.8799 17.4134C23.8297 17.4134 23.7791 17.4134 23.7289 17.3632C23.7289 17.3632 23.6783 17.3125 23.7289 17.3125L24.2821 15.7542C24.3323 15.6032 24.4833 15.553 24.5334 15.553C24.4326 15.5024 24.081 15.3519 23.9802 15.3519C24.0304 15.3519 24.1312 15.553 24.0805 15.7035L23.5273 17.2117C23.5273 17.2619 23.4771 17.2619 23.4771 17.2619H23.3262L23.276 17.2117L22.9741 15.6032C22.9741 15.4021 23.0749 15.3018 23.0749 15.3018C22.9741 15.3018 22.6726 15.3519 22.5217 15.4026C22.5718 15.4026 22.7228 15.5029 22.773 15.6539L23.0744 17.2122C23.0744 17.2624 23.0744 17.2624 23.0237 17.3125C22.9736 17.3125 22.9234 17.3632 22.8728 17.3632H22.8226L21.7167 16.1564C21.6159 16.0055 21.6159 15.8545 21.6665 15.8545C21.5657 15.9051 21.3144 16.1063 21.2642 16.2066C21.3149 16.2066 21.4654 16.2066 21.5657 16.3074L22.6721 17.5142V17.5648C22.622 17.615 22.622 17.615 22.5713 17.6651C22.5713 17.6651 22.5713 17.6651 22.5212 17.6651L21.013 17.1119C20.862 17.0617 20.7617 16.9108 20.8118 16.8606C20.711 17.0116 20.6609 17.313 20.6107 17.4138C20.6609 17.3637 20.8118 17.313 20.9623 17.3637L22.4705 17.8663V17.9164V18.0674V18.118L20.862 18.4195C20.711 18.4195 20.5605 18.3187 20.5605 18.2685C20.5605 18.4195 20.6112 18.7711 20.6614 18.8719C20.6614 18.8217 20.7115 18.6708 20.9126 18.6206L22.471 18.3187C22.471 18.3187 22.5217 18.3187 22.5217 18.3688C22.5217 18.4195 22.5217 18.4195 22.5718 18.4696V18.5198L21.3149 19.5254C21.1639 19.6764 21.0135 19.6263 21.0135 19.5756C21.0135 19.7266 21.2647 19.9779 21.3149 20.028C21.3149 19.9774 21.3149 19.8269 21.4152 19.7261L22.7223 18.7209C22.7223 18.6708 22.7223 18.6708 22.773 18.7209C22.773 18.7209 22.8231 18.7711 22.8733 18.8217C22.9239 18.8217 22.9239 18.8217 22.9239 18.8719L22.3707 20.3801C22.32 20.5311 22.1696 20.6314 22.1194 20.5812C22.2202 20.6314 22.5217 20.7824 22.6726 20.7824C22.5718 20.7824 22.5217 20.6314 22.5718 20.4804L23.1251 18.9221C23.1251 18.9221 23.125 18.8719 23.1752 18.8719C23.2259 18.9221 23.276 18.9221 23.3262 18.9221C23.3262 18.9221 23.3763 18.9221 23.3763 18.9727L23.6778 20.5311C23.6778 20.7322 23.5775 20.8325 23.5268 20.8832C23.6778 20.8832 23.9792 20.7829 24.08 20.7322C24.0299 20.7829 23.8789 20.6314 23.8789 20.5311L23.5775 18.9225V18.8724C23.6276 18.8724 23.6778 18.8222 23.7284 18.8222C23.7791 18.7706 23.7791 18.7706 23.8297 18.8208Z" fill="#C6C6C6"/>
<path fill-rule="evenodd" clip-rule="evenodd" d="M68.1195 9.31881C68.0694 9.26865 68.1195 9.21849 68.1195 9.16784C68.1702 9.01687 68.2203 9.01687 68.2203 8.86639C67.9686 8.66526 67.9184 8.26301 68.0694 8.1622C68.2203 8.01123 68.7224 8.21285 68.7224 8.21285C69.1753 7.86075 69.3263 7.60946 69.5771 7.4585C69.9292 7.4585 70.6329 8.11204 70.6329 8.5143C70.5321 8.66526 70.2808 8.91655 69.8785 9.41912C70.0295 9.77073 70.0295 10.0225 69.7782 10.2236C69.7276 10.2236 69.6273 10.2236 69.5269 10.1228C69.5771 10.6254 70.1303 10.9273 70.331 11.3296C70.331 12.1341 71.1856 13.1393 70.2306 13.7933C70.0295 13.8936 69.8289 14.0446 69.7281 14.2452C69.879 15.0497 70.1805 15.9044 70.3315 16.7591L69.3765 16.8097C69.2761 17.1112 68.9747 17.6644 69.075 17.9658C69.075 17.9658 69.0249 17.9157 69.1257 17.9658C69.2766 18.167 69.3268 19.8261 69.2766 19.9766C69.2766 20.1777 69.4276 20.1777 69.3273 20.5298C69.2265 20.5805 68.8247 20.8313 68.7741 20.9823C68.5228 21.2335 67.8191 21.2837 67.8191 21.1834C67.8191 20.9321 68.3216 20.6302 68.4225 20.3287C68.5233 19.1219 68.4225 17.9157 67.7689 16.9602C67.5176 16.8092 67.3165 17.2115 67.1655 17.4126C67.4173 18.167 67.8697 18.971 67.8191 19.8256C67.8191 20.0769 68.1205 20.429 67.97 20.7811L67.1655 21.1829H64.2494C64.1491 21.0319 63.948 20.8814 63.9981 20.6803H66.6123C66.6123 20.58 66.8636 20.6302 67.1144 20.2279C67.1144 19.0211 65.8575 17.2616 66.0591 16.6587C66.3109 15.9044 66.663 15.3015 67.0647 14.2959L67.2654 14.2452C66.8129 15.7534 66.1594 16.5078 66.2602 16.9602C66.3109 17.2115 66.4112 17.4126 66.5617 17.7145L66.6625 18.016C66.7126 18.167 66.8631 18.5186 66.9634 18.6194C67.1144 18.6194 67.2152 18.5186 67.3155 18.4684C67.3155 18.2673 67.1645 18.016 67.0642 17.865L66.6625 18.016L66.5617 17.7145C66.8631 17.7145 67.0642 17.5134 66.8129 17.3624C67.5171 17.0108 66.6625 17.1112 66.9137 16.9602C67.3155 16.7591 67.5171 16.0052 67.5673 15.5528C67.5673 15.452 67.6175 15.4018 67.7183 15.4018C68.0197 16.2058 68.0197 17.2616 68.5228 18.016V18.2673C68.4721 18.4684 68.5228 18.7197 68.6231 18.8707C69.0755 18.9208 69.0253 18.8205 68.9245 18.2673C68.8242 18.2673 68.6231 18.2166 68.5228 18.2673V18.016C68.5729 17.9653 68.7741 18.016 68.8242 17.9653C68.6732 17.714 68.6733 17.5129 68.6733 17.2616C68.6733 17.1107 68.7736 16.8092 68.8739 17.4628C69.0253 17.5134 69.2761 16.3066 69.3268 15.9044C68.3718 16.1055 69.3268 14.9996 68.6226 14.9494L68.9747 14.346C68.9747 14.1449 68.8237 13.9939 68.5724 14.0947L68.3718 13.8434C68.2208 13.7933 68.0704 13.5415 67.8692 13.391C67.7183 13.542 67.467 13.8434 67.4168 14.0446C67.3662 14.0952 67.5171 14.1454 67.5678 14.0952C67.7188 13.9443 67.8191 14.2457 68.0704 14.1955C68.1707 14.0952 68.4721 14.0446 68.3718 13.8439L68.5724 14.0952C68.3718 14.1955 68.3718 14.5476 68.3718 14.7989C68.0197 15.4525 68.1707 14.4468 67.7679 14.4468C67.5166 14.5978 67.4163 14.1955 67.2654 14.2457L67.0647 14.2964C67.0647 13.9447 67.1149 13.542 67.0647 13.1397C67.3662 11.4304 67.7183 11.4806 67.7684 10.978C67.7684 10.7769 68.5228 10.3746 68.4726 10.1735C68.5233 10.1735 68.6236 10.3244 68.6236 10.3746C68.5729 10.6259 68.0708 10.6259 68.121 11.1791C68.4225 10.6259 69.2776 10.6765 69.3278 10.0225C69.1768 9.62025 69.5289 9.87154 69.5289 9.46928C69.4281 9.36896 69.1267 9.06703 69.076 8.91606C69.0258 8.8659 69.227 8.56396 68.5233 8.56396C68.4726 8.61461 68.4225 8.91606 68.3221 9.06654C68.2715 9.11719 68.1712 9.2175 68.2218 9.26766C68.2218 9.31782 68.3221 9.36847 68.3221 9.56911C68.2715 9.77024 68.3221 9.87055 68.4225 9.97136C68.8247 10.1725 69.1266 9.97136 68.6742 10.2227C68.6742 10.2728 68.6742 10.323 68.6236 10.3736C68.6236 10.323 68.4726 10.1223 68.4225 10.0722C68.3723 10.0722 68.121 9.92121 68.1712 9.72008C68.2203 9.51993 68.2203 9.41962 68.1195 9.31881Z" fill="#C6C6C6"/>
<path fill-rule="evenodd" clip-rule="evenodd" d="M54.5968 7.40845C54.6474 7.76054 54.4458 8.01183 54.4458 8.36344C54.7979 9.21811 54.4458 9.87165 54.5466 10.6762C54.1443 10.4249 54.044 9.77133 53.8931 9.06763C53.7927 8.46425 53.9437 8.26312 53.9934 7.61007L54.5968 7.40845Z" fill="#C6C6C6"/>
<path fill-rule="evenodd" clip-rule="evenodd" d="M53.5415 7.66034C53.4908 8.71613 53.3403 9.21871 54.0947 10.8779C52.1842 11.6824 50.6254 12.2351 48.3633 12.8887C48.6151 11.2801 50.1734 8.21307 51.4805 7.3584C52.5865 7.66034 53.5415 7.66034 53.5415 7.66034Z" fill="#C6C6C6"/>
<path fill-rule="evenodd" clip-rule="evenodd" d="M48.6147 19.4746C48.1121 19.6255 48.1121 19.927 48.4136 20.2284C48.6147 20.3794 48.8158 20.6307 48.8158 20.6808H45.5983C45.5983 20.8318 45.7492 20.9326 45.8495 21.1834H63.6462C63.7465 20.9321 63.4455 20.6302 63.3447 20.3287C62.0878 19.8763 62.0878 18.7202 62.0376 17.4126C62.0376 17.3625 61.9373 17.2115 61.9373 16.9602C61.7863 16.7591 60.9317 14.6976 61.3339 13.039L61.6354 12.4857C61.8867 12.1336 61.5847 11.9325 61.7863 11.5307L65.506 10.8265C65.5566 10.7764 65.5566 10.6254 65.4558 10.5753C65.4558 10.5246 65.506 10.5753 65.4558 10.5753L61.8365 11.2288C62.0371 10.324 61.2326 10.022 61.5847 9.26818C62.0873 9.8214 63.445 10.7764 64.1487 10.9274L64.5008 10.8772C63.596 10.4749 61.9875 9.51996 61.0821 8.26303C60.9818 8.26303 60.881 8.16222 60.7807 8.11206C60.7807 8.21287 61.032 8.51432 60.9818 8.56448C60.9818 8.56448 60.3784 8.96673 59.272 8.46416C58.9204 9.16786 54.9991 10.9274 54.9991 10.9274C55.1501 12.0333 55.6527 12.7375 56.2054 13.3404C56.2561 13.4412 56.0544 13.2396 56.2054 13.3404C57.0104 13.9939 57.9654 14.2954 59.0212 14.497C59.2223 15.1004 59.9762 17.061 60.0268 17.3625C60.1272 17.6639 60.2781 17.6639 60.2781 17.6639C60.3789 17.7647 60.7305 18.4183 60.7305 18.6696L60.8314 19.7249C60.8815 19.9761 61.183 19.7755 61.2331 20.0268L61.0821 20.6803H61.8365C61.4342 20.3287 61.685 19.7253 61.1825 19.4741C61.1323 18.8707 61.0821 18.4183 60.8309 18.167C60.6297 17.5636 59.9762 15.9551 59.5734 14.497L59.8252 14.1449C58.7193 14.4464 57.8646 14.0441 56.8594 13.4914C56.1051 13.1393 56.5575 13.4412 56.8088 13.2902C58.0151 13.8435 58.6189 13.6925 59.5238 13.5917C59.6241 13.7427 59.8252 13.8931 59.8252 14.1449L59.5734 14.497C59.8252 14.2452 60.0263 14.3962 60.1773 15.1004C60.3784 15.7038 60.5791 16.1562 60.7301 16.6588C60.9312 17.1613 61.0821 17.8149 61.2326 18.167C61.2326 18.167 61.3836 18.167 61.4844 18.3681C61.8365 19.4746 61.9368 19.625 61.8862 20.1276C61.987 20.5299 62.5397 20.1783 62.4895 20.6808H49.2677C49.4684 19.8768 49.016 19.1731 49.2677 18.4188C48.7652 17.6142 47.5082 17.0114 47.7089 15.9049C48.3127 15.0502 50.2734 14.1956 49.8205 13.1899C51.6306 12.2851 52.5354 13.7933 54.1946 13.6423C54.798 13.6423 55.4516 13.5415 56.0048 13.3911C55.3006 12.8378 54.6977 11.9836 54.3456 11.2293C50.8266 12.6874 47.4079 13.8435 43.6376 14.5978L43.3357 14.4975C42.9841 14.5477 37.2527 15.8547 37.4538 16.106C35.2921 16.257 32.7782 17.1618 32.2255 17.4633C31.9742 17.6142 31.9235 17.7151 32.2255 17.8154C34.5382 18.4188 36.4482 17.9663 40.0178 16.6086L39.7665 16.4075C39.5654 16.5584 36.6498 17.5641 35.4932 17.7146C34.2864 17.8655 33.2306 17.8149 32.728 17.6639C32.5771 17.6138 32.5771 17.6138 32.6774 17.5636C34.94 16.6588 39.3136 15.8538 39.917 16.6081C40.2691 16.7089 40.5204 16.9096 40.7215 17.1613C40.9226 17.4126 41.3249 17.3118 41.6263 17.2617C42.0286 17.1613 42.0788 16.8092 42.0788 16.4571L41.6263 16.407C41.4252 16.407 40.6207 16.5078 40.5204 16.6081C40.2185 16.3568 39.917 16.1055 39.5148 16.0047C40.3193 15.6526 41.6264 15.3512 42.3301 15.301C41.6765 15.7534 41.9784 16.3062 41.6263 16.407L42.0788 16.4571C42.0788 16.256 42.0788 16.1055 42.1796 16.0047C42.632 14.8988 44.5425 14.7478 45.4974 14.4965C45.4974 14.4965 44.9949 15.1501 44.6428 15.301C44.542 16.8594 43.9892 18.2166 43.8884 19.7755C44.3408 19.7755 44.3408 20.2781 44.4416 20.58C44.2907 20.8313 44.0896 20.58 43.8884 20.6302C43.1847 20.2786 44.0394 19.6752 43.4862 19.1726C43.7881 17.9157 44.2405 16.6588 44.2405 15.3517C44.0394 15.3517 43.9892 15.5528 43.8884 15.7033C43.7375 16.9602 43.3858 18.1168 43.0844 19.2729C43.1847 19.3737 43.436 19.4741 43.436 19.6752C43.0338 19.9265 43.436 20.3789 43.285 20.6803H38.7107L38.2583 21.1829H45.196L45.2466 20.9316C44.241 19.8252 44.5931 18.2166 45.0957 17.0104L46.3024 15.4018C47.3081 14.9996 47.911 13.7933 48.9673 13.3906C48.9673 13.9438 48.3137 14.1449 47.9616 14.4464C47.5594 15.301 46.4033 15.4018 46.2518 16.3568C46.7047 16.8594 47.3582 17.2115 47.911 17.6639C48.4642 18.016 48.3132 18.7699 48.7155 19.122C48.8158 19.2228 48.715 19.4239 48.6147 19.4746Z" fill="#C6C6C6"/>
<path fill-rule="evenodd" clip-rule="evenodd" d="M56.3061 1.32544C56.1049 1.62688 55.7027 1.82801 55.954 2.38124C55.4514 2.68268 55.6019 3.1351 55.7528 3.38638C55.5015 3.63767 55.3511 4.14074 55.7027 4.44218C55.3004 4.8946 55.803 5.29685 55.954 5.44782C55.7528 5.90024 55.954 6.25184 55.954 6.25184C55.9033 6.55378 55.3506 7.05635 55.1495 7.20732C54.848 7.96118 54.9483 9.52004 54.9985 10.5758C56.4059 9.87165 57.8138 9.2186 58.9202 8.26312C57.9652 7.60958 57.2104 6.0512 56.1551 6.15201C56.0543 5.04557 55.6019 3.08543 57.1607 1.07415C57.3614 0.973341 57.6628 0.923182 57.8138 0.822864C57.1607 0.722054 56.3061 1.12431 55.7027 0.772705C55.7032 0.772705 56.0046 1.27528 56.3061 1.32544Z" fill="#C6C6C6"/>
<path fill-rule="evenodd" clip-rule="evenodd" d="M59.6759 0.822821C59.6759 0.87298 59.877 0.97379 59.877 0.97379C59.877 0.97379 60.0781 0.923631 60.0781 0.872981C60.0781 0.822821 60.1283 0.671853 60.0781 0.621694C60.0275 0.621694 59.877 0.571043 59.7762 0.571043C59.7762 0.571535 59.6759 0.772662 59.6759 0.822821L59.5751 0.923631L58.8714 0.421058L58.9717 0.320248C58.9717 0.320248 59.2731 0.018802 59.4241 0.018802C59.5751 -0.0313571 60.3796 0.018802 60.5807 0.169771C60.7317 0.32074 60.8325 0.421058 61.0331 0.773154C61.5863 1.17541 62.4912 1.17541 63.0444 1.62782C62.9441 1.77879 63.1954 2.03008 62.9938 2.1304C62.8428 2.18056 62.4912 2.07975 62.441 2.18056L62.3904 2.482L62.1892 2.43184C62.1892 2.43184 62.2896 2.07975 62.1892 2.07975C62.0889 2.02959 61.8878 1.92878 61.7875 1.97894C61.7368 2.02959 61.7875 2.07975 61.8381 2.18007C61.8381 2.28088 62.0894 2.33103 62.2399 2.28088L62.441 2.33103L62.6923 2.38169C62.592 2.63297 62.5413 2.73329 62.1897 2.63297C62.0894 2.88426 62.6421 3.08539 62.6923 3.1862C62.6417 3.28701 62.5413 3.38732 62.1897 3.1862C62.1897 3.1862 60.7317 4.59409 59.8775 4.99635C58.9722 5.3986 59.8268 4.79522 59.8268 4.79522C60.2291 4.64425 61.9886 3.13604 61.9886 2.98556C61.938 2.88475 61.8376 2.68411 61.8376 2.53315C61.5859 2.43234 61.0833 2.5833 60.8822 2.73427C60.983 3.18669 61.7875 5.44925 61.1836 8.86793L61.0833 8.76713C61.6365 5.44925 60.7312 2.78443 60.7312 2.78443C60.2291 2.98556 59.877 2.83459 59.6252 2.88475C59.5249 4.94619 61.1836 5.24763 60.5802 7.96261C58.8207 7.66117 57.5638 5.49941 56.5581 5.70005C56.508 5.34844 56.1564 4.74506 56.508 4.54393C56.4072 4.24249 56.3069 3.84023 56.7593 3.58845C56.6083 3.1862 56.5582 2.83459 57.0111 2.53315C56.9102 2.28186 56.9604 1.72863 57.5131 1.62832C57.5638 1.1759 57.7649 0.823805 58.1667 0.673328C57.7143 0.4722 57.6139 0.0197855 57.6139 0.0197855C58.0157 0.271072 58.3678 0.422041 58.9712 0.321231L59.6759 0.822821Z" fill="#C6C6C6"/>
<path fill-rule="evenodd" clip-rule="evenodd" d="M42.5827 38.4279L42.5325 35.6116C42.5325 34.758 41.9793 33.8521 41.2254 33.3496C41.0744 33.2994 40.8232 33.1986 40.622 33.1986C40.8232 33.1986 41.0744 33.1986 41.3257 33.0978C42.0801 32.7462 42.9849 31.7907 42.9849 30.132C42.9849 28.8746 42.4823 27.9201 41.577 27.2661C40.7224 26.6632 39.7674 26.5122 38.7617 26.5122H31.0195V28.523H32.779V38.4274H31.0195V40.3876H36.5498V38.4274H34.7903V34.0538H38.6112C39.9183 34.1039 40.4209 34.9586 40.4209 35.6623L40.5719 40.3876H44.3422V38.4274H42.5827V38.4279ZM39.013 32.1438H34.7903V28.524H38.7622C39.2141 28.524 39.7172 28.524 40.1195 28.6749C40.622 28.9267 41.0749 29.479 41.0749 30.3336C41.0744 31.3899 40.119 32.1438 39.013 32.1438Z" fill="#C6C6C6"/>
<path fill-rule="evenodd" clip-rule="evenodd" d="M30.3158 45.3154C32.126 45.3154 32.93 46.3211 32.93 47.5775C32.93 48.8349 32.0753 49.7894 30.1649 49.7894H28.8578V53.2587H27.7012V45.3154H30.3158ZM28.8583 48.7838H30.2657C31.1203 48.7838 31.7237 48.3314 31.7237 47.5273C31.7237 46.924 31.3716 46.3211 30.3158 46.3211H28.8583V48.7838Z" fill="#C6C6C6"/>
<path fill-rule="evenodd" clip-rule="evenodd" d="M41.9277 53.2581H40.6708L39.6656 50.8952H36.1968L35.2418 53.2581H33.9844L37.5034 45.2642H38.3079L41.9277 53.2581ZM36.6487 49.8399H39.2122L37.855 46.7222L36.6487 49.8399Z" fill="#C6C6C6"/>
<path fill-rule="evenodd" clip-rule="evenodd" d="M55.1488 53.2583H53.9922V45.3154H55.1488V53.2583Z" fill="#C6C6C6"/>
<path fill-rule="evenodd" clip-rule="evenodd" d="M63.4444 47.0238C62.6901 46.4204 61.9864 46.2198 61.383 46.2198C60.6291 46.2198 60.0257 46.5714 60.0257 47.1246C60.0257 48.6834 63.7454 48.6323 63.7454 51.1968C63.7454 52.4031 62.7402 53.3079 61.3328 53.3079C60.4275 53.3079 59.623 53.1073 58.9198 52.6037V51.1457C59.5728 51.9005 60.3778 52.3023 61.232 52.3023C62.187 52.3023 62.6394 51.75 62.6394 51.2976C62.6394 49.6891 58.8691 49.487 58.8691 47.3252C58.8691 46.0181 59.9244 45.2141 61.4833 45.2141C62.187 45.2141 62.7899 45.3651 63.4439 45.7673V47.0238H63.4444Z" fill="#C6C6C6"/>
<path fill-rule="evenodd" clip-rule="evenodd" d="M50.2744 52.3028C50.1229 52.1021 49.9724 51.9015 49.8215 51.6497C49.2181 50.6441 48.7155 49.9399 47.9616 49.488C48.8665 49.1364 49.3691 48.4327 49.3691 47.5278C49.3691 46.1696 48.3137 45.3159 46.6039 45.3159H44.543V53.2587H45.7497V49.7894H46.2518C46.8557 49.7894 47.3583 49.991 48.4136 51.6001L49.5195 53.2587H50.8773L50.2744 52.3028ZM46.5036 48.7838H45.7497V46.2704H46.5036C47.6602 46.2704 48.1121 46.7228 48.1121 47.4767C48.1628 48.1302 47.8107 48.7838 46.5036 48.7838Z" fill="#C6C6C6"/>
</svg>
