<svg width="157" height="33" viewBox="0 0 157 33" fill="none" xmlns="http://www.w3.org/2000/svg">
<path fill-rule="evenodd" clip-rule="evenodd" d="M152.671 5.9999C152.871 6.2999 153.171 6.5999 153.771 6.5999C154.271 6.5999 154.771 6.3999 154.771 6.0999V5.9999C154.671 5.7999 154.371 5.9999 154.271 5.4999C154.271 4.3999 153.371 4.3999 153.371 4.1999C153.371 3.9999 153.971 3.9999 153.971 3.0999C153.971 2.1999 153.171 1.8999 152.471 1.8999C152.071 1.8999 151.671 1.8999 151.271 1.8999C150.971 1.8999 150.771 1.8999 150.471 1.8999C150.171 1.8999 149.771 1.8999 149.771 2.2999C149.771 2.7999 150.271 2.1999 150.271 3.2999V4.7999C150.271 5.9999 149.871 5.6999 149.771 5.9999V6.0999C149.771 6.5999 150.671 6.5999 150.971 6.5999C151.571 6.5999 152.171 6.4999 152.171 6.1999V6.0999C152.071 5.9999 151.871 5.9999 151.871 5.6999C151.871 5.4999 151.871 5.2999 151.871 5.0999C151.871 4.6999 151.871 4.6999 152.071 4.6999C152.571 4.5999 152.371 5.3999 152.671 5.9999Z" fill="#64433C"/>
<path fill-rule="evenodd" clip-rule="evenodd" d="M148.272 6C148.972 7.5 150.472 8.6 152.172 8.6C153.872 8.6 155.372 7.5 156.072 6C156.272 5.5 156.472 4.9 156.472 4.3C156.472 1.9 154.572 0 152.272 0C149.972 0 148.072 1.9 148.072 4.3C147.972 4.9 148.072 5.5 148.272 6ZM155.172 6C154.572 7 153.472 7.8 152.172 7.8C150.872 7.8 149.772 7.1 149.172 6C148.872 5.5 148.772 4.9 148.772 4.3C148.772 2.4 150.272 0.8 152.172 0.8C154.072 0.8 155.572 2.4 155.572 4.3C155.572 4.9 155.372 5.5 155.172 6Z" fill="#64433C"/>
<path fill-rule="evenodd" clip-rule="evenodd" d="M151.772 3.6002V3.0002C151.772 2.8002 151.772 2.7002 152.072 2.7002C152.472 2.7002 152.472 3.0002 152.472 3.3002C152.472 3.7002 152.372 3.9002 151.972 3.9002C151.672 3.9002 151.772 3.8002 151.772 3.6002Z" fill="white"/>
<path fill-rule="evenodd" clip-rule="evenodd" d="M73.1715 11.1V14.1C73.1715 14.8 73.0715 16.4 72.8715 17C72.3715 18.2 71.2715 17.6 71.2715 18.8C71.2715 19.7 71.8715 20.2 75.2715 20.2C80.4715 20.2 80.2715 19.2 80.2715 18.7C80.2715 17 78.0715 18.8 78.1715 15.6C78.1715 13.3 78.0715 13.2 78.9715 13.2C81.2715 13.2 79.8715 15.7 81.2715 15.7C82.7715 15.7 82.8715 13.1 82.8715 12C82.8715 11.1 82.7715 8.8 81.5715 8.8C80.0715 8.8 81.0715 10.8 79.4715 10.8C78.2715 10.8 78.1715 10.4 78.1715 10C78.1715 6.8 78.7715 6.9 80.0715 6.9C84.1715 6.9 83.3715 9.2 84.8715 9.2C85.6715 9.2 86.0715 8.4 86.0715 7.7C86.0715 6.2 85.1715 4.5 84.3715 4.5C84.0715 4.5 79.7715 4.7 79.3715 4.7C77.5715 4.7 73.7715 4.5 73.1715 4.5C72.4715 4.5 71.5715 4.8 71.5715 5.7C71.5715 6.9 72.9715 6 73.2715 7.9C73.1715 8.8 73.1715 10.2 73.1715 11.1Z" fill="#64433C"/>
<path fill-rule="evenodd" clip-rule="evenodd" d="M87.5723 19.9999H94.7723C95.4723 19.9999 95.9723 20.0999 96.3723 20.1999C96.7723 20.2999 97.0723 20.3999 97.4723 20.3999C98.4723 20.3999 99.6723 18.1999 99.6723 16.4999C99.6723 15.6999 99.2723 14.5999 98.3723 14.5999C96.9723 14.5999 98.2723 17.5999 94.5723 17.5999C93.0723 17.5999 92.7723 16.7999 92.7723 15.2999V8.2999C92.7723 6.1999 94.4723 7.1999 94.4723 5.8999C94.4723 5.1999 94.2723 4.4999 89.9723 4.3999C88.8723 4.3999 85.5723 4.4999 85.5723 6.0999C85.5723 7.2999 87.4723 6.3999 87.4723 8.1999C87.4723 9.3999 87.5723 10.5999 87.5723 11.9999C87.5723 13.2999 87.5723 14.6999 87.5723 16.2999C87.4723 18.7999 85.8723 17.6999 85.8723 19.0999C85.7723 20.0999 86.8723 19.9999 87.5723 19.9999Z" fill="#64433C"/>
<path fill-rule="evenodd" clip-rule="evenodd" d="M99.2715 12.2999C99.2715 16.9999 102.771 20.2999 107.271 20.2999C111.671 20.2999 115.671 17.1999 115.671 12.4999C115.671 9.6999 113.371 4.3999 107.471 4.3999C102.871 4.3999 99.2715 7.6999 99.2715 12.2999ZM106.571 7.6999C109.071 7.6999 110.271 12.7999 110.271 14.7999C110.271 15.9999 109.671 17.0999 108.371 17.0999C106.071 17.0999 104.771 11.8999 104.771 9.9999C104.771 8.8999 105.371 7.6999 106.571 7.6999Z" fill="#64433C"/>
<path fill-rule="evenodd" clip-rule="evenodd" d="M116.072 12.2999C116.072 16.9999 119.572 20.2999 124.072 20.2999C128.472 20.2999 132.472 17.1999 132.472 12.4999C132.472 9.6999 130.172 4.3999 124.272 4.3999C119.672 4.3999 116.072 7.6999 116.072 12.2999ZM123.372 7.6999C125.872 7.6999 127.072 12.7999 127.072 14.7999C127.072 15.9999 126.472 17.0999 125.172 17.0999C122.872 17.0999 121.572 11.8999 121.572 9.9999C121.572 8.8999 122.172 7.6999 123.372 7.6999Z" fill="#64433C"/>
<path fill-rule="evenodd" clip-rule="evenodd" d="M142.372 17.8002V17.9002C142.972 19.4002 143.972 20.5002 146.272 20.5002C148.672 20.5002 149.672 19.6002 149.672 18.8002C149.672 18.1002 149.072 18.0002 148.672 17.9002C148.372 17.7002 148.172 17.4002 148.072 16.7002C147.772 14.3002 147.072 13.3002 145.572 12.8002C145.272 12.7002 145.072 12.6002 145.072 12.3002C145.072 12.0002 145.272 12.0002 145.372 11.9002C146.572 11.3002 147.172 10.0002 147.172 8.7002C147.172 5.8002 144.372 4.7002 141.972 4.7002C140.572 4.7002 139.172 4.9002 137.772 4.9002C136.872 4.9002 135.972 4.7002 135.172 4.7002C134.272 4.7002 132.672 4.9002 132.672 6.1002C132.672 7.5002 134.272 6.1002 134.272 9.4002V15.6002C134.272 17.3002 133.772 17.7002 133.272 18.0002C132.972 18.2002 132.672 18.4002 132.672 18.8002C132.672 20.4002 135.672 20.4002 136.772 20.4002C140.272 20.4002 140.772 19.8002 140.772 19.0002C140.772 18.4002 140.272 18.1002 139.872 17.9002C139.672 17.8002 139.472 17.6002 139.472 17.2002C139.372 16.6002 139.272 15.7002 139.272 15.1002C139.272 13.7002 139.472 13.7002 139.872 13.7002C141.072 13.7002 141.372 14.7002 141.672 15.7002C141.972 16.4002 142.172 17.2002 142.372 17.8002ZM139.272 10.2002L139.372 8.1002C139.372 7.4002 139.372 6.9002 140.172 6.9002C141.372 6.9002 141.672 8.0002 141.672 9.1002C141.672 10.5002 141.172 11.2002 139.872 11.2002C139.172 11.3002 139.272 10.8002 139.272 10.2002Z" fill="#64433C"/>
<path fill-rule="evenodd" clip-rule="evenodd" d="M70.8715 23.5H74.6715C75.5715 23.5 76.2715 23.7 76.6715 24.2C77.0715 24.6 77.2715 25.1 77.2715 25.7C77.2715 26.1 77.1715 26.4 76.8715 26.8C76.6715 27.2 76.3715 27.4 75.9715 27.6L77.1715 29.8H77.9715V31H75.8715L74.2715 27.8H73.4715V29.7H74.2715V30.9H70.7715V29.7H71.6715V24.6H70.7715V23.5H70.8715ZM73.6715 24.7V26.6H74.1715C74.5715 26.6 74.9715 26.5 75.1715 26.3C75.3715 26.1 75.5715 25.9 75.5715 25.6C75.5715 25.3 75.4715 25.1 75.2715 24.9C75.0715 24.7 74.6715 24.6 74.2715 24.6H73.6715V24.7Z" fill="#64433C"/>
<path fill-rule="evenodd" clip-rule="evenodd" d="M78.7715 23.5H82.3715V24.7H81.4715V29.8H82.2715V31H78.7715V29.8H79.6715V24.7H78.7715V23.5ZM83.1715 23.5H86.4715V24.7H85.7715L83.5715 27L86.0715 29.8H86.7715V31H82.9715V29.8H83.7715L81.4715 27.3L83.9715 24.7H83.1715V23.5Z" fill="#64433C"/>
<path fill-rule="evenodd" clip-rule="evenodd" d="M87.2715 23.5H93.7715V25.9H92.3715V24.7H89.9715V26.5H91.7715V27.8H89.9715V29.8H92.3715V28.7H93.7715V31.1H87.2715V29.8H88.1715V24.7H87.2715V23.5Z" fill="#64433C"/>
<path fill-rule="evenodd" clip-rule="evenodd" d="M94.2715 23.5H100.771V26.5H99.6715V24.7H98.4715V29.8H99.4715V31.1H95.5715V29.8H96.6715V24.7H95.4715V26.5H94.2715V23.5Z" fill="#64433C"/>
<path fill-rule="evenodd" clip-rule="evenodd" d="M101.673 31.8999H100.473L102.773 23.8999H103.873L101.673 31.8999Z" fill="#64433C"/>
<path fill-rule="evenodd" clip-rule="evenodd" d="M104.072 23.5H111.672V24.7H110.772V29.8H111.672V31.1H108.172V29.8H108.972V24.7H106.772V29.8H107.572V31.1H104.072V29.8H104.972V24.7H104.072V23.5Z" fill="#64433C"/>
<path fill-rule="evenodd" clip-rule="evenodd" d="M111.973 29.8H112.873L114.573 24.7H113.673V23.5H118.273V24.7H117.373L119.073 29.8H119.973V31H116.473V29.8H117.273L116.873 28.5H114.773L114.373 29.8H115.173V31H111.973V29.8ZM115.773 24.9L115.073 27.4H116.473L115.773 24.9Z" fill="#64433C"/>
<path fill-rule="evenodd" clip-rule="evenodd" d="M124.071 29.8V31H120.271V29.8H121.171V24.7H120.271V23.5H123.471C124.471 23.5 125.171 23.7 125.771 24.1C126.371 24.5 126.671 25.1 126.671 25.9C126.671 26.7 126.371 27.3 125.771 27.8C125.171 28.2 124.471 28.4 123.471 28.4H122.971V29.9H124.071V29.8ZM122.971 24.7V27.1H123.671C124.071 27.1 124.371 27 124.671 26.7C124.871 26.5 124.871 26.2 124.871 25.9C124.871 25.5 124.771 25.2 124.471 25C124.271 24.8 123.971 24.7 123.671 24.7H122.971Z" fill="#64433C"/>
<path fill-rule="evenodd" clip-rule="evenodd" d="M127.172 23.5H130.772V24.7H129.872V27.2L132.372 24.7H131.572V23.5H134.872V24.7H134.172L131.972 26.9L134.472 29.8H135.172V31.1H133.072L130.672 28.2L129.872 29V29.8H130.772V31.1H127.172V29.8H128.072V24.7H127.172V23.5Z" fill="#64433C"/>
<path fill-rule="evenodd" clip-rule="evenodd" d="M135.672 23.5H142.172V25.9H140.772V24.7H138.472V26.5H140.172V27.8H138.472V29.8H140.772V28.7H142.172V31.1H135.672V29.8H136.572V24.7H135.672V23.5Z" fill="#64433C"/>
<path fill-rule="evenodd" clip-rule="evenodd" d="M142.572 23.5H149.772V26.5H148.672V24.7H147.072V29.8H148.172V31.1H144.272V29.8H145.272V24.7H143.772V26.5H142.572V23.5Z" fill="#64433C"/>
<path fill-rule="evenodd" clip-rule="evenodd" d="M10.0719 17.1002L11.5719 18.9002C12.4719 20.0002 12.4719 20.0002 13.2719 20.0002H16.8719C17.6719 20.0002 18.7719 19.9002 18.7719 18.8002C18.7719 17.5002 17.4719 17.6002 16.7719 16.8002L12.2719 11.6002C11.9719 11.2002 11.3719 10.7002 11.3719 10.1002C11.3719 9.20019 13.1719 7.80019 13.6719 7.40019C14.4719 6.60019 16.6719 7.70019 16.6719 5.90019C16.6719 4.30019 14.1719 4.50019 13.1719 4.50019C12.1719 4.50019 9.27189 4.40019 9.27189 6.00019C9.27189 6.50019 9.57189 6.70019 9.57189 7.20019C9.57189 7.70019 7.87189 10.0002 7.27189 10.0002C7.07189 9.90019 7.07189 9.30019 7.07189 9.00019C7.07189 6.40019 8.27189 7.10019 8.27189 6.00019C8.27189 4.50019 6.07189 4.50019 5.07189 4.50019C0.271886 4.50019 0.471887 5.70019 0.471887 6.00019C0.471887 7.30019 1.57189 6.50019 1.87189 8.40019C2.07189 9.70019 2.07189 11.3002 2.07189 12.7002C2.07189 13.9002 2.07189 15.3002 1.87189 16.6002C1.57189 18.4002 0.571887 17.8002 0.571887 19.0002C0.571887 19.7002 0.971887 20.3002 4.37189 20.3002C8.17189 20.3002 8.67189 19.6002 8.67189 18.9002C8.67189 17.8002 7.27189 17.7002 7.27189 16.7002V16.2002C7.27189 15.6002 7.37189 15.0002 7.87189 15.0002C8.47189 15.0002 9.67189 16.6002 10.0719 17.1002Z" fill="#64433C"/>
<path fill-rule="evenodd" clip-rule="evenodd" d="M18.6719 12.2999C18.6719 16.9999 22.1719 20.2999 26.6719 20.2999C31.0719 20.2999 35.0719 17.1999 35.0719 12.4999C35.0719 9.6999 32.7719 4.3999 26.8719 4.3999C22.2719 4.3999 18.6719 7.6999 18.6719 12.2999ZM25.9719 7.6999C28.4719 7.6999 29.6719 12.7999 29.6719 14.7999C29.6719 15.9999 29.0719 17.0999 27.7719 17.0999C25.4719 17.0999 24.1719 11.8999 24.1719 9.9999C24.1719 8.8999 24.7719 7.6999 25.9719 7.6999Z" fill="#64433C"/>
<path fill-rule="evenodd" clip-rule="evenodd" d="M40.8723 13.9L42.0723 16.7C43.3723 19.7 43.5723 19.6 43.8723 19.7C44.5723 19.8 45.3723 17.3 45.7723 16.3C46.2723 15.2 46.9723 13.3 47.6723 13.3C48.4723 13.3 47.9723 17.1 47.8723 17.4C47.6723 18.1 46.7723 18.2 46.7723 19C46.7723 20.4 49.6723 20.3 50.5723 20.3C51.4723 20.3 54.4723 20.4 54.4723 18.9C54.4723 17.9 53.1723 18.3 53.0723 16.7C52.9723 14.7 52.8723 12.3 52.8723 11.9C52.8723 10.9 52.9723 8.3 53.1723 7.7C53.5723 7 54.4723 6.8 54.4723 5.9C54.4723 4.5 52.3723 4.5 51.3723 4.5C48.5723 4.5 48.4723 5.2 47.4723 7.2C46.6723 8.6 45.7723 11.3 45.1723 11.1C44.2723 10.9 42.8723 7.3 42.1723 6C41.4723 4.9 41.4723 4.5 38.9723 4.5C37.2723 4.5 35.2723 4.8 35.2723 6.1C35.2723 7 36.4723 7.1 36.6723 7.6C36.8723 8.1 36.9723 8.8 36.9723 10.1C36.9723 13.3 36.7723 15.3 36.5723 17.1C36.3723 18.9 35.0723 17.9 35.0723 19.1C35.0723 20.2 37.0723 20.3 37.7723 20.3C38.5723 20.3 40.8723 20.3 40.8723 19C40.8723 17.8 39.4723 18.9 39.4723 16.6C39.4723 15.9 39.2723 13 39.9723 13C40.5723 12.9 40.7723 13.6 40.8723 13.9Z" fill="#64433C"/>
<path fill-rule="evenodd" clip-rule="evenodd" d="M54.6719 12.2999C54.6719 16.9999 58.1719 20.2999 62.6719 20.2999C67.0719 20.2999 71.0719 17.1999 71.0719 12.4999C71.0719 9.6999 68.7719 4.3999 62.8719 4.3999C58.2719 4.3999 54.6719 7.6999 54.6719 12.2999ZM61.9719 7.6999C64.4719 7.6999 65.6719 12.7999 65.6719 14.7999C65.6719 15.9999 65.0719 17.0999 63.7719 17.0999C61.4719 17.0999 60.1719 11.8999 60.1719 9.9999C60.1719 8.8999 60.7719 7.6999 61.9719 7.6999Z" fill="#64433C"/>
<path fill-rule="evenodd" clip-rule="evenodd" d="M4.47227 29.8V31H0.572266V29.8H1.47227V24.7H0.572266V23.5H3.77227C4.77227 23.5 5.47227 23.7 6.07227 24.1C6.67227 24.5 6.97227 25.1 6.97227 25.9C6.97227 26.7 6.67227 27.3 6.07227 27.8C5.47227 28.2 4.77227 28.4 3.77227 28.4H3.37227V29.9H4.47227V29.8ZM3.37227 24.7V27.1H4.07227C4.47227 27.1 4.77227 27 5.07227 26.7C5.27227 26.5 5.27227 26.2 5.27227 25.9C5.27227 25.5 5.17227 25.2 4.87227 25C4.67227 24.8 4.37227 24.7 4.07227 24.7H3.37227Z" fill="#64433C"/>
<path fill-rule="evenodd" clip-rule="evenodd" d="M6.97266 29.8H7.87266L9.57266 24.7H8.77266V23.5H13.3727V24.7H12.4727L14.1727 29.8H15.0727V31H11.4727V29.8H12.2727L11.8727 28.5H9.87266L9.47266 29.8H10.2727V31H6.97266V29.8ZM10.8727 24.9L10.1727 27.4H11.5727L10.8727 24.9Z" fill="#64433C"/>
<path fill-rule="evenodd" clip-rule="evenodd" d="M15.2719 23.5H19.0719C19.9719 23.5 20.6719 23.7 21.0719 24.2C21.4719 24.6 21.6719 25.1 21.6719 25.7C21.6719 26.1 21.5719 26.4 21.2719 26.8C21.0719 27.2 20.7719 27.4 20.3719 27.6L21.5719 29.8H22.3719V31H20.2719L18.6719 27.8H17.8719V29.7H18.6719V30.9H15.1719V29.7H16.0719V24.6H15.1719V23.5H15.2719ZM18.0719 24.7V26.6H18.5719C18.9719 26.6 19.3719 26.5 19.5719 26.3C19.7719 26.1 19.9719 25.9 19.9719 25.6C19.9719 25.3 19.8719 25.1 19.6719 24.9C19.4719 24.7 19.0719 24.6 18.6719 24.6H18.0719V24.7Z" fill="#64433C"/>
<path fill-rule="evenodd" clip-rule="evenodd" d="M22.9727 27.2999C22.9727 26.0999 23.3727 25.1999 24.0727 24.4999C24.7727 23.7999 25.7727 23.3999 26.9727 23.3999C28.1727 23.3999 29.1727 23.7999 29.8727 24.4999C30.5727 25.1999 30.9727 26.1999 30.9727 27.2999C30.9727 28.3999 30.6727 29.1999 30.0727 29.8999C29.4727 30.5999 28.6727 30.9999 27.6727 31.0999C28.0727 31.2999 28.3727 31.3999 28.5727 31.4999C28.7727 31.5999 28.9727 31.5999 29.0727 31.5999C29.2727 31.5999 29.3727 31.5999 29.4727 31.5999C29.5727 31.5999 29.6727 31.5999 29.7727 31.4999L29.3727 32.7999H28.9727C28.5727 32.7999 28.0727 32.5999 27.4727 32.2999C26.8727 31.9999 26.3727 31.7999 26.0727 31.7999C25.8727 31.7999 25.6727 31.7999 25.5727 31.8999C25.3727 31.9999 25.2727 32.0999 25.0727 32.1999L24.4727 31.6999C24.5727 31.5999 24.7727 31.3999 24.9727 31.2999C25.1727 31.1999 25.3727 31.0999 25.5727 30.9999C24.7727 30.7999 24.0727 30.2999 23.5727 29.6999C23.1727 28.9999 22.9727 28.1999 22.9727 27.2999ZM24.9727 27.2999C24.9727 28.0999 25.0727 28.5999 25.3727 29.0999C25.6727 29.5999 26.2727 29.8999 26.8727 29.8999C27.5727 29.8999 28.0727 29.5999 28.3727 29.0999C28.6727 28.6999 28.7727 28.0999 28.7727 27.2999C28.7727 26.4999 28.6727 25.9999 28.3727 25.4999C28.0727 24.9999 27.4727 24.6999 26.8727 24.6999C26.1727 24.6999 25.6727 24.9999 25.3727 25.4999C25.1727 25.8999 24.9727 26.4999 24.9727 27.2999Z" fill="#64433C"/>
<path fill-rule="evenodd" clip-rule="evenodd" d="M31.4727 23.5H34.8727V24.7H34.1727V28.7C34.1727 29 34.2727 29.3 34.4727 29.5C34.6727 29.7 34.9727 29.8 35.2727 29.8C35.6727 29.8 35.8727 29.7 36.0727 29.5C36.2727 29.3 36.3727 29.1 36.3727 28.8V24.7H35.6727V23.5H38.6727V24.7H37.6727V28.8C37.6727 29.5 37.4727 30.1 36.9727 30.5C36.5727 30.9 35.8727 31.1 34.9727 31.1C34.1727 31.1 33.5727 30.9 33.0727 30.6C32.5727 30.2 32.2727 29.6 32.2727 28.7V24.7H31.4727V23.5Z" fill="#64433C"/>
<path fill-rule="evenodd" clip-rule="evenodd" d="M39.3711 23.5H45.8711V25.9H44.4711V24.7H42.1711V26.5H43.9711V27.8H42.1711V29.8H44.4711V28.7H45.8711V31.1H39.3711V29.8H40.2711V24.7H39.3711V23.5Z" fill="#64433C"/>
<path fill-rule="evenodd" clip-rule="evenodd" d="M46.4727 23.5H52.8727V26.5H51.7727V24.7H50.5727V29.8H51.5727V31.1H47.7727V29.8H48.7727V24.7H47.5727V26.5H46.4727V23.5Z" fill="#64433C"/>
<path fill-rule="evenodd" clip-rule="evenodd" d="M53.7719 31.8999H52.6719L54.8719 23.8999H56.0719L53.7719 31.8999Z" fill="#64433C"/>
<path fill-rule="evenodd" clip-rule="evenodd" d="M60.0715 29.8V31H56.2715V29.8H57.1715V24.7H56.2715V23.5H59.4715C60.4715 23.5 61.1715 23.7 61.7715 24.1C62.3715 24.5 62.6715 25.1 62.6715 25.9C62.6715 26.7 62.3715 27.3 61.7715 27.8C61.1715 28.2 60.4715 28.4 59.4715 28.4H58.9715V29.9H60.0715V29.8ZM58.9715 24.7V27.1H59.6715C60.0715 27.1 60.3715 27 60.6715 26.7C60.8715 26.5 60.8715 26.2 60.8715 25.9C60.8715 25.5 60.7715 25.2 60.4715 25C60.2715 24.8 59.9715 24.7 59.6715 24.7H58.9715Z" fill="#64433C"/>
<path fill-rule="evenodd" clip-rule="evenodd" d="M62.5723 29.8H63.4723L65.1723 24.7H64.2723V23.5H68.8723V24.7H67.9723L69.6723 29.8H70.5723V31H67.0723V29.8H67.8723L67.4723 28.6H65.4723L65.0723 29.9H65.8723V31.1H62.6723V29.8H62.5723ZM66.4723 24.9L65.7723 27.4H67.1723L66.4723 24.9Z" fill="#64433C"/>
</svg>
