<svg width="29" height="26" viewBox="0 0 29 26" fill="none" xmlns="http://www.w3.org/2000/svg">
<path d="M5.09887 26C3.75898 26 2.49996 25.4779 1.55306 24.5311C-0.4018 22.576 -0.4018 19.3948 1.55306 17.4399L17.0544 1.93779C18.3033 0.68762 19.9654 0 21.7326 0C23.5001 0 25.1622 0.68762 26.4111 1.93779C27.6612 3.18761 28.3497 4.8488 28.3497 6.61593C28.3497 8.38341 27.662 10.0445 26.4122 11.2936L14.2092 23.4954C13.8428 23.8616 13.2495 23.8616 12.8834 23.4954C12.517 23.1291 12.517 22.5358 12.8834 22.1694L25.086 9.96759C25.9817 9.07206 26.4743 7.88162 26.4743 6.61593C26.4743 5.35048 25.9807 4.15929 25.0852 3.26365C24.1895 2.36813 22.9991 1.87531 21.7326 1.87531C20.4664 1.87531 19.276 2.36813 18.3803 3.26365L2.87909 18.7658C1.65577 19.9901 1.65577 21.981 2.87909 23.2051C4.06575 24.3901 6.13177 24.3901 7.31836 23.2051L17.7273 12.7954C18.0103 12.5123 18.1724 12.1206 18.1724 11.7212C18.1724 11.3163 18.0141 10.9346 17.7265 10.647C17.135 10.0555 16.1707 10.0537 15.5792 10.647L8.47035 17.7566C8.10421 18.123 7.51063 18.123 7.14449 17.7566C6.77812 17.3904 6.77812 16.7969 7.14449 16.4308L14.2531 9.32118C15.5754 7.99893 17.7283 7.99893 19.0524 9.32118C19.6944 9.96299 20.0478 10.8156 20.0478 11.7213C20.0478 12.6149 19.6852 13.4894 19.0534 14.1212L8.64446 24.5311C7.69755 25.4779 6.43847 26 5.09887 26Z" fill="#212121"/>
</svg>
