<svg width="19" height="18" viewBox="0 0 19 18" fill="none" xmlns="http://www.w3.org/2000/svg">
<path d="M9.00736 4.50368H6.75405V6.75699H4.50074V9.0103H6.75405V11.2636H9.00736V9.0103H11.2607V6.75699H9.00736V4.50368ZM17.597 15.6378L14.3435 12.3844C15.2348 11.1077 15.7614 9.55744 15.7614 7.8807C15.7643 3.52999 12.2344 0 7.8807 0C3.52705 0 0 3.52999 0 7.8807C0 12.2314 3.52999 15.7614 7.8807 15.7614C9.55745 15.7614 11.1077 15.2348 12.3844 14.3435L15.6349 17.5941C16.1762 18.1353 17.0528 18.1353 17.5941 17.5941C18.1383 17.0557 18.1383 16.1791 17.597 15.6378ZM7.8807 13.511C4.77137 13.511 2.25037 10.99 2.25037 7.8807C2.25037 4.77137 4.77431 2.25331 7.8807 2.25331C10.99 2.25331 13.511 4.77431 13.511 7.88364C13.511 10.99 10.99 13.511 7.8807 13.511Z" fill="#212121"/>
</svg>
