<svg width="40" height="40" viewBox="0 0 40 40" fill="none" xmlns="http://www.w3.org/2000/svg">
<rect width="40" height="40" fill="#F9F9F9"/>
<path d="M20.0074 16.5037H17.754V18.757H15.5007V21.0103H17.754V23.2636H20.0074V21.0103H22.2607V18.757H20.0074V16.5037ZM28.597 27.6378L25.3435 24.3844C26.2348 23.1077 26.7614 21.5574 26.7614 19.8807C26.7643 15.53 23.2344 12 18.8807 12C14.527 12 11 15.53 11 19.8807C11 24.2314 14.53 27.7614 18.8807 27.7614C20.5574 27.7614 22.1077 27.2348 23.3844 26.3435L26.6349 29.5941C27.1762 30.1353 28.0528 30.1353 28.5941 29.5941C29.1383 29.0557 29.1383 28.1791 28.597 27.6378ZM18.8807 25.511C15.7714 25.511 13.2504 22.99 13.2504 19.8807C13.2504 16.7714 15.7743 14.2533 18.8807 14.2533C21.99 14.2533 24.511 16.7743 24.511 19.8836C24.511 22.99 21.99 25.511 18.8807 25.511Z" fill="#212121"/>
</svg>
