<svg width="152" height="118" viewBox="0 0 152 118" fill="none" xmlns="http://www.w3.org/2000/svg">
<mask id="mask0" mask-type="alpha" maskUnits="userSpaceOnUse" x="1" y="0" width="151" height="78">
<path fill-rule="evenodd" clip-rule="evenodd" d="M81.3398 77.9937H109.858C109.858 77.6427 109.946 77.8182 109.77 77.555C108.191 77.555 105.47 77.1163 103.803 76.9408C101.785 76.6775 99.8545 76.502 97.8363 76.2388C85.8149 74.6593 73.618 73.7819 61.5089 72.8166C49.2242 71.8514 36.8518 70.7107 24.5671 69.8332C22.7244 69.7455 13.5109 69.1312 12.5457 68.6925C15.0026 67.7273 42.2921 68.868 46.855 69.0435C58.4377 69.4822 70.1081 69.4822 81.7785 69.4822C93.3612 69.4822 105.119 69.6577 116.702 69.8332L142.675 70.3597C145.308 70.4474 148.818 70.6229 151.362 70.5352L151.275 67.0253C147.238 66.6743 142.675 66.9375 138.551 66.762C130.04 66.411 121.44 66.411 112.929 66.3233L100.82 65.9723C109.244 65.7091 117.58 65.2703 126.003 65.0948C134.339 64.9193 143.026 64.3051 151.362 64.4806V60.7952C150.046 60.7075 147.852 60.9707 146.536 61.0585C144.957 61.1462 143.29 61.0585 141.71 61.1462C138.551 61.2339 135.48 61.4972 132.409 61.4972C126.267 61.4972 119.598 61.8482 113.455 62.1114C100.908 62.6379 88.3596 62.7257 75.8117 63.2521C69.4939 63.5154 63.1761 63.6909 56.8582 63.8664C50.7159 63.9541 44.3981 64.3929 38.2557 64.5684C31.8502 64.7439 25.6201 64.8316 19.3023 64.3051C16.4066 64.0419 13.1599 63.8664 10.1765 63.7786C8.50932 63.6909 3.68321 63.6031 2.016 63.3399L1.31402 62.9889C1.84051 62.5502 2.89348 62.7257 3.68321 62.7257C9.12356 62.3747 14.7394 62.4624 20.1798 62.0237C26.3221 61.4972 33.0786 61.7604 39.3087 61.4972C45.6265 61.234 52.1199 61.0585 58.4377 60.883C64.7555 60.7075 70.9856 60.181 77.3912 60.0932C83.6212 60.0055 89.9391 59.479 96.1691 59.2158C105.558 58.8648 115.123 58.1628 124.599 58.075C127.671 58.075 130.917 57.5486 133.901 57.8995C136.884 58.2505 139.78 58.5138 142.763 58.8648C145.308 59.128 149.256 60.0932 151.362 60.181L151.275 53.3367C148.993 53.4244 146.448 53.6877 144.079 53.7754C141.535 53.9509 139.078 53.8632 136.533 54.0387C131.795 54.3896 127.056 53.5122 122.318 53.0734L95.1162 50.3533L151.275 49.9145V46.4046C130.303 46.2291 109.244 46.5801 88.1841 46.5801C82.2173 46.5801 60.8069 46.9311 56.595 46.4924C51.7689 45.9659 47.1183 45.5271 42.2921 45.0007C37.5538 44.4742 32.5522 44.1232 27.9015 43.5089C28.779 42.807 30.6217 43.0702 31.5869 42.9825C32.8154 42.8947 34.0439 42.7192 35.1846 42.7192L58.4377 42.5437C68.8796 42.456 79.2339 42.5437 89.6758 42.3682C99.9423 42.1927 110.384 41.9295 120.651 41.9295C124.336 41.9295 149.783 41.9295 151.187 41.3153V37.8931C148.203 37.7176 139.692 38.1563 135.831 38.1563C120.3 38.1563 104.856 38.8583 89.3248 38.5951C90.2023 38.0686 103.891 37.6299 104.768 37.5421C113.28 36.9279 127.32 35.6994 135.48 35.7872C139.341 35.7872 148.028 36.3136 151.275 36.0504V30.961C149.783 30.7855 144.167 31.3998 142.237 31.4875C133.55 32.014 132.584 32.1895 123.634 32.014L76.2504 31.0488C63.6148 30.7855 50.9791 30.6978 38.3435 30.4346L5.43816 29.7326C4.29744 29.7326 1.84051 30.0836 1.13853 29.3816V33.5935C2.36699 32.9792 38.3435 34.0322 43.0819 34.2077C57.0337 34.6464 71.4243 34.8219 85.3762 34.9097C84.5865 35.5239 85.4639 35.1729 84.06 35.2607L64.8433 36.5769C57.9989 37.0156 51.2424 37.6299 44.3981 38.2441C41.0637 38.5073 37.3783 38.9461 33.9561 39.0338C26.5853 39.2093 19.2145 39.0338 11.8437 39.0338C9.82554 39.0338 2.1915 39.4726 1.05078 38.7706V45.7904C3.59546 44.4742 16.8453 45.5271 20.0043 46.3169L19.741 46.4046C18.3371 46.7556 16.5821 46.4924 15.1781 46.4924H5.52591C4.73618 46.4924 3.94645 46.4924 3.06898 46.4924C2.10375 46.4924 1.57727 46.6679 1.05078 46.0536V50.2655C2.71798 49.6513 50.3649 49.8268 56.244 49.9145C60.1926 49.9145 76.4259 51.845 81.4275 52.3714C83.007 52.5469 104.681 54.5651 105.909 54.9161L106.348 55.0916C106.348 55.0039 106.436 55.1794 106.523 55.1794C88.9738 55.8813 71.3366 56.7588 53.7871 57.2853L13.7742 58.3383C11.6682 58.426 9.3868 58.6015 7.28086 58.6893C6.14014 58.6893 1.84051 59.2158 1.13853 58.6015V71.4127C2.1915 71.1494 18.5125 72.8166 21.2327 72.9921C27.9015 73.5186 34.9213 73.8696 41.5024 74.4838C47.2937 75.2736 80.3746 77.555 81.3398 77.9937Z" fill="#212121"/>
<path fill-rule="evenodd" clip-rule="evenodd" d="M151.535 5.76735V4.0124L151.36 2.25745L124.07 2.52069C124.772 2.08196 132.055 1.20448 133.196 1.02899C134.775 0.765743 135.477 0.941238 135.653 0.239258H109.504L84.2327 2.87168C79.7576 3.31042 75.2824 3.22268 70.8073 3.31042C49.7479 3.39817 29.0395 3.66141 7.98005 3.57367C6.4006 3.57367 2.18871 3.92466 1.13574 3.31042V7.34681C2.36421 6.99582 11.8409 7.17132 13.6836 7.34681C11.6654 7.61005 6.83933 7.8733 4.29465 7.96104C3.24168 8.04879 1.74998 8.39978 1.13574 7.96104V12.1729C1.92547 11.4709 17.0181 10.9445 19.2117 10.769C25.3541 10.3302 31.5841 10.1547 37.7265 9.62825C50.0111 8.75077 62.208 7.96104 74.4927 7.08357C86.9529 6.20609 100.115 6.38159 112.751 6.29384L141.707 5.8551C144.779 5.8551 148.727 6.11834 151.535 5.76735Z" fill="#212121"/>
<path fill-rule="evenodd" clip-rule="evenodd" d="M1.22544 17.5355L1.1377 21.7474C2.27841 21.1331 98.8007 20.2556 113.718 20.2556C120.036 20.2556 126.178 20.0801 132.496 20.0801C138.638 20.0801 145.219 20.1679 151.362 19.8169V16.307L113.893 16.7457C88.8853 16.9212 63.3507 16.9212 38.3427 17.36L10.2634 17.711C8.85948 17.711 1.83968 18.1497 1.22544 17.5355Z" fill="#212121"/>
<path fill-rule="evenodd" clip-rule="evenodd" d="M1.1377 18.8418C1.75193 18.5786 9.03498 18.6663 9.8247 18.6663C56.9451 18.5786 104.241 19.105 151.449 19.0173V15.6829C113.893 15.6829 76.0741 15.0687 38.6937 15.1564C29.1292 15.1564 19.9157 14.9809 10.2634 15.1564C8.59624 15.2442 2.01517 15.4197 1.1377 14.8054V18.8418Z" fill="#212121"/>
<path fill-rule="evenodd" clip-rule="evenodd" d="M89.2373 27.8898C90.1148 28.3286 118.018 28.0653 121.528 27.9776C124.687 27.9776 132.585 27.0124 136.358 26.5736C138.99 26.3104 149.608 25.1697 151.363 25.1697V21.6598C149.432 21.572 145.659 22.1863 143.641 22.3618C141.096 22.625 138.551 22.8882 135.919 23.0637L90.027 27.5389C89.4128 27.7144 89.5005 27.6266 89.2373 27.8898Z" fill="#212121"/>
</mask>
<g mask="url(#mask0)">
<path d="M84.0703 67.916V85.0132H24.7202V71.5097L53.2518 44.8294C56.0105 42.2158 57.8618 40.0015 58.8056 38.1865C59.7494 36.2989 60.2213 34.4114 60.2213 32.5238C60.2213 30.0554 59.3864 28.1315 57.7166 26.7521C56.0468 25.3727 53.6148 24.683 50.4204 24.683C47.589 24.683 44.9754 25.3364 42.5796 26.6432C40.2565 27.8774 38.3326 29.6924 36.808 32.0882L20.7998 23.1584C23.7764 18.2217 27.9509 14.3376 33.3232 11.5062C38.6956 8.67485 45.048 7.25916 52.3806 7.25916C58.1885 7.25916 63.3068 8.20295 67.7354 10.0905C72.2366 11.9781 75.7213 14.7006 78.1897 18.258C80.7307 21.7427 82.0012 25.8083 82.0012 30.4547C82.0012 34.5928 81.0937 38.5132 79.2787 42.2158C77.5363 45.8458 74.1241 49.9839 69.0422 54.6303L54.6675 67.916H84.0703Z" fill="#212121"/>
<path d="M123.016 8.78392V85.0134H101.454V25.4455H87.2973V8.78392H123.016Z" fill="#212121"/>
</g>
<path fill-rule="evenodd" clip-rule="evenodd" d="M81.3398 85.0134H109.858C109.858 84.6624 109.946 84.8379 109.77 84.5746C108.191 84.5746 105.47 84.1359 103.803 83.9604C101.785 83.6972 99.8545 83.5217 97.8363 83.2584C85.8149 81.679 73.618 80.8015 61.5089 79.8363C49.2242 78.8711 36.8518 77.7303 24.5671 76.8529C22.7244 76.7651 13.5109 76.1509 12.5457 75.7122C15.0026 74.7469 42.2921 75.8876 46.855 76.0631C58.4377 76.5019 70.1081 76.5019 81.7785 76.5019C93.3612 76.5019 105.119 76.6774 116.702 76.8529L142.675 77.3793C145.308 77.4671 148.818 77.6426 151.362 77.5548L151.275 74.0449C147.238 73.6939 142.675 73.9572 138.551 73.7817C130.04 73.4307 121.44 73.4307 112.929 73.343L100.82 72.992C109.244 72.7287 117.58 72.29 126.003 72.1145C134.339 71.939 143.026 71.3248 151.362 71.5003V67.8149C150.046 67.7271 147.852 67.9904 146.536 68.0781C144.957 68.1659 143.29 68.0781 141.71 68.1659C138.551 68.2536 135.48 68.5168 132.409 68.5168C126.267 68.5168 119.598 68.8678 113.455 69.1311C100.908 69.6576 88.3596 69.7453 75.8117 70.2718C69.4939 70.535 63.176 70.7105 56.8582 70.886C50.7159 70.9738 44.3981 71.4125 38.2557 71.588C31.8502 71.7635 25.6201 71.8512 19.3023 71.3248C16.4066 71.0615 13.1599 70.886 10.1765 70.7983C8.50932 70.7105 3.68321 70.6228 2.016 70.3595L1.31402 70.0086C1.84051 69.5698 2.89348 69.7453 3.68321 69.7453C9.12356 69.3943 14.7394 69.4821 20.1797 69.0433C26.3221 68.5168 33.0786 68.7801 39.3087 68.5168C45.6265 68.2536 52.1199 68.0781 58.4377 67.9026C64.7555 67.7271 70.9856 67.2006 77.3912 67.1129C83.6212 67.0251 89.9391 66.4987 96.1691 66.2354C105.558 65.8844 115.123 65.1824 124.599 65.0947C127.671 65.0947 130.917 64.5682 133.901 64.9192C136.884 65.2702 139.78 65.5334 142.763 65.8844C145.308 66.1477 149.256 67.1129 151.362 67.2006L151.275 60.3563C148.993 60.4441 146.448 60.7073 144.079 60.7951C141.535 60.9706 139.078 60.8828 136.533 61.0583C131.795 61.4093 127.056 60.5318 122.318 60.0931L95.1162 57.3729L151.275 56.9342V53.4243C130.303 53.2488 109.244 53.5998 88.1841 53.5998C82.2173 53.5998 60.8069 53.9508 56.595 53.512C51.7689 52.9855 47.1182 52.5468 42.2921 52.0203C37.5538 51.4938 32.5522 51.1428 27.9015 50.5286C28.779 49.8266 30.6217 50.0899 31.5869 50.0021C32.8154 49.9144 34.0439 49.7389 35.1846 49.7389L58.4377 49.5634C68.8796 49.4756 79.2339 49.5634 89.6758 49.3879C99.9423 49.2124 110.384 48.9491 120.651 48.9491C124.336 48.9491 149.783 48.9491 151.187 48.3349V44.9128C148.203 44.7373 139.692 45.176 135.831 45.176C120.3 45.176 104.856 45.878 89.3248 45.6147C90.2023 45.0883 103.891 44.6495 104.768 44.5618C113.28 43.9475 127.32 42.7191 135.48 42.8068C139.341 42.8068 148.028 43.3333 151.275 43.0701V37.9807C149.783 37.8052 144.167 38.4194 142.237 38.5072C133.55 39.0337 132.584 39.2092 123.634 39.0337L76.2504 38.0684C63.6148 37.8052 50.9791 37.7175 38.3435 37.4542L5.43816 36.7522C4.29744 36.7522 1.84051 37.1032 1.13853 36.4012V40.6131C2.36699 39.9989 38.3435 41.0519 43.0819 41.2274C57.0337 41.6661 71.4243 41.8416 85.3762 41.9293C84.5865 42.5436 85.4639 42.1926 84.06 42.2803L64.8433 43.5965C57.9989 44.0353 51.2424 44.6495 44.3981 45.2637C41.0637 45.527 37.3783 45.9657 33.9561 46.0535C26.5853 46.229 19.2145 46.0535 11.8437 46.0535C9.82554 46.0535 2.1915 46.4922 1.05078 45.7902V52.81C3.59546 51.4938 16.8453 52.5468 20.0043 53.3365L19.741 53.4243C18.3371 53.7753 16.5821 53.512 15.1781 53.512H5.52591C4.73618 53.512 3.94645 53.512 3.06897 53.512C2.10375 53.512 1.57727 53.6875 1.05078 53.0733V57.2852C2.71798 56.6709 50.3649 56.8464 56.244 56.9342C60.1926 56.9342 76.4259 58.8646 81.4275 59.3911C83.007 59.5666 104.681 61.5848 105.909 61.9358L106.348 62.1113C106.348 62.0235 106.436 62.199 106.523 62.199C88.9738 62.901 71.3366 63.7785 53.7871 64.305L13.7742 65.3579C11.6682 65.4457 9.3868 65.6212 7.28086 65.7089C6.14014 65.7089 1.84051 66.2354 1.13853 65.6212V78.4323C2.1915 78.1691 18.5125 79.8363 21.2327 80.0118C27.9015 80.5383 34.9213 80.8892 41.5024 81.5035C47.2937 82.2932 80.3746 84.5746 81.3398 85.0134Z" fill="#212121"/>
<path fill-rule="evenodd" clip-rule="evenodd" d="M151.535 12.7873V11.0323L151.36 9.27735L124.07 9.54059C124.772 9.10185 132.055 8.22438 133.196 8.04888C134.775 7.78564 135.477 7.96114 135.653 7.25916H109.504L84.2327 9.89158C79.7576 10.3303 75.2824 10.2426 70.8073 10.3303C49.7479 10.4181 29.0395 10.6813 7.98005 10.5936C6.4006 10.5936 2.18871 10.9446 1.13574 10.3303V14.3667C2.36421 14.0157 11.8409 14.1912 13.6836 14.3667C11.6655 14.63 6.83933 14.8932 4.29465 14.9809C3.24168 15.0687 1.74998 15.4197 1.13574 14.9809V19.1928C1.92547 18.4908 17.0181 17.9644 19.2117 17.7889C25.3541 17.3501 31.5841 17.1746 37.7265 16.6481C50.0111 15.7707 62.208 14.9809 74.4927 14.1035C86.9529 13.226 100.115 13.4015 112.751 13.3137L141.707 12.875C144.779 12.875 148.727 13.1382 151.535 12.7873Z" fill="#212121"/>
<path fill-rule="evenodd" clip-rule="evenodd" d="M1.22544 24.5552L1.1377 28.7671C2.27841 28.1529 98.8007 27.2754 113.718 27.2754C120.036 27.2754 126.178 27.0999 132.496 27.0999C138.638 27.0999 145.219 27.1877 151.362 26.8367V23.3268L113.893 23.7655C88.8853 23.941 63.3507 23.941 38.3427 24.3798L10.2634 24.7307C8.85948 24.7307 1.83968 25.1695 1.22544 24.5552Z" fill="#212121"/>
<path fill-rule="evenodd" clip-rule="evenodd" d="M1.1377 25.8618C1.75193 25.5986 9.03498 25.6863 9.8247 25.6863C56.9451 25.5986 104.241 26.1251 151.449 26.0373V22.7029C113.893 22.7029 76.0741 22.0887 38.6936 22.1764C29.1292 22.1764 19.9157 22.0009 10.2634 22.1764C8.59624 22.2642 2.01517 22.4397 1.1377 21.8254V25.8618Z" fill="#212121"/>
<path fill-rule="evenodd" clip-rule="evenodd" d="M89.2373 34.9096C90.1148 35.3484 118.018 35.0851 121.528 34.9974C124.687 34.9974 132.585 34.0321 136.358 33.5934C138.99 33.3302 149.608 32.1895 151.363 32.1895V28.6795C149.432 28.5918 145.659 29.206 143.641 29.3815C141.096 29.6448 138.551 29.908 135.919 30.0835L90.027 34.5586C89.4128 34.7341 89.5005 34.6464 89.2373 34.9096Z" fill="#212121"/>
<path d="M10.8607 97.7369C11.7427 97.9827 12.4366 98.4308 12.9426 99.0814C13.4486 99.7176 13.7017 100.527 13.7017 101.51C13.7017 102.826 13.2029 103.838 12.2053 104.546C11.2222 105.255 9.78366 105.609 7.88972 105.609H0.646484V90.4286H7.45599C9.1909 90.4286 10.5282 90.7756 11.468 91.4695C12.4222 92.1635 12.8993 93.1249 12.8993 94.3538C12.8993 95.149 12.7113 95.8357 12.3354 96.414C11.974 96.9923 11.4824 97.4333 10.8607 97.7369ZM2.81512 92.1852V97.0429H7.26082C8.37405 97.0429 9.22704 96.8405 9.8198 96.4357C10.427 96.0164 10.7306 95.4092 10.7306 94.6141C10.7306 93.8189 10.427 93.2189 9.8198 92.8141C9.22704 92.3948 8.37405 92.1852 7.26082 92.1852H2.81512ZM7.80297 103.852C9.03187 103.852 9.95715 103.65 10.5788 103.245C11.2005 102.84 11.5113 102.204 11.5113 101.337C11.5113 99.6453 10.2752 98.7995 7.80297 98.7995H2.81512V103.852H7.80297Z" fill="#212121"/>
<path d="M26.8183 105.783C24.7943 105.783 23.2184 105.204 22.0907 104.048C20.963 102.891 20.3992 101.228 20.3992 99.0597V90.4286H22.5678V98.973C22.5678 102.226 23.9919 103.852 26.84 103.852C28.2279 103.852 29.2906 103.455 30.0279 102.66C30.7652 101.85 31.1339 100.621 31.1339 98.973V90.4286H33.2375V99.0597C33.2375 101.243 32.6736 102.913 31.5459 104.069C30.4183 105.211 28.8424 105.783 26.8183 105.783Z" fill="#212121"/>
<path d="M51.3025 105.609L48.0279 100.946C47.6231 100.975 47.305 100.99 47.0737 100.99H43.322V105.609H41.1533V90.4286H47.0737C49.0399 90.4286 50.5869 90.8985 51.7146 91.8382C52.8423 92.7779 53.4061 94.0719 53.4061 95.7201C53.4061 96.8911 53.117 97.8887 52.5387 98.7128C51.9604 99.5368 51.1363 100.137 50.0664 100.513L53.6663 105.609H51.3025ZM47.0086 99.1465C48.3821 99.1465 49.4303 98.8501 50.1532 98.2574C50.876 97.6646 51.2375 96.8188 51.2375 95.7201C51.2375 94.6213 50.876 93.7827 50.1532 93.2044C49.4303 92.6117 48.3821 92.3153 47.0086 92.3153H43.322V99.1465H47.0086Z" fill="#212121"/>
<path d="M71.3963 103.722V105.609H60.3796V90.4286H71.0927V92.3153H62.5483V96.9779H70.1602V98.8212H62.5483V103.722H71.3963Z" fill="#212121"/>
<path d="M88.0497 101.814H79.9824L78.3125 105.609H76.0788L82.9534 90.4286H85.1003L91.9966 105.609H89.7195L88.0497 101.814ZM87.2907 100.079L84.016 92.6406L80.7414 100.079H87.2907Z" fill="#212121"/>
<path d="M103.702 105.783C101.678 105.783 100.102 105.204 98.9747 104.048C97.847 102.891 97.2831 101.228 97.2831 99.0597V90.4286H99.4518V98.973C99.4518 102.226 100.876 103.852 103.724 103.852C105.112 103.852 106.175 103.455 106.912 102.66C107.649 101.85 108.018 100.621 108.018 98.973V90.4286H110.121V99.0597C110.121 101.243 109.558 102.913 108.43 104.069C107.302 105.211 105.726 105.783 103.702 105.783Z" fill="#212121"/>
<path d="M5.54256 112.402L5.54256 117.203H4.66482L4.66482 113.157H2.17559L2.17559 117.203H1.29785L1.29785 112.402H5.54256Z" fill="#212121"/>
<path d="M11.8882 112.402C12.3043 112.402 12.6654 112.471 12.9717 112.608C13.2826 112.745 13.5203 112.942 13.6849 113.198C13.8494 113.454 13.9317 113.758 13.9317 114.11C13.9317 114.457 13.8494 114.761 13.6849 115.022C13.5203 115.278 13.2826 115.475 12.9717 115.612C12.6654 115.749 12.3043 115.817 11.8882 115.817H10.8048V117.203H9.91332V112.402H11.8882ZM11.8471 115.063C12.2357 115.063 12.5306 114.981 12.7317 114.816C12.9328 114.652 13.0334 114.416 13.0334 114.11C13.0334 113.804 12.9328 113.568 12.7317 113.404C12.5306 113.239 12.2357 113.157 11.8471 113.157H10.8048V115.063H11.8471Z" fill="#212121"/>
<path d="M20.0811 117.271C19.5919 117.271 19.1508 117.166 18.7576 116.956C18.3645 116.741 18.0559 116.446 17.8319 116.071C17.6079 115.692 17.4959 115.269 17.4959 114.803C17.4959 114.336 17.6079 113.916 17.8319 113.541C18.0559 113.161 18.3645 112.866 18.7576 112.656C19.1508 112.441 19.5919 112.334 20.0811 112.334C20.5702 112.334 21.0114 112.441 21.4045 112.656C21.7977 112.866 22.1063 113.159 22.3303 113.534C22.5543 113.909 22.6663 114.332 22.6663 114.803C22.6663 115.273 22.5543 115.696 22.3303 116.071C22.1063 116.446 21.7977 116.741 21.4045 116.956C21.0114 117.166 20.5702 117.271 20.0811 117.271ZM20.0811 116.489C20.4011 116.489 20.6891 116.419 20.9451 116.277C21.2011 116.131 21.4023 115.929 21.5486 115.673C21.6948 115.413 21.768 115.123 21.768 114.803C21.768 114.483 21.6948 114.194 21.5486 113.938C21.4023 113.678 21.2011 113.477 20.9451 113.335C20.6891 113.189 20.4011 113.116 20.0811 113.116C19.7611 113.116 19.4731 113.189 19.217 113.335C18.961 113.477 18.7599 113.678 18.6136 113.938C18.4673 114.194 18.3942 114.483 18.3942 114.803C18.3942 115.123 18.4673 115.413 18.6136 115.673C18.7599 115.929 18.961 116.131 19.217 116.277C19.4731 116.419 19.7611 116.489 20.0811 116.489Z" fill="#212121"/>
<path d="M30.2692 116.455V117.203H26.6691V112.402H30.1732V113.15H27.5606V114.398H29.8784V115.132H27.5606V116.455H30.2692Z" fill="#212121"/>
<path d="M36.0495 115.18H35.158V117.203H34.2803V112.402H35.158V114.412H36.0769L37.4552 112.402H38.4015L36.7626 114.727L38.4633 117.203H37.4552L36.0495 115.18Z" fill="#212121"/>
<path d="M45.5223 113.157H43.9314V117.203H43.0468V113.157H41.4627V112.402H45.5223V113.157Z" fill="#212121"/>
<path d="M53.5736 112.402V117.203H52.6822V115.145H50.1998V117.203H49.3083V112.402H50.1998V114.384H52.6822V112.402H53.5736Z" fill="#212121"/>
<path d="M60.1591 117.271C59.67 117.271 59.2288 117.166 58.8357 116.956C58.4425 116.741 58.1339 116.446 57.9099 116.071C57.6859 115.692 57.5739 115.269 57.5739 114.803C57.5739 114.336 57.6859 113.916 57.9099 113.541C58.1339 113.161 58.4425 112.866 58.8357 112.656C59.2288 112.441 59.67 112.334 60.1591 112.334C60.6483 112.334 61.0895 112.441 61.4826 112.656C61.8758 112.866 62.1844 113.159 62.4084 113.534C62.6324 113.909 62.7444 114.332 62.7444 114.803C62.7444 115.273 62.6324 115.696 62.4084 116.071C62.1844 116.446 61.8758 116.741 61.4826 116.956C61.0895 117.166 60.6483 117.271 60.1591 117.271ZM60.1591 116.489C60.4792 116.489 60.7672 116.419 61.0232 116.277C61.2792 116.131 61.4803 115.929 61.6266 115.673C61.7729 115.413 61.8461 115.123 61.8461 114.803C61.8461 114.483 61.7729 114.194 61.6266 113.938C61.4803 113.678 61.2792 113.477 61.0232 113.335C60.7672 113.189 60.4792 113.116 60.1591 113.116C59.8391 113.116 59.5511 113.189 59.2951 113.335C59.0391 113.477 58.838 113.678 58.6917 113.938C58.5454 114.194 58.4722 114.483 58.4722 114.803C58.4722 115.123 58.5454 115.413 58.6917 115.673C58.838 115.929 59.0391 116.131 59.2951 116.277C59.5511 116.419 59.8391 116.489 60.1591 116.489Z" fill="#212121"/>
<path d="M70.3473 116.455V117.203H66.7472V112.402H70.2513V113.15H67.6386V114.398H69.9564V115.132H67.6386V116.455H70.3473Z" fill="#212121"/>
<path d="M79.2776 112.402H83.0148V113.136H80.1553V114.316H81.5748C82.1508 114.316 82.5874 114.437 82.8845 114.679C83.1863 114.917 83.3371 115.262 83.3371 115.715C83.3371 116.19 83.1726 116.558 82.8434 116.819C82.5142 117.075 82.0457 117.203 81.4376 117.203H79.2776V112.402ZM81.3896 116.517C81.7325 116.517 81.9931 116.451 82.1714 116.318C82.3497 116.185 82.4388 115.993 82.4388 115.742C82.4388 115.248 82.0891 115.001 81.3896 115.001H80.1553V116.517H81.3896Z" fill="#212121"/>
<path d="M91.4381 112.334C91.909 112.334 92.3318 112.441 92.7067 112.656C93.0861 112.866 93.3833 113.159 93.5982 113.534C93.813 113.909 93.9205 114.332 93.9205 114.803C93.9205 115.273 93.813 115.696 93.5982 116.071C93.3833 116.446 93.0861 116.741 92.7067 116.956C92.3318 117.166 91.909 117.271 91.4381 117.271C91.0084 117.271 90.6152 117.182 90.2586 117.004C89.9066 116.825 89.6163 116.576 89.3877 116.256C89.1637 115.936 89.0243 115.573 88.9694 115.166H88.2151V117.203H87.3374V112.402H88.2151V114.37H88.9832C89.0472 113.973 89.1912 113.621 89.4152 113.314C89.6437 113.004 89.9318 112.764 90.2792 112.594C90.6312 112.421 91.0175 112.334 91.4381 112.334ZM91.4381 116.489C91.7352 116.489 92.005 116.419 92.2473 116.277C92.4896 116.135 92.6793 115.936 92.8164 115.68C92.9536 115.424 93.0221 115.132 93.0221 114.803C93.0221 114.473 92.9536 114.181 92.8164 113.925C92.6793 113.669 92.4896 113.47 92.2473 113.328C92.005 113.186 91.7352 113.116 91.4381 113.116C91.1409 113.116 90.8712 113.186 90.6289 113.328C90.3912 113.47 90.2015 113.669 90.0598 113.925C89.9226 114.181 89.854 114.473 89.854 114.803C89.854 115.132 89.9226 115.424 90.0598 115.68C90.2015 115.936 90.3912 116.135 90.6289 116.277C90.8712 116.419 91.1409 116.489 91.4381 116.489Z" fill="#212121"/>
<path d="M99.91 112.402C100.326 112.402 100.687 112.471 100.993 112.608C101.304 112.745 101.542 112.942 101.707 113.198C101.871 113.454 101.953 113.758 101.953 114.11C101.953 114.457 101.871 114.761 101.707 115.022C101.542 115.278 101.304 115.475 100.993 115.612C100.687 115.749 100.326 115.817 99.91 115.817H98.8265V117.203H97.9351V112.402H99.91ZM99.8688 115.063C100.257 115.063 100.552 114.981 100.753 114.816C100.955 114.652 101.055 114.416 101.055 114.11C101.055 113.804 100.955 113.568 100.753 113.404C100.552 113.239 100.257 113.157 99.8688 113.157H98.8265V115.063H99.8688Z" fill="#212121"/>
<path d="M108.103 117.271C107.614 117.271 107.173 117.166 106.779 116.956C106.386 116.741 106.078 116.446 105.854 116.071C105.63 115.692 105.518 115.269 105.518 114.803C105.518 114.336 105.63 113.916 105.854 113.541C106.078 113.161 106.386 112.866 106.779 112.656C107.173 112.441 107.614 112.334 108.103 112.334C108.592 112.334 109.033 112.441 109.426 112.656C109.819 112.866 110.128 113.159 110.352 113.534C110.576 113.909 110.688 114.332 110.688 114.803C110.688 115.273 110.576 115.696 110.352 116.071C110.128 116.446 109.819 116.741 109.426 116.956C109.033 117.166 108.592 117.271 108.103 117.271ZM108.103 116.489C108.423 116.489 108.711 116.419 108.967 116.277C109.223 116.131 109.424 115.929 109.57 115.673C109.717 115.413 109.79 115.123 109.79 114.803C109.79 114.483 109.717 114.194 109.57 113.938C109.424 113.678 109.223 113.477 108.967 113.335C108.711 113.189 108.423 113.116 108.103 113.116C107.783 113.116 107.495 113.189 107.239 113.335C106.983 113.477 106.782 113.678 106.635 113.938C106.489 114.194 106.416 114.483 106.416 114.803C106.416 115.123 106.489 115.413 106.635 115.673C106.782 115.929 106.983 116.131 107.239 116.277C107.495 116.419 107.783 116.489 108.103 116.489Z" fill="#212121"/>
<path d="M139.785 114.657V117.202H120.258V115.174L131.831 103.84C133.289 102.408 134.27 101.175 134.774 100.141C135.304 99.0805 135.569 98.02 135.569 96.9594C135.569 95.3156 134.999 94.043 133.859 93.1415C132.746 92.2136 131.142 91.7496 129.047 91.7496C125.786 91.7496 123.254 92.7836 121.451 94.8516L119.423 93.1017C120.51 91.8291 121.889 90.8481 123.559 90.1588C125.256 89.4694 127.165 89.1248 129.286 89.1248C132.123 89.1248 134.363 89.8008 136.007 91.153C137.677 92.4787 138.512 94.3081 138.512 96.6413C138.512 98.073 138.194 99.4517 137.558 100.777C136.922 102.103 135.715 103.628 133.939 105.351L124.474 114.657H139.785Z" fill="#212121"/>
<path d="M151.094 89.3634V117.202H148.231V91.9087H141.669V89.3634H151.094Z" fill="#212121"/>
</svg>
