<svg width="151" height="86" viewBox="0 0 151 86" fill="none" xmlns="http://www.w3.org/2000/svg">
<mask id="mask0" mask-type="alpha" maskUnits="userSpaceOnUse" x="0" y="0" width="151" height="78">
<path fill-rule="evenodd" clip-rule="evenodd" d="M80.3398 77.9937H108.858C108.858 77.6427 108.946 77.8182 108.77 77.555C107.191 77.555 104.47 77.1163 102.803 76.9408C100.785 76.6775 98.8545 76.502 96.8363 76.2388C84.8149 74.6593 72.618 73.7819 60.5089 72.8166C48.2242 71.8514 35.8518 70.7107 23.5671 69.8332C21.7244 69.7455 12.5109 69.1312 11.5457 68.6925C14.0026 67.7273 41.2921 68.868 45.855 69.0435C57.4377 69.4822 69.1081 69.4822 80.7785 69.4822C92.3612 69.4822 104.119 69.6577 115.702 69.8332L141.675 70.3597C144.308 70.4474 147.818 70.6229 150.362 70.5352L150.275 67.0253C146.238 66.6743 141.675 66.9375 137.551 66.762C129.04 66.411 120.44 66.411 111.929 66.3233L99.8198 65.9723C108.244 65.7091 116.58 65.2703 125.003 65.0948C133.339 64.9193 142.026 64.3051 150.362 64.4806V60.7952C149.046 60.7075 146.852 60.9707 145.536 61.0585C143.957 61.1462 142.29 61.0585 140.71 61.1462C137.551 61.2339 134.48 61.4972 131.409 61.4972C125.267 61.4972 118.598 61.8482 112.455 62.1114C99.9075 62.6379 87.3596 62.7257 74.8117 63.2521C68.4939 63.5154 62.1761 63.6909 55.8582 63.8664C49.7159 63.9541 43.3981 64.3929 37.2557 64.5684C30.8502 64.7439 24.6201 64.8316 18.3023 64.3051C15.4066 64.0419 12.1599 63.8664 9.17653 63.7786C7.50932 63.6909 2.68321 63.6031 1.016 63.3399L0.314024 62.9889C0.840509 62.5502 1.89348 62.7257 2.68321 62.7257C8.12356 62.3747 13.7394 62.4624 19.1798 62.0237C25.3221 61.4972 32.0786 61.7604 38.3087 61.4972C44.6265 61.234 51.1199 61.0585 57.4377 60.883C63.7555 60.7075 69.9856 60.181 76.3912 60.0932C82.6212 60.0055 88.9391 59.479 95.1691 59.2158C104.558 58.8648 114.123 58.1628 123.599 58.075C126.671 58.075 129.917 57.5486 132.901 57.8995C135.884 58.2505 138.78 58.5138 141.763 58.8648C144.308 59.128 148.256 60.0932 150.362 60.181L150.275 53.3367C147.993 53.4244 145.448 53.6877 143.079 53.7754C140.535 53.9509 138.078 53.8632 135.533 54.0387C130.795 54.3896 126.056 53.5122 121.318 53.0734L94.1162 50.3533L150.275 49.9145V46.4046C129.303 46.2291 108.244 46.5801 87.1841 46.5801C81.2173 46.5801 59.8069 46.9311 55.595 46.4924C50.7689 45.9659 46.1183 45.5271 41.2921 45.0007C36.5538 44.4742 31.5522 44.1232 26.9015 43.5089C27.779 42.807 29.6217 43.0702 30.5869 42.9825C31.8154 42.8947 33.0439 42.7192 34.1846 42.7192L57.4377 42.5437C67.8796 42.456 78.2339 42.5437 88.6758 42.3682C98.9423 42.1927 109.384 41.9295 119.651 41.9295C123.336 41.9295 148.783 41.9295 150.187 41.3153V37.8931C147.203 37.7176 138.692 38.1563 134.831 38.1563C119.3 38.1563 103.856 38.8583 88.3248 38.5951C89.2023 38.0686 102.891 37.6299 103.768 37.5421C112.28 36.9279 126.32 35.6994 134.48 35.7872C138.341 35.7872 147.028 36.3136 150.275 36.0504V30.961C148.783 30.7855 143.167 31.3998 141.237 31.4875C132.55 32.014 131.584 32.1895 122.634 32.014L75.2504 31.0488C62.6148 30.7855 49.9791 30.6978 37.3435 30.4346L4.43816 29.7326C3.29744 29.7326 0.840509 30.0836 0.138529 29.3816V33.5935C1.36699 32.9792 37.3435 34.0322 42.0819 34.2077C56.0337 34.6464 70.4243 34.8219 84.3762 34.9097C83.5865 35.5239 84.4639 35.1729 83.06 35.2607L63.8433 36.5769C56.9989 37.0156 50.2424 37.6299 43.3981 38.2441C40.0637 38.5073 36.3783 38.9461 32.9561 39.0338C25.5853 39.2093 18.2145 39.0338 10.8437 39.0338C8.82554 39.0338 1.1915 39.4726 0.0507812 38.7706V45.7904C2.59546 44.4742 15.8453 45.5271 19.0043 46.3169L18.741 46.4046C17.3371 46.7556 15.5821 46.4924 14.1781 46.4924H4.52591C3.73618 46.4924 2.94645 46.4924 2.06898 46.4924C1.10375 46.4924 0.577267 46.6679 0.0507812 46.0536V50.2655C1.71798 49.6513 49.3649 49.8268 55.244 49.9145C59.1926 49.9145 75.4259 51.845 80.4275 52.3714C82.007 52.5469 103.681 54.5651 104.909 54.9161L105.348 55.0916C105.348 55.0039 105.436 55.1794 105.523 55.1794C87.9738 55.8813 70.3366 56.7588 52.7871 57.2853L12.7742 58.3383C10.6682 58.426 8.3868 58.6015 6.28086 58.6893C5.14014 58.6893 0.840509 59.2158 0.138529 58.6015V71.4127C1.1915 71.1494 17.5125 72.8166 20.2327 72.9921C26.9015 73.5186 33.9213 73.8696 40.5024 74.4838C46.2937 75.2736 79.3746 77.555 80.3398 77.9937Z" fill="#212121"/>
<path fill-rule="evenodd" clip-rule="evenodd" d="M150.535 5.76735V4.0124L150.36 2.25745L123.07 2.52069C123.772 2.08196 131.055 1.20448 132.196 1.02899C133.775 0.765743 134.477 0.941238 134.653 0.239258H108.504L83.2327 2.87168C78.7576 3.31042 74.2824 3.22268 69.8073 3.31042C48.7479 3.39817 28.0395 3.66141 6.98005 3.57367C5.4006 3.57367 1.18871 3.92466 0.135742 3.31042V7.34681C1.36421 6.99582 10.8409 7.17132 12.6836 7.34681C10.6654 7.61005 5.83933 7.8733 3.29465 7.96104C2.24168 8.04879 0.749975 8.39978 0.135742 7.96104V12.1729C0.92547 11.4709 16.0181 10.9445 18.2117 10.769C24.3541 10.3302 30.5841 10.1547 36.7265 9.62825C49.0111 8.75077 61.208 7.96104 73.4927 7.08357C85.9529 6.20609 99.115 6.38159 111.751 6.29384L140.707 5.8551C143.779 5.8551 147.727 6.11834 150.535 5.76735Z" fill="#212121"/>
<path fill-rule="evenodd" clip-rule="evenodd" d="M0.225443 17.5355L0.137695 21.7474C1.27841 21.1331 97.8007 20.2556 112.718 20.2556C119.036 20.2556 125.178 20.0801 131.496 20.0801C137.638 20.0801 144.219 20.1679 150.362 19.8169V16.307L112.893 16.7457C87.8853 16.9212 62.3507 16.9212 37.3427 17.36L9.26344 17.711C7.85948 17.711 0.839676 18.1497 0.225443 17.5355Z" fill="#212121"/>
<path fill-rule="evenodd" clip-rule="evenodd" d="M0.137695 18.8418C0.751928 18.5786 8.03498 18.6663 8.8247 18.6663C55.9451 18.5786 103.241 19.105 150.449 19.0173V15.6829C112.893 15.6829 75.0741 15.0687 37.6937 15.1564C28.1292 15.1564 18.9157 14.9809 9.26344 15.1564C7.59624 15.2442 1.01517 15.4197 0.137695 14.8054V18.8418Z" fill="#212121"/>
<path fill-rule="evenodd" clip-rule="evenodd" d="M88.2373 27.8898C89.1148 28.3286 117.018 28.0653 120.528 27.9776C123.687 27.9776 131.585 27.0124 135.358 26.5736C137.99 26.3104 148.608 25.1697 150.363 25.1697V21.6598C148.432 21.572 144.659 22.1863 142.641 22.3618C140.096 22.625 137.551 22.8882 134.919 23.0637L89.027 27.5389C88.4128 27.7144 88.5005 27.6266 88.2373 27.8898Z" fill="#212121"/>
</mask>
<g mask="url(#mask0)">
<path d="M83.0703 67.916V85.0132H23.7202V71.5097L52.2518 44.8294C55.0105 42.2158 56.8618 40.0015 57.8056 38.1865C58.7494 36.2989 59.2213 34.4114 59.2213 32.5238C59.2213 30.0554 58.3864 28.1315 56.7166 26.7521C55.0468 25.3727 52.6148 24.683 49.4204 24.683C46.589 24.683 43.9754 25.3364 41.5796 26.6432C39.2565 27.8774 37.3326 29.6924 35.808 32.0882L19.7998 23.1584C22.7764 18.2217 26.9509 14.3376 32.3232 11.5062C37.6956 8.67485 44.048 7.25916 51.3806 7.25916C57.1885 7.25916 62.3068 8.20295 66.7354 10.0905C71.2366 11.9781 74.7213 14.7006 77.1897 18.258C79.7307 21.7427 81.0012 25.8083 81.0012 30.4547C81.0012 34.5928 80.0937 38.5132 78.2787 42.2158C76.5363 45.8458 73.1241 49.9839 68.0422 54.6303L53.6675 67.916H83.0703Z" fill="#212121"/>
<path d="M122.016 8.78392V85.0134H100.454V25.4455H86.2973V8.78392H122.016Z" fill="#212121"/>
</g>
<path fill-rule="evenodd" clip-rule="evenodd" d="M80.3398 85.0134H108.858C108.858 84.6624 108.946 84.8379 108.77 84.5746C107.191 84.5746 104.47 84.1359 102.803 83.9604C100.785 83.6972 98.8545 83.5217 96.8363 83.2584C84.8149 81.679 72.618 80.8015 60.5089 79.8363C48.2242 78.8711 35.8518 77.7303 23.5671 76.8529C21.7244 76.7651 12.5109 76.1509 11.5457 75.7122C14.0026 74.7469 41.2921 75.8876 45.855 76.0631C57.4377 76.5019 69.1081 76.5019 80.7785 76.5019C92.3612 76.5019 104.119 76.6774 115.702 76.8529L141.675 77.3793C144.308 77.4671 147.818 77.6426 150.362 77.5548L150.275 74.0449C146.238 73.6939 141.675 73.9572 137.551 73.7817C129.04 73.4307 120.44 73.4307 111.929 73.343L99.8197 72.992C108.244 72.7287 116.58 72.29 125.003 72.1145C133.339 71.939 142.026 71.3248 150.362 71.5003V67.8149C149.046 67.7271 146.852 67.9904 145.536 68.0781C143.957 68.1659 142.29 68.0781 140.71 68.1659C137.551 68.2536 134.48 68.5168 131.409 68.5168C125.267 68.5168 118.598 68.8678 112.455 69.1311C99.9075 69.6576 87.3596 69.7453 74.8117 70.2718C68.4939 70.535 62.176 70.7105 55.8582 70.886C49.7159 70.9738 43.3981 71.4125 37.2557 71.588C30.8502 71.7635 24.6201 71.8512 18.3023 71.3248C15.4066 71.0615 12.1599 70.886 9.17653 70.7983C7.50932 70.7105 2.68321 70.6228 1.016 70.3595L0.314024 70.0086C0.840509 69.5698 1.89348 69.7453 2.68321 69.7453C8.12356 69.3943 13.7394 69.4821 19.1797 69.0433C25.3221 68.5168 32.0786 68.7801 38.3087 68.5168C44.6265 68.2536 51.1199 68.0781 57.4377 67.9026C63.7555 67.7271 69.9856 67.2006 76.3912 67.1129C82.6212 67.0251 88.9391 66.4987 95.1691 66.2354C104.558 65.8844 114.123 65.1824 123.599 65.0947C126.671 65.0947 129.917 64.5682 132.901 64.9192C135.884 65.2702 138.78 65.5334 141.763 65.8844C144.308 66.1477 148.256 67.1129 150.362 67.2006L150.275 60.3563C147.993 60.4441 145.448 60.7073 143.079 60.7951C140.535 60.9706 138.078 60.8828 135.533 61.0583C130.795 61.4093 126.056 60.5318 121.318 60.0931L94.1162 57.3729L150.275 56.9342V53.4243C129.303 53.2488 108.244 53.5998 87.1841 53.5998C81.2173 53.5998 59.8069 53.9508 55.595 53.512C50.7689 52.9855 46.1182 52.5468 41.2921 52.0203C36.5538 51.4938 31.5522 51.1428 26.9015 50.5286C27.779 49.8266 29.6217 50.0899 30.5869 50.0021C31.8154 49.9144 33.0439 49.7389 34.1846 49.7389L57.4377 49.5634C67.8796 49.4756 78.2339 49.5634 88.6758 49.3879C98.9423 49.2124 109.384 48.9491 119.651 48.9491C123.336 48.9491 148.783 48.9491 150.187 48.3349V44.9128C147.203 44.7373 138.692 45.176 134.831 45.176C119.3 45.176 103.856 45.878 88.3248 45.6147C89.2023 45.0883 102.891 44.6495 103.768 44.5618C112.28 43.9475 126.32 42.7191 134.48 42.8068C138.341 42.8068 147.028 43.3333 150.275 43.0701V37.9807C148.783 37.8052 143.167 38.4194 141.237 38.5072C132.55 39.0337 131.584 39.2092 122.634 39.0337L75.2504 38.0684C62.6148 37.8052 49.9791 37.7175 37.3435 37.4542L4.43816 36.7522C3.29744 36.7522 0.840509 37.1032 0.138529 36.4012V40.6131C1.36699 39.9989 37.3435 41.0519 42.0819 41.2274C56.0337 41.6661 70.4243 41.8416 84.3762 41.9293C83.5865 42.5436 84.4639 42.1926 83.06 42.2803L63.8433 43.5965C56.9989 44.0353 50.2424 44.6495 43.3981 45.2637C40.0637 45.527 36.3783 45.9657 32.9561 46.0535C25.5853 46.229 18.2145 46.0535 10.8437 46.0535C8.82554 46.0535 1.1915 46.4922 0.0507812 45.7902V52.81C2.59546 51.4938 15.8453 52.5468 19.0043 53.3365L18.741 53.4243C17.3371 53.7753 15.5821 53.512 14.1781 53.512H4.52591C3.73618 53.512 2.94645 53.512 2.06897 53.512C1.10375 53.512 0.577267 53.6875 0.0507812 53.0733V57.2852C1.71798 56.6709 49.3649 56.8464 55.244 56.9342C59.1926 56.9342 75.4259 58.8646 80.4275 59.3911C82.007 59.5666 103.681 61.5848 104.909 61.9358L105.348 62.1113C105.348 62.0235 105.436 62.199 105.523 62.199C87.9738 62.901 70.3366 63.7785 52.7871 64.305L12.7742 65.3579C10.6682 65.4457 8.3868 65.6212 6.28086 65.7089C5.14014 65.7089 0.840509 66.2354 0.138529 65.6212V78.4323C1.1915 78.1691 17.5125 79.8363 20.2327 80.0118C26.9015 80.5383 33.9213 80.8892 40.5024 81.5035C46.2937 82.2932 79.3746 84.5746 80.3398 85.0134Z" fill="#212121"/>
<path fill-rule="evenodd" clip-rule="evenodd" d="M150.535 12.7873V11.0323L150.36 9.27735L123.07 9.54059C123.772 9.10185 131.055 8.22438 132.196 8.04888C133.775 7.78564 134.477 7.96114 134.653 7.25916H108.504L83.2327 9.89158C78.7576 10.3303 74.2824 10.2426 69.8073 10.3303C48.7479 10.4181 28.0395 10.6813 6.98005 10.5936C5.4006 10.5936 1.18871 10.9446 0.135742 10.3303V14.3667C1.36421 14.0157 10.8409 14.1912 12.6836 14.3667C10.6655 14.63 5.83933 14.8932 3.29465 14.9809C2.24168 15.0687 0.749975 15.4197 0.135742 14.9809V19.1928C0.92547 18.4908 16.0181 17.9644 18.2117 17.7889C24.3541 17.3501 30.5841 17.1746 36.7265 16.6481C49.0111 15.7707 61.208 14.9809 73.4927 14.1035C85.9529 13.226 99.115 13.4015 111.751 13.3137L140.707 12.875C143.779 12.875 147.727 13.1382 150.535 12.7873Z" fill="#212121"/>
<path fill-rule="evenodd" clip-rule="evenodd" d="M0.225443 24.5552L0.137695 28.7671C1.27841 28.1529 97.8007 27.2754 112.718 27.2754C119.036 27.2754 125.178 27.0999 131.496 27.0999C137.638 27.0999 144.219 27.1877 150.362 26.8367V23.3268L112.893 23.7655C87.8853 23.941 62.3507 23.941 37.3427 24.3798L9.26344 24.7307C7.85948 24.7307 0.839676 25.1695 0.225443 24.5552Z" fill="#212121"/>
<path fill-rule="evenodd" clip-rule="evenodd" d="M0.137695 25.8618C0.751928 25.5986 8.03498 25.6863 8.8247 25.6863C55.9451 25.5986 103.241 26.1251 150.449 26.0373V22.7029C112.893 22.7029 75.0741 22.0887 37.6936 22.1764C28.1292 22.1764 18.9157 22.0009 9.26344 22.1764C7.59624 22.2642 1.01517 22.4397 0.137695 21.8254V25.8618Z" fill="#212121"/>
<path fill-rule="evenodd" clip-rule="evenodd" d="M88.2373 34.9096C89.1148 35.3484 117.018 35.0851 120.528 34.9974C123.687 34.9974 131.585 34.0321 135.358 33.5934C137.99 33.3302 148.608 32.1895 150.363 32.1895V28.6795C148.432 28.5918 144.659 29.206 142.641 29.3815C140.096 29.6448 137.551 29.908 134.919 30.0835L89.027 34.5586C88.4128 34.7341 88.5005 34.6464 88.2373 34.9096Z" fill="#212121"/>
</svg>
