<svg width="152" height="29" viewBox="0 0 152 29" fill="none" xmlns="http://www.w3.org/2000/svg">
<path d="M10.8607 8.73688C11.7427 8.98266 12.4366 9.43085 12.9426 10.0814C13.4486 10.7176 13.7017 11.5272 13.7017 12.5103C13.7017 13.8259 13.2029 14.838 12.2053 15.5464C11.2222 16.2548 9.78366 16.609 7.88972 16.609H0.646484V1.42859H7.45599C9.1909 1.42859 10.5282 1.77557 11.468 2.46953C12.4222 3.1635 12.8993 4.12492 12.8993 5.35381C12.8993 6.14898 12.7113 6.83572 12.3354 7.41402C11.974 7.99232 11.4824 8.43328 10.8607 8.73688ZM2.81512 3.18518V8.04292H7.26082C8.37405 8.04292 9.22704 7.84052 9.8198 7.4357C10.427 7.01643 10.7306 6.40922 10.7306 5.61405C10.7306 4.81889 10.427 4.2189 9.8198 3.81409C9.22704 3.39482 8.37405 3.18518 7.26082 3.18518H2.81512ZM7.80297 14.8524C9.03187 14.8524 9.95715 14.65 10.5788 14.2452C11.2005 13.8404 11.5113 13.2043 11.5113 12.3368C11.5113 10.6453 10.2752 9.79951 7.80297 9.79951H2.81512V14.8524H7.80297Z" fill="#212121"/>
<path d="M26.8183 16.7825C24.7943 16.7825 23.2184 16.2042 22.0907 15.0476C20.963 13.891 20.3992 12.2284 20.3992 10.0597V1.42859H22.5678V9.973C22.5678 13.226 23.9919 14.8524 26.84 14.8524C28.2279 14.8524 29.2906 14.4548 30.0279 13.6597C30.7652 12.8501 31.1339 11.6212 31.1339 9.973V1.42859H33.2375V10.0597C33.2375 12.2428 32.6736 13.9127 31.5459 15.0693C30.4183 16.2114 28.8424 16.7825 26.8183 16.7825Z" fill="#212121"/>
<path d="M51.3025 16.609L48.0279 11.9465C47.6231 11.9754 47.305 11.9898 47.0737 11.9898H43.322V16.609H41.1533V1.42859H47.0737C49.0399 1.42859 50.5869 1.89846 51.7146 2.8382C52.8423 3.77794 53.4061 5.07189 53.4061 6.72005C53.4061 7.89112 53.117 8.88869 52.5387 9.71277C51.9604 10.5368 51.1363 11.1368 50.0664 11.5127L53.6663 16.609H51.3025ZM47.0086 10.1465C48.3821 10.1465 49.4303 9.85012 50.1532 9.25736C50.876 8.6646 51.2375 7.81883 51.2375 6.72005C51.2375 5.62128 50.876 4.78274 50.1532 4.20444C49.4303 3.61168 48.3821 3.3153 47.0086 3.3153H43.322V10.1465H47.0086Z" fill="#212121"/>
<path d="M71.3963 14.7223V16.609H60.3796V1.42859H71.0927V3.3153H62.5483V7.97786H70.1602V9.8212H62.5483V14.7223H71.3963Z" fill="#212121"/>
<path d="M88.0497 12.8139H79.9824L78.3125 16.609H76.0788L82.9534 1.42859H85.1003L91.9966 16.609H89.7195L88.0497 12.8139ZM87.2907 11.079L84.016 3.64059L80.7414 11.079H87.2907Z" fill="#212121"/>
<path d="M103.702 16.7825C101.678 16.7825 100.102 16.2042 98.9747 15.0476C97.847 13.891 97.2831 12.2284 97.2831 10.0597V1.42859H99.4518V9.973C99.4518 13.226 100.876 14.8524 103.724 14.8524C105.112 14.8524 106.175 14.4548 106.912 13.6597C107.649 12.8501 108.018 11.6212 108.018 9.973V1.42859H110.121V10.0597C110.121 12.2428 109.558 13.9127 108.43 15.0693C107.302 16.2114 105.726 16.7825 103.702 16.7825Z" fill="#212121"/>
<path d="M5.54256 23.4024L5.54256 28.2026H4.66482L4.66482 24.1567H2.17559L2.17559 28.2026H1.29785L1.29785 23.4024H5.54256Z" fill="#212121"/>
<path d="M11.8882 23.4024C12.3043 23.4024 12.6654 23.471 12.9717 23.6082C13.2826 23.7453 13.5203 23.9419 13.6849 24.1979C13.8494 24.4539 13.9317 24.7579 13.9317 25.1099C13.9317 25.4574 13.8494 25.7614 13.6849 26.0219C13.5203 26.278 13.2826 26.4745 12.9717 26.6117C12.6654 26.7488 12.3043 26.8174 11.8882 26.8174H10.8048V28.2026H9.91332V23.4024H11.8882ZM11.8471 26.0631C12.2357 26.0631 12.5306 25.9808 12.7317 25.8162C12.9328 25.6517 13.0334 25.4162 13.0334 25.1099C13.0334 24.8036 12.9328 24.5682 12.7317 24.4036C12.5306 24.239 12.2357 24.1567 11.8471 24.1567H10.8048V26.0631H11.8471Z" fill="#212121"/>
<path d="M20.0811 28.2712C19.5919 28.2712 19.1508 28.166 18.7576 27.9557C18.3645 27.7409 18.0559 27.446 17.8319 27.0711C17.6079 26.6917 17.4959 26.2688 17.4959 25.8025C17.4959 25.3362 17.6079 24.9156 17.8319 24.5408C18.0559 24.1613 18.3645 23.8665 18.7576 23.6562C19.1508 23.4413 19.5919 23.3339 20.0811 23.3339C20.5702 23.3339 21.0114 23.4413 21.4045 23.6562C21.7977 23.8665 22.1063 24.159 22.3303 24.5339C22.5543 24.9088 22.6663 25.3316 22.6663 25.8025C22.6663 26.2734 22.5543 26.6963 22.3303 27.0711C22.1063 27.446 21.7977 27.7409 21.4045 27.9557C21.0114 28.166 20.5702 28.2712 20.0811 28.2712ZM20.0811 27.4894C20.4011 27.4894 20.6891 27.4186 20.9451 27.2768C21.2011 27.1306 21.4023 26.9294 21.5486 26.6734C21.6948 26.4128 21.768 26.1225 21.768 25.8025C21.768 25.4825 21.6948 25.1945 21.5486 24.9385C21.4023 24.6779 21.2011 24.4768 20.9451 24.335C20.6891 24.1887 20.4011 24.1156 20.0811 24.1156C19.7611 24.1156 19.4731 24.1887 19.217 24.335C18.961 24.4768 18.7599 24.6779 18.6136 24.9385C18.4673 25.1945 18.3942 25.4825 18.3942 25.8025C18.3942 26.1225 18.4673 26.4128 18.6136 26.6734C18.7599 26.9294 18.961 27.1306 19.217 27.2768C19.4731 27.4186 19.7611 27.4894 20.0811 27.4894Z" fill="#212121"/>
<path d="M30.2692 27.4551V28.2026H26.6691V23.4024H30.1732V24.1499H27.5606V25.3979H29.8784V26.1317H27.5606V27.4551H30.2692Z" fill="#212121"/>
<path d="M36.0495 26.1797H35.158V28.2026H34.2803V23.4024L35.158 23.4024V25.4116H36.0769L37.4552 23.4024H38.4015L36.7626 25.7271L38.4633 28.2026H37.4552L36.0495 26.1797Z" fill="#212121"/>
<path d="M45.5223 24.1567H43.9314V28.2026H43.0468V24.1567H41.4627V23.4024H45.5223V24.1567Z" fill="#212121"/>
<path d="M53.5736 23.4024V28.2026H52.6822V26.1454H50.1998V28.2026H49.3083V23.4024H50.1998V25.3842H52.6822V23.4024H53.5736Z" fill="#212121"/>
<path d="M60.1591 28.2712C59.67 28.2712 59.2288 28.166 58.8357 27.9557C58.4425 27.7409 58.1339 27.446 57.9099 27.0711C57.6859 26.6917 57.5739 26.2688 57.5739 25.8025C57.5739 25.3362 57.6859 24.9156 57.9099 24.5408C58.1339 24.1613 58.4425 23.8665 58.8357 23.6562C59.2288 23.4413 59.67 23.3339 60.1591 23.3339C60.6483 23.3339 61.0895 23.4413 61.4826 23.6562C61.8758 23.8665 62.1844 24.159 62.4084 24.5339C62.6324 24.9088 62.7444 25.3316 62.7444 25.8025C62.7444 26.2734 62.6324 26.6963 62.4084 27.0711C62.1844 27.446 61.8758 27.7409 61.4826 27.9557C61.0895 28.166 60.6483 28.2712 60.1591 28.2712ZM60.1591 27.4894C60.4792 27.4894 60.7672 27.4186 61.0232 27.2768C61.2792 27.1306 61.4803 26.9294 61.6266 26.6734C61.7729 26.4128 61.8461 26.1225 61.8461 25.8025C61.8461 25.4825 61.7729 25.1945 61.6266 24.9385C61.4803 24.6779 61.2792 24.4768 61.0232 24.335C60.7672 24.1887 60.4792 24.1156 60.1591 24.1156C59.8391 24.1156 59.5511 24.1887 59.2951 24.335C59.0391 24.4768 58.838 24.6779 58.6917 24.9385C58.5454 25.1945 58.4722 25.4825 58.4722 25.8025C58.4722 26.1225 58.5454 26.4128 58.6917 26.6734C58.838 26.9294 59.0391 27.1306 59.2951 27.2768C59.5511 27.4186 59.8391 27.4894 60.1591 27.4894Z" fill="#212121"/>
<path d="M70.3473 27.4551V28.2026H66.7472V23.4024H70.2513V24.1499H67.6386V25.3979H69.9564V26.1317H67.6386V27.4551H70.3473Z" fill="#212121"/>
<path d="M79.2776 23.4024H83.0148V24.1362H80.1553V25.3156H81.5748C82.1508 25.3156 82.5874 25.4368 82.8845 25.6791C83.1863 25.9168 83.3371 26.262 83.3371 26.7145C83.3371 27.19 83.1726 27.558 82.8434 27.8186C82.5142 28.0746 82.0457 28.2026 81.4376 28.2026H79.2776V23.4024ZM81.3896 27.5169C81.7325 27.5169 81.9931 27.4506 82.1714 27.318C82.3497 27.1854 82.4388 26.9934 82.4388 26.742C82.4388 26.2482 82.0891 26.0014 81.3896 26.0014H80.1553V27.5169H81.3896Z" fill="#212121"/>
<path d="M91.4381 23.3339C91.909 23.3339 92.3318 23.4413 92.7067 23.6562C93.0861 23.8665 93.3833 24.159 93.5982 24.5339C93.813 24.9088 93.9205 25.3316 93.9205 25.8025C93.9205 26.2734 93.813 26.6963 93.5982 27.0711C93.3833 27.446 93.0861 27.7409 92.7067 27.9557C92.3318 28.166 91.909 28.2712 91.4381 28.2712C91.0084 28.2712 90.6152 28.182 90.2586 28.0037C89.9066 27.8254 89.6163 27.5763 89.3877 27.2563C89.1637 26.9363 89.0243 26.5728 88.9694 26.166H88.2151V28.2026H87.3374V23.4024H88.2151V25.3705H88.9832C89.0472 24.9728 89.1912 24.6208 89.4152 24.3145C89.6437 24.0036 89.9318 23.7636 90.2792 23.5944C90.6312 23.4207 91.0175 23.3339 91.4381 23.3339ZM91.4381 27.4894C91.7352 27.4894 92.005 27.4186 92.2473 27.2768C92.4896 27.1351 92.6793 26.9363 92.8164 26.6803C92.9536 26.4242 93.0221 26.1317 93.0221 25.8025C93.0221 25.4734 92.9536 25.1808 92.8164 24.9248C92.6793 24.6688 92.4896 24.4699 92.2473 24.3282C92.005 24.1865 91.7352 24.1156 91.4381 24.1156C91.1409 24.1156 90.8712 24.1865 90.6289 24.3282C90.3912 24.4699 90.2015 24.6688 90.0598 24.9248C89.9226 25.1808 89.854 25.4734 89.854 25.8025C89.854 26.1317 89.9226 26.4242 90.0598 26.6803C90.2015 26.9363 90.3912 27.1351 90.6289 27.2768C90.8712 27.4186 91.1409 27.4894 91.4381 27.4894Z" fill="#212121"/>
<path d="M99.91 23.4024C100.326 23.4024 100.687 23.471 100.993 23.6082C101.304 23.7453 101.542 23.9419 101.707 24.1979C101.871 24.4539 101.953 24.7579 101.953 25.1099C101.953 25.4574 101.871 25.7614 101.707 26.0219C101.542 26.278 101.304 26.4745 100.993 26.6117C100.687 26.7488 100.326 26.8174 99.91 26.8174H98.8265V28.2026H97.9351V23.4024H99.91ZM99.8688 26.0631C100.257 26.0631 100.552 25.9808 100.753 25.8162C100.955 25.6517 101.055 25.4162 101.055 25.1099C101.055 24.8036 100.955 24.5682 100.753 24.4036C100.552 24.239 100.257 24.1567 99.8688 24.1567H98.8265V26.0631H99.8688Z" fill="#212121"/>
<path d="M108.103 28.2712C107.614 28.2712 107.173 28.166 106.779 27.9557C106.386 27.7409 106.078 27.446 105.854 27.0711C105.63 26.6917 105.518 26.2688 105.518 25.8025C105.518 25.3362 105.63 24.9156 105.854 24.5408C106.078 24.1613 106.386 23.8665 106.779 23.6562C107.173 23.4413 107.614 23.3339 108.103 23.3339C108.592 23.3339 109.033 23.4413 109.426 23.6562C109.819 23.8665 110.128 24.159 110.352 24.5339C110.576 24.9088 110.688 25.3316 110.688 25.8025C110.688 26.2734 110.576 26.6963 110.352 27.0711C110.128 27.446 109.819 27.7409 109.426 27.9557C109.033 28.166 108.592 28.2712 108.103 28.2712ZM108.103 27.4894C108.423 27.4894 108.711 27.4186 108.967 27.2768C109.223 27.1306 109.424 26.9294 109.57 26.6734C109.717 26.4128 109.79 26.1225 109.79 25.8025C109.79 25.4825 109.717 25.1945 109.57 24.9385C109.424 24.6779 109.223 24.4768 108.967 24.335C108.711 24.1887 108.423 24.1156 108.103 24.1156C107.783 24.1156 107.495 24.1887 107.239 24.335C106.983 24.4768 106.782 24.6779 106.635 24.9385C106.489 25.1945 106.416 25.4825 106.416 25.8025C106.416 26.1225 106.489 26.4128 106.635 26.6734C106.782 26.9294 106.983 27.1306 107.239 27.2768C107.495 27.4186 107.783 27.4894 108.103 27.4894Z" fill="#212121"/>
<path d="M139.785 25.657V28.2023H120.258V26.1741L131.831 14.8396C133.289 13.4079 134.27 12.175 134.774 11.141C135.304 10.0805 135.569 9.01996 135.569 7.95943C135.569 6.31561 134.999 5.04297 133.859 4.14152C132.746 3.21355 131.142 2.74957 129.047 2.74957C125.786 2.74957 123.254 3.78359 121.451 5.85162L119.423 4.10175C120.51 2.82911 121.889 1.84812 123.559 1.15878C125.256 0.46943 127.165 0.124756 129.286 0.124756C132.123 0.124756 134.363 0.800845 136.007 2.15302C137.677 3.47869 138.512 5.3081 138.512 7.64127C138.512 9.07299 138.194 10.4517 137.558 11.7773C136.922 13.103 135.715 14.6275 133.939 16.3509L124.474 25.657H139.785Z" fill="#212121"/>
<path d="M151.094 0.363375V28.2023H148.231V2.90865H141.669V0.363375H151.094Z" fill="#212121"/>
</svg>
