<svg width="191" height="37" viewBox="0 0 191 37" fill="none" xmlns="http://www.w3.org/2000/svg">
<path d="M24.0833 36.9993H23.207V33.147H24.0833V36.9993Z" fill="#FF6201"/>
<path d="M39.9988 31.7949H8.95607V0.946589H39.9988V31.7949ZM40.9646 0H7.99023V32.7546H40.9646V0Z" fill="#FF6201"/>
<path d="M25.7498 36.9993H24.877V33.147H25.7498V36.9993Z" fill="#FF6201"/>
<path d="M38.8514 18.556C37.3611 21.4716 31.6226 20.2183 31.9346 16.5474C29.515 16.5474 27.0988 16.5474 24.6825 16.5474C23.9855 25.1162 38.0847 25.7593 38.8514 18.556ZM32.1038 16.7123C32.4955 18.9023 35.758 18.4669 35.8145 16.3792C36.996 16.3792 38.1743 16.3792 39.3559 16.3792C39.2828 10.9074 31.3703 12.639 32.1038 16.7123ZM9.49805 16.3792C14.4467 16.3792 19.3953 16.3792 24.3407 16.3792C24.0585 7.29587 38.2639 6.74837 39.5284 15.0368C40.9191 24.2092 32.7245 31.4059 24.6825 31.4652C15.8805 31.5345 10.1851 25.5647 9.49805 16.3792Z" fill="#FF6201"/>
<path d="M41.2793 13.0479L45.5309 16.3494H41.2793V13.0479Z" fill="#FF6201"/>
<path d="M41.2793 19.8777L45.5309 16.5762H41.2793V19.8777Z" fill="#FF6201"/>
<path d="M2.4397 12.2565C-0.0561913 12.2269 -0.252013 15.6735 2.27043 16.2804H7.67046C5.93462 15.6207 4.67008 12.2796 2.4397 12.2565Z" fill="#FF6201"/>
<path d="M7.67046 16.6958H2.27043C-0.252013 17.3027 -0.0561913 20.7493 2.4397 20.7196C4.67008 20.6965 5.93462 17.3554 7.67046 16.6958Z" fill="#FF6201"/>
<path d="M54.4258 8.53943H58.0369V9.8884H55.8032V15.7592H54.4258V8.53943ZM59.1288 8.53943H63.0917V9.8884H60.5029V11.1846H63.0917V12.5105H60.5029V14.4103H63.0917V15.7592H59.1288V8.53943ZM67.8014 8.36133C68.827 8.36133 69.7131 8.73073 70.45 9.46953C71.1901 10.2083 71.5585 11.1087 71.5585 12.1708C71.5585 13.2262 71.1967 14.1167 70.4666 14.8456C69.7364 15.5745 68.8535 15.9373 67.8113 15.9373C66.7194 15.9373 65.8166 15.5646 65.0964 14.8159C64.3729 14.064 64.0144 13.1767 64.0144 12.1444C64.0144 11.4584 64.1837 10.8218 64.5189 10.2413C64.8541 9.66413 65.3155 9.20567 65.9029 8.86596C66.4904 8.52954 67.1243 8.36133 67.8014 8.36133ZM67.7815 9.707C67.111 9.707 66.5501 9.93788 66.0954 10.4029C65.6374 10.868 65.4084 11.4584 65.4084 12.1741C65.4084 12.9722 65.6971 13.6022 66.2713 14.0673C66.7161 14.4301 67.2272 14.6115 67.808 14.6115C68.4586 14.6115 69.0161 14.374 69.4742 13.9056C69.9355 13.434 70.1645 12.8535 70.1645 12.1642C70.1645 11.4781 69.9322 10.8944 69.4675 10.4194C69.0062 9.94447 68.4453 9.707 67.7815 9.707ZM73.5698 8.53943H74.9074L76.6001 13.5758L78.2994 8.53943H79.637L80.8517 15.7592H79.5208L78.7442 11.1978L77.2075 15.7592H75.9861L74.456 11.1978L73.6661 15.7592H72.3152L73.5698 8.53943ZM81.9835 8.53943H85.9497V9.8884H83.3609V11.1846H85.9497V12.5105H83.3609V14.4103H85.9497V15.7592H81.9835V8.53943ZM86.5272 8.53943H90.5432V9.8983H89.2156V15.7592H87.8117V9.8983H86.5272V8.53943ZM91.4726 8.53943H92.9396C93.7361 8.53943 94.307 8.61199 94.6555 8.75711C95.0073 8.90224 95.2861 9.13971 95.4886 9.46623C95.691 9.78946 95.7906 10.1819 95.7906 10.6371C95.7906 11.1417 95.6578 11.5606 95.3923 11.8937C95.1268 12.2268 94.765 12.4577 94.3103 12.5896C94.0415 12.6655 93.5536 12.7018 92.85 12.7018V15.7592H91.4726V8.53943ZM92.85 11.366H93.2914C93.6399 11.366 93.8822 11.3396 94.0182 11.2901C94.1543 11.2407 94.2605 11.1615 94.3402 11.0461C94.4165 10.9339 94.4564 10.7954 94.4564 10.6338C94.4564 10.3535 94.3468 10.149 94.1278 10.0203C93.9685 9.92468 93.6731 9.87851 93.2416 9.87851H92.85V11.366ZM102.439 8.53943V15.7592H101.061V11.2407L98.3263 15.7592H97.1381V8.53943H98.5122V13.2064L101.29 8.53943H102.439ZM108.376 8.53943V15.7592H106.999V12.8436H106.654L105.187 15.7592H103.677L105.323 12.616C104.37 12.3456 103.892 11.7156 103.892 10.7295C103.892 10.3765 103.945 10.0698 104.045 9.80925C104.145 9.54869 104.287 9.32771 104.473 9.1463C104.659 8.9649 104.875 8.82968 105.12 8.74392C105.363 8.65817 105.558 8.60869 105.704 8.5955C105.847 8.58231 106.252 8.56252 106.913 8.53943H108.376ZM106.999 11.5144V9.8884H106.621C106.275 9.8884 106.026 9.90819 105.874 9.95107C105.724 9.99065 105.598 10.0797 105.505 10.2149C105.409 10.3502 105.359 10.5184 105.359 10.7163C105.359 11.0131 105.456 11.2209 105.648 11.3396C105.837 11.4584 106.146 11.5144 106.564 11.5144H106.999ZM112.854 8.53943H118.081V15.7592H116.687V9.82574H114.258V15.7592H112.854V8.53943ZM119.734 8.53943H121.201C121.994 8.53943 122.565 8.61199 122.917 8.75711C123.269 8.90224 123.547 9.13971 123.747 9.46623C123.952 9.78946 124.052 10.1819 124.052 10.6371C124.052 11.1417 123.919 11.5606 123.654 11.8937C123.388 12.2268 123.026 12.4577 122.568 12.5896C122.303 12.6655 121.815 12.7018 121.108 12.7018V15.7592H119.734V8.53943ZM121.108 11.366H121.553C121.901 11.366 122.14 11.3396 122.28 11.2901C122.416 11.2407 122.522 11.1615 122.602 11.0461C122.678 10.9339 122.718 10.7954 122.718 10.6338C122.718 10.3535 122.608 10.149 122.389 10.0203C122.23 9.92468 121.931 9.87851 121.5 9.87851H121.108V11.366ZM128.831 8.36133C129.857 8.36133 130.74 8.73073 131.48 9.46953C132.22 10.2083 132.588 11.1087 132.588 12.1708C132.588 13.2262 132.223 14.1167 131.493 14.8456C130.766 15.5745 129.88 15.9373 128.841 15.9373C127.749 15.9373 126.847 15.5646 126.126 14.8159C125.403 14.064 125.044 13.1767 125.044 12.1444C125.044 11.4584 125.21 10.8218 125.546 10.2413C125.884 9.66413 126.345 9.20567 126.93 8.86596C127.52 8.52954 128.154 8.36133 128.831 8.36133ZM128.811 9.707C128.141 9.707 127.577 9.93788 127.122 10.4029C126.667 10.868 126.438 11.4584 126.438 12.1741C126.438 12.9722 126.724 13.6022 127.301 14.0673C127.746 14.4301 128.257 14.6115 128.835 14.6115C129.489 14.6115 130.046 14.374 130.504 13.9056C130.965 13.434 131.191 12.8535 131.191 12.1642C131.191 11.4781 130.962 10.8944 130.497 10.4194C130.036 9.94447 129.472 9.707 128.811 9.707ZM140.577 9.80595L139.608 10.7229C138.951 10.0302 138.208 9.68721 137.384 9.68721C136.691 9.68721 136.103 9.92139 135.629 10.393C135.151 10.8647 134.912 11.4452 134.912 12.1345C134.912 12.616 135.018 13.0415 135.23 13.4142C135.443 13.7869 135.738 14.0804 136.123 14.2948C136.512 14.5059 136.94 14.6115 137.411 14.6115C137.813 14.6115 138.178 14.5389 138.51 14.3905C138.845 14.2388 139.21 13.9683 139.608 13.5758L140.547 14.5521C140.01 15.0732 139.505 15.436 139.027 15.6339C138.549 15.8384 138.005 15.9373 137.391 15.9373C136.263 15.9373 135.337 15.5844 134.616 14.872C133.896 14.1596 133.538 13.2493 133.538 12.1378C133.538 11.4188 133.7 10.7789 134.029 10.2182C134.357 9.66083 134.825 9.21227 135.439 8.86925C136.047 8.52954 136.704 8.36133 137.411 8.36133C138.012 8.36133 138.586 8.48666 139.144 8.73733C139.698 8.98799 140.176 9.3442 140.577 9.80595ZM141.082 8.53943H145.098V9.8983H143.774V15.7592H142.366V9.8983H141.082V8.53943ZM146.027 8.53943H147.497C148.291 8.53943 148.862 8.61199 149.213 8.75711C149.565 8.90224 149.841 9.13971 150.043 9.46623C150.246 9.78946 150.348 10.1819 150.348 10.6371C150.348 11.1417 150.216 11.5606 149.947 11.8937C149.685 12.2268 149.323 12.4577 148.865 12.5896C148.596 12.6655 148.111 12.7018 147.405 12.7018V15.7592H146.027V8.53943ZM147.405 11.366H147.846C148.198 11.366 148.437 11.3396 148.573 11.2901C148.712 11.2407 148.818 11.1615 148.895 11.0461C148.974 10.9339 149.011 10.7954 149.011 10.6338C149.011 10.3535 148.901 10.149 148.682 10.0203C148.526 9.92468 148.228 9.87851 147.796 9.87851H147.405V11.366ZM153.923 8.53943H155.317L158.112 15.7592H156.671L156.107 14.2684H153.13L152.549 15.7592H151.112L153.923 8.53943ZM154.62 10.459L153.638 12.9426H155.599L154.62 10.459ZM159.174 8.53943H160.581V11.2638H163.007V8.53943H164.404V15.7592H163.007V12.5929H160.581V15.7592H159.174V8.53943ZM172.742 9.80595L171.773 10.7229C171.112 10.0302 170.372 9.68721 169.549 9.68721C168.852 9.68721 168.268 9.92139 167.79 10.393C167.315 10.8647 167.076 11.4452 167.076 12.1345C167.076 12.616 167.182 13.0415 167.395 13.4142C167.604 13.7869 167.903 14.0804 168.288 14.2948C168.673 14.5059 169.101 14.6115 169.572 14.6115C169.974 14.6115 170.342 14.5389 170.674 14.3905C171.009 14.2388 171.374 13.9683 171.773 13.5758L172.712 14.5521C172.174 15.0732 171.666 15.436 171.189 15.6339C170.714 15.8384 170.166 15.9373 169.556 15.9373C168.424 15.9373 167.501 15.5844 166.781 14.872C166.061 14.1596 165.702 13.2493 165.702 12.1378C165.702 11.4188 165.865 10.7789 166.193 10.2182C166.519 9.66083 166.99 9.21227 167.601 8.86925C168.211 8.52954 168.869 8.36133 169.576 8.36133C170.173 8.36133 170.75 8.48666 171.305 8.73733C171.862 8.98799 172.34 9.3442 172.742 9.80595ZM173.246 8.53943H177.259V9.8983H175.935V15.7592H174.531V9.8983H173.246V8.53943ZM178.192 15.7592V8.53943H179.337C180.004 8.53943 180.488 8.58231 180.797 8.66806C181.235 8.7835 181.58 8.99788 181.839 9.30462C182.098 9.61795 182.228 9.98405 182.228 10.4062C182.228 10.68 182.168 10.9306 182.052 11.1549C181.935 11.3792 181.746 11.5903 181.481 11.7882C181.922 11.9927 182.244 12.2499 182.447 12.56C182.652 12.8667 182.752 13.2328 182.752 13.655C182.752 14.0607 182.646 14.4301 182.437 14.7632C182.224 15.0963 181.952 15.347 181.617 15.5086C181.282 15.6768 180.824 15.7592 180.236 15.7592H178.192ZM179.566 9.84883V11.3759H179.874C180.22 11.3759 180.475 11.3033 180.641 11.1615C180.81 11.023 180.893 10.8284 180.893 10.5876C180.893 10.36 180.814 10.1819 180.654 10.0467C180.495 9.91479 180.256 9.84883 179.931 9.84883H179.566ZM179.566 12.6028V14.4498H179.918C180.498 14.4498 180.893 14.3773 181.096 14.2355C181.298 14.0903 181.398 13.8825 181.398 13.6055C181.398 13.2955 181.278 13.0514 181.043 12.87C180.804 12.6919 180.409 12.6028 179.858 12.6028H179.566ZM186.29 8.53943H187.681L190.475 15.7592H189.038L188.471 14.2684H185.493L184.913 15.7592H183.476L186.29 8.53943ZM186.987 10.459L186.001 12.9426H187.966L186.987 10.459Z" fill="#FF6201"/>
<path d="M54.3496 21.4882H55.0267V22.4513C55.2922 22.0852 55.6009 21.8114 55.9494 21.63C56.2979 21.4519 56.6895 21.3596 57.1177 21.3596C57.8678 21.3596 58.5083 21.6267 59.0394 22.161C59.5737 22.6954 59.8393 23.3418 59.8393 24.0938C59.8393 24.8623 59.577 25.5153 59.0493 26.0496C58.5216 26.5873 57.8844 26.8544 57.1376 26.8544C56.7161 26.8544 56.3344 26.7687 55.9792 26.5971C55.6274 26.4223 55.3088 26.1618 55.0267 25.8188V28.642H54.3496V21.4882ZM57.0679 22.0093C56.4804 22.0093 55.9892 22.2138 55.5876 22.6195C55.186 23.0252 54.9869 23.5298 54.9869 24.1334C54.9869 24.5292 55.0765 24.8854 55.2524 25.202C55.4316 25.5186 55.6872 25.7693 56.0224 25.9573C56.3543 26.142 56.7094 26.2343 57.0778 26.2343C57.4429 26.2343 57.7848 26.1387 58.1067 25.954C58.4254 25.766 58.6809 25.5054 58.8701 25.169C59.0626 24.8326 59.1555 24.483 59.1555 24.1169C59.1555 23.7442 59.0626 23.3913 58.8734 23.0615C58.6842 22.7283 58.432 22.4711 58.11 22.2864C57.7947 22.1017 57.4429 22.0093 57.0679 22.0093ZM66.9154 21.4882V26.7258H66.2383V25.8254C65.9562 26.1684 65.6376 26.4289 65.2824 26.5971C64.9306 26.7687 64.5423 26.8544 64.1241 26.8544C63.3806 26.8544 62.7434 26.5873 62.2157 26.0496C61.6879 25.5153 61.4257 24.8623 61.4257 24.0938C61.4257 23.3418 61.6913 22.6954 62.2223 22.161C62.7567 21.6267 63.3972 21.3596 64.144 21.3596C64.5755 21.3596 64.9671 21.4519 65.3189 21.63C65.6674 21.8114 65.9761 22.0852 66.2383 22.4513V21.4882H66.9154ZM64.1971 22.0093C63.8221 22.0093 63.4702 22.1017 63.1549 22.2864C62.833 22.4711 62.5808 22.7283 62.3916 23.0615C62.2024 23.3913 62.1095 23.7442 62.1095 24.1169C62.1095 24.483 62.2024 24.8326 62.3949 25.169C62.5841 25.5054 62.8396 25.766 63.1616 25.954C63.4802 26.1387 63.8254 26.2343 64.1938 26.2343C64.5622 26.2343 64.914 26.142 65.2459 25.9573C65.5778 25.7693 65.8334 25.5186 66.0126 25.202C66.1918 24.8854 66.2781 24.5292 66.2781 24.1334C66.2781 23.5298 66.079 23.0252 65.6774 22.6195C65.2758 22.2138 64.7846 22.0093 64.1971 22.0093ZM74.0479 19.3477V19.9875C73.7227 20.0436 73.1717 20.0832 72.3818 20.1062C71.8142 20.126 71.3728 20.1656 71.0641 20.2184C70.7555 20.2778 70.4833 20.3833 70.2543 20.5449C70.0253 20.7065 69.8328 20.9473 69.6735 21.2705C69.5175 21.5937 69.4212 21.9565 69.3814 22.3589L69.3117 23.0977C69.4976 22.4975 69.7996 22.0588 70.2244 21.7784C70.6459 21.4981 71.1172 21.3596 71.6317 21.3596C72.415 21.3596 73.0721 21.6333 73.5965 22.1775C74.1243 22.7217 74.3865 23.3682 74.3865 24.1235C74.3865 24.8689 74.1243 25.5087 73.5999 26.0463C73.0721 26.5873 72.415 26.8544 71.6284 26.8544C70.8219 26.8544 70.1381 26.5543 69.5772 25.9573C69.0163 25.3636 68.7375 24.4203 68.7375 23.1373C68.7375 22.2435 68.8404 21.5641 69.0462 21.1023C69.252 20.6439 69.4876 20.3107 69.7531 20.1095C70.0187 19.9084 70.3638 19.7467 70.782 19.6313C71.2035 19.5159 71.9935 19.4466 73.1518 19.4169C73.5069 19.407 73.8056 19.3839 74.0479 19.3477ZM73.6895 24.1367C73.6895 23.5562 73.487 23.0615 73.0788 22.6426C72.6705 22.227 72.1893 22.0192 71.6284 22.0192C71.0708 22.0192 70.5895 22.2303 70.1846 22.6459C69.773 23.0648 69.5706 23.5628 69.5706 24.14C69.5706 24.7139 69.7664 25.2053 70.1614 25.6077C70.553 26.0101 71.0442 26.2146 71.6284 26.2146C72.2158 26.2146 72.7071 26.0101 73.102 25.6077C73.4937 25.202 73.6895 24.7139 73.6895 24.1367ZM78.6879 21.3596C79.5011 21.3596 80.1748 21.6498 80.7092 22.2336C81.1971 22.7646 81.4394 23.3946 81.4394 24.1235C81.4394 24.8524 81.1838 25.4889 80.6694 26.0364C80.1549 26.5807 79.4911 26.8544 78.6879 26.8544C77.8748 26.8544 77.2143 26.5807 76.6998 26.0364C76.1854 25.4889 75.9298 24.8524 75.9298 24.1235C75.9298 23.3979 76.1721 22.7712 76.6567 22.2402C77.1944 21.6531 77.8681 21.3596 78.6879 21.3596ZM78.6846 22.0192C78.1204 22.0192 77.6358 22.227 77.2309 22.6393C76.8259 23.0516 76.6235 23.5529 76.6235 24.1367C76.6235 24.5127 76.7164 24.8656 76.899 25.1921C77.0848 25.5186 77.3338 25.7693 77.6491 25.9474C77.961 26.1255 78.3062 26.2146 78.6846 26.2146C79.0596 26.2146 79.4048 26.1255 79.7168 25.9474C80.0321 25.7693 80.281 25.5186 80.4669 25.1921C80.6494 24.8656 80.7424 24.5127 80.7424 24.1367C80.7424 23.5529 80.5399 23.0516 80.1317 22.6393C79.7268 22.227 79.2455 22.0192 78.6846 22.0192ZM82.6541 21.4882H86.1159V22.0687H84.7185V26.7258H84.0415V22.0687H82.6541V21.4882ZM92.8402 21.4882V26.7258H92.1664V25.8254C91.881 26.1684 91.5623 26.4289 91.2105 26.5971C90.8554 26.7687 90.4704 26.8544 90.0522 26.8544C89.3054 26.8544 88.6682 26.5873 88.1404 26.0496C87.6127 25.5153 87.3505 24.8623 87.3505 24.0938C87.3505 23.3418 87.616 22.6954 88.1504 22.161C88.6814 21.6267 89.322 21.3596 90.0721 21.3596C90.5036 21.3596 90.8919 21.4519 91.2437 21.63C91.5922 21.8114 91.9009 22.0852 92.1664 22.4513V21.4882H92.8402ZM90.1252 22.0093C89.7468 22.0093 89.3983 22.1017 89.0797 22.2864C88.7611 22.4711 88.5055 22.7283 88.3197 23.0615C88.1305 23.3913 88.0342 23.7442 88.0342 24.1169C88.0342 24.483 88.1305 24.8326 88.3197 25.169C88.5089 25.5054 88.7644 25.766 89.0864 25.954C89.4083 26.1387 89.7502 26.2343 90.1186 26.2343C90.487 26.2343 90.8421 26.142 91.1707 25.9573C91.5026 25.7693 91.7582 25.5186 91.9374 25.202C92.1166 24.8854 92.2062 24.5292 92.2062 24.1334C92.2062 23.5298 92.0071 23.0252 91.6022 22.6195C91.2039 22.2138 90.7094 22.0093 90.1252 22.0093ZM98.894 21.4882V25.3702L102.774 21.4882H102.827V26.7258H102.15V22.8768L98.3033 26.7258H98.2203V21.4882H98.894ZM108.639 24.1993H105.562V26.7258H104.885V21.4882H105.562V23.5694H108.639V21.4882H109.316V26.7258H108.639V24.1993ZM114.085 21.4882H114.759V23.797L117.281 21.4882H118.111L115.625 23.8134L118.297 26.7258H117.427L115.147 24.1927L114.759 24.516V26.7258H114.085V24.516L113.707 24.1927L111.437 26.7258H110.567L113.216 23.82L110.766 21.4882H111.596L114.085 23.7904V21.4882ZM124.009 24.9909L124.583 25.2911C124.394 25.6539 124.178 25.9474 123.933 26.1717C123.684 26.3927 123.408 26.5642 123.1 26.6796C122.791 26.7983 122.442 26.8544 122.054 26.8544C121.191 26.8544 120.517 26.5774 120.029 26.0167C119.545 25.456 119.303 24.826 119.303 24.1235C119.303 23.4605 119.508 22.8669 119.92 22.349C120.441 21.6894 121.141 21.3596 122.018 21.3596C122.917 21.3596 123.641 21.6993 124.178 22.3754C124.56 22.8504 124.756 23.4473 124.762 24.1598H119.996C120.01 24.7699 120.205 25.2647 120.584 25.6506C120.965 26.0397 121.437 26.2343 121.994 26.2343C122.263 26.2343 122.525 26.1882 122.781 26.0958C123.037 26.0035 123.252 25.8814 123.431 25.7297C123.611 25.5747 123.803 25.3306 124.009 24.9909ZM124.016 23.5793C123.926 23.2198 123.793 22.9328 123.621 22.7184C123.445 22.5041 123.216 22.3292 122.93 22.1973C122.642 22.0654 122.34 21.9994 122.028 21.9994C121.506 21.9994 121.058 22.1643 120.683 22.4942C120.411 22.7382 120.205 23.0977 120.063 23.5793H124.016ZM130.315 24.1993H127.235V26.7258H126.561V21.4882H127.235V23.5694H130.315V21.4882H130.989V26.7258H130.315V24.1993ZM137.501 24.9909L138.072 25.2911C137.882 25.6539 137.667 25.9474 137.421 26.1717C137.175 26.3927 136.9 26.5642 136.591 26.6796C136.283 26.7983 135.934 26.8544 135.546 26.8544C134.683 26.8544 134.006 26.5774 133.521 26.0167C133.033 25.456 132.791 24.826 132.791 24.1235C132.791 23.4605 132.997 22.8669 133.408 22.349C133.933 21.6894 134.633 21.3596 135.506 21.3596C136.409 21.3596 137.129 21.6993 137.667 22.3754C138.048 22.8504 138.244 23.4473 138.251 24.1598H133.485C133.498 24.7699 133.697 25.2647 134.076 25.6506C134.457 26.0397 134.925 26.2343 135.483 26.2343C135.752 26.2343 136.017 26.1882 136.273 26.0958C136.525 26.0035 136.744 25.8814 136.92 25.7297C137.099 25.5747 137.292 25.3306 137.501 24.9909ZM137.507 23.5793C137.418 23.2198 137.285 22.9328 137.109 22.7184C136.933 22.5041 136.704 22.3292 136.419 22.1973C136.133 22.0654 135.831 21.9994 135.516 21.9994C134.995 21.9994 134.547 22.1643 134.175 22.4942C133.9 22.7382 133.694 23.0977 133.554 23.5793H137.507ZM140.06 21.4882H140.737V22.4513C141.002 22.0852 141.311 21.8114 141.659 21.63C142.011 21.4519 142.4 21.3596 142.828 21.3596C143.578 21.3596 144.218 21.6267 144.753 22.161C145.284 22.6954 145.549 23.3418 145.549 24.0938C145.549 24.8623 145.287 25.5153 144.759 26.0496C144.232 26.5873 143.594 26.8544 142.848 26.8544C142.429 26.8544 142.044 26.7687 141.689 26.5971C141.338 26.4223 141.019 26.1618 140.737 25.8188V28.642H140.06V21.4882ZM142.778 22.0093C142.191 22.0093 141.699 22.2138 141.298 22.6195C140.896 23.0252 140.697 23.5298 140.697 24.1334C140.697 24.5292 140.787 24.8854 140.962 25.202C141.142 25.5186 141.401 25.7693 141.732 25.9573C142.068 26.142 142.42 26.2343 142.788 26.2343C143.153 26.2343 143.495 26.1387 143.817 25.954C144.135 25.766 144.391 25.5054 144.58 25.169C144.773 24.8326 144.866 24.483 144.866 24.1169C144.866 23.7442 144.773 23.3913 144.584 23.0615C144.394 22.7283 144.142 22.4711 143.82 22.2864C143.505 22.1017 143.156 22.0093 142.778 22.0093ZM149.874 21.3596C150.687 21.3596 151.361 21.6498 151.895 22.2336C152.383 22.7646 152.625 23.3946 152.625 24.1235C152.625 24.8524 152.37 25.4889 151.855 26.0364C151.341 26.5807 150.677 26.8544 149.874 26.8544C149.061 26.8544 148.4 26.5807 147.886 26.0364C147.371 25.4889 147.116 24.8524 147.116 24.1235C147.116 23.3979 147.358 22.7712 147.846 22.2402C148.38 21.6531 149.054 21.3596 149.874 21.3596ZM149.871 22.0192C149.306 22.0192 148.822 22.227 148.417 22.6393C148.012 23.0516 147.81 23.5529 147.81 24.1367C147.81 24.5127 147.903 24.8656 148.085 25.1921C148.271 25.5186 148.52 25.7693 148.835 25.9474C149.147 26.1255 149.496 26.2146 149.871 26.2146C150.246 26.2146 150.591 26.1255 150.903 25.9474C151.218 25.7693 151.47 25.5186 151.653 25.1921C151.839 24.8656 151.932 24.5127 151.932 24.1367C151.932 23.5529 151.726 23.0516 151.318 22.6393C150.913 22.227 150.432 22.0192 149.871 22.0192ZM155.958 26.7258H154.424V21.4882H155.935C156.512 21.4882 156.927 21.6201 157.182 21.8807C157.435 22.1445 157.561 22.4513 157.561 22.8042C157.561 23.3352 157.325 23.6914 156.851 23.8827C157.538 24.1235 157.879 24.5885 157.879 25.2779C157.879 26.2442 157.239 26.7258 155.958 26.7258ZM155.098 22.0687V23.698H155.543C155.948 23.698 156.21 23.6815 156.333 23.6518C156.459 23.6156 156.575 23.5397 156.685 23.4144C156.791 23.2857 156.847 23.1208 156.847 22.913C156.847 22.6954 156.791 22.5139 156.675 22.3688C156.562 22.2204 156.442 22.1347 156.316 22.1083C156.19 22.0852 155.935 22.0687 155.543 22.0687H155.098ZM155.098 24.3181V26.1552H155.828C156.174 26.1552 156.419 26.1321 156.568 26.0892C156.715 26.0463 156.841 25.954 156.947 25.8089C157.053 25.6638 157.106 25.479 157.106 25.2581C157.106 24.9711 157.013 24.7468 156.831 24.5753C156.651 24.4038 156.409 24.3181 156.114 24.3181H155.098Z" fill="#FF6201"/>
</svg>
