<svg width="152" height="77" viewBox="0 0 152 77" fill="none" xmlns="http://www.w3.org/2000/svg">
<path fill-rule="evenodd" clip-rule="evenodd" d="M52.2 37.4C52.2 35.4 50.6 29.4 48.1 29.4C46 29.4 45.5 30.9 45.5 32.5C45.5 34.1 48.8 33.4 48.8 39.3C48.8 40.8 47.9 41.6 46.5 41.6C44.3 41.6 43.5 40 43.5 38C43.5 36.4 44.5 35.2 44.5 33.9C44.5 33.4 44.2 33 43.6 33C42 33 40 38 40 39.4C40 43.2 42.8 46.2 46.6 46.2C50.8 46.1 52.2 40.9 52.2 37.4Z" fill="black"/>
<path fill-rule="evenodd" clip-rule="evenodd" d="M69.0996 75.3C69.0996 71.3 68.3996 68.4 68.4996 65.1C68.6996 60 69.2996 38.7 69.2996 37.8C69.2996 35.3 69.4996 33.1 68.5996 30.8C68.0996 29.5 66.6996 26.1 64.9996 28.3C64.2996 29.2 65.0996 31.6 64.9996 32.8C64.7996 37.1 64.0996 37.7 61.7996 40.2C59.8996 42.2 58.4996 38.7 59.2996 36.5C59.7996 35.1 60.3996 33.6 62.0996 32.8C63.6996 32.1 64.7996 31.5 63.0996 31.6C58.3996 31.8 55.6996 35.9 55.7996 40.6C55.8996 43.2 57.5996 46.1 60.2996 45.9C62.6996 45.8 63.8996 43.7 65.0996 41.7C65.5996 40.9 65.5996 40.1 65.8996 39.5C65.8996 41.3 66.0996 45.2 65.9996 47C65.8996 52.3 65.0996 64.7 65.1996 70.3C65.1996 72.5 64.6996 74.3 66.2996 76.2C66.7996 76.8 67.4996 76.9 68.1996 76.7C68.6996 76.4 69.0996 76.1 69.0996 75.3Z" fill="black"/>
<path fill-rule="evenodd" clip-rule="evenodd" d="M89.4998 44.6C89.4998 40.4 87.5998 36.2 87.5998 31.9C87.5998 30.9 87.4998 29.8 86.2998 29.8C82.3998 29.8 85.3998 40.5 81.8998 41.3C81.5998 41.4 80.7998 40.1 80.6998 39.6C79.7998 37 77.9998 29.8 74.6998 29.8C73.0998 29.8 72.2998 30.7 72.2998 32.4C72.2998 33.6 74.9998 35.3 75.5998 37.7C76.1998 40.3 76.2998 45.9 79.9998 45.9C82.1998 45.9 84.2998 43 84.9998 40.7C85.4998 41.8 85.9998 46 87.4998 46C88.1998 46 89.4998 45.4 89.4998 44.6Z" fill="black"/>
<path fill-rule="evenodd" clip-rule="evenodd" d="M105.7 76.9C107.6 76.8 108.1 74.6 108.1 73.9C108.3 69.6 108.2 35.8 108.3 31.4C108.3 30.3 108.2 29.1 106.7 29.1C102.7 29.1 102.9 37.9 100 39.6C99.7 37.7 99.5 35.2 99 33C98.5 30.6 97.8 28.7 96.9 28.7C95.6 28.7 93.1 30.8 93 32.1C93 33 93.2 34.3 94.6 34.2L95.3 34.1C96 35 96.5 36.5 96.8 38.2C97.2 40.1 97.3 42.2 97.7 44.2C97.9 45.4 98.5 45.8 99.8 45.8C102 45.8 103.8 42.6 104.9 41.1C104.9 41.8 104.9 43 104.9 44.6C105.1 53.7 105.4 62.5 105.2 72.2C105.2 73.1 104.9 74.2 104.7 75.1C104.5 76.2 104.6 77 105.7 76.9Z" fill="black"/>
<path fill-rule="evenodd" clip-rule="evenodd" d="M120.5 37.8C121 41.1 121.8 45.9 124.8 45.9C127 45.9 129.1 43 129.8 40.7C130.3 41.8 130.8 46 132.3 46C133 46 134.3 45.4 134.3 44.6C134.3 40.4 132.4 36.2 132.4 31.9C132.4 30.9 132.3 29.8 131.1 29.8C127.2 29.8 130.2 40.5 126.7 41.3C126.4 41.4 125.6 40.1 125.5 39.6C124.6 37 122.8 29.8 119.5 29.8C117.9 29.8 117.1 30.7 117.1 32.4C117.1 33.1 118.8 33.4 118.9 34.9C118.7 37.8 118.6 41 116.8 41.4C116.5 41.5 115.7 40.2 115.6 39.7C115.6 39.7 114.4 37.9 112.7 38.7C111 39.5 111.3 41.6 111.3 41.6C111.8 43.9 112.6 46.1 115 46.1C117.2 46.1 119.3 43.2 120 40.9L120.5 37.8Z" fill="black"/>
<path fill-rule="evenodd" clip-rule="evenodd" d="M35.4999 3.60001C35.4999 16.9 35.7999 33.4 36.0999 39.9C36.0999 40.3 36.7999 45.2 35.5999 46.6C35.1999 47.1 34.4999 48.3 33.7999 48.2C31.7999 47.9 31.3999 46.1 31.3999 44.5L31.4999 4.30001L26.9999 4.90001C27.0999 6.20001 26.5999 33.2 26.4999 34.7C26.2999 42 25.9999 44.4 25.9999 44.4C25.9999 45.8 25.6999 48.1 24.6999 48.1C22.8999 48.1 22.8999 42.8 22.8999 41.7C22.7999 38.2 22.5999 29.9 22.3999 22.2C17.7999 20.5 13.5999 17.7 12.6999 12.5C11.2999 4.60001 18.6999 2.90001 24.7999 1.80001L26.3999 1.50001L30.4999 1.10001C38.2999 0.600013 45.1999 0.800012 51.3999 4.80001C46.0999 3.20001 40.8999 3.00001 35.4999 3.60001ZM22.1999 19.8C21.9999 12.4 21.8999 6.00001 21.8999 6.00001L21.5999 6.10001C18.7999 7.20001 16.5999 9.40001 17.1999 12.8C17.7999 15.9 19.5999 18.2 21.9999 19.7L22.1999 19.8Z" fill="black"/>
<path fill-rule="evenodd" clip-rule="evenodd" d="M125.2 22.2H126.3V18.8H129.9V22.2H131V14.6H129.9V17.8H126.3V14.6H125.2V22.2Z" fill="black"/>
<path d="M131 22.4H129.9C129.8 22.4 129.7 22.3 129.7 22.2V19H126.5V22.2C126.5 22.3 126.4 22.4 126.3 22.4H125.2C125.1 22.4 125 22.3 125 22.2V14.7C125 14.6 125.1 14.5 125.2 14.5H126.3C126.4 14.5 126.5 14.6 126.5 14.7V17.6H129.7V14.7C129.7 14.6 129.8 14.5 129.9 14.5H131C131.1 14.5 131.2 14.6 131.2 14.7V22.2C131.2 22.3 131.1 22.4 131 22.4ZM130.2 22H130.8V14.9H130.2V17.8C130.2 17.9 130.1 18 130 18H126.4C126.3 18 126.2 17.9 126.2 17.8V14.9H125.6V22H126.2V18.8C126.2 18.7 126.3 18.6 126.4 18.6H130C130.1 18.6 130.2 18.7 130.2 18.8V22Z" fill="black"/>
<path fill-rule="evenodd" clip-rule="evenodd" d="M110.001 18.4C110.001 16.9 110.801 15.4 112.501 15.4C114.201 15.4 115.001 16.8 115.001 18.4C115.001 19.9 114.301 21.4 112.501 21.4C110.701 21.4 110.001 19.9 110.001 18.4ZM108.801 18.4C108.801 20.7 110.101 22.3 112.401 22.3C114.701 22.3 116.001 20.7 116.001 18.4C116.001 16.2 114.701 14.5 112.401 14.5C110.201 14.5 108.801 16.2 108.801 18.4Z" fill="black"/>
<path d="M112.501 22.5C110.201 22.5 108.601 20.9 108.601 18.4C108.601 15.9 110.101 14.3 112.501 14.3C114.801 14.3 116.401 16 116.401 18.4C116.301 20.9 114.801 22.5 112.501 22.5ZM112.501 14.7C110.401 14.7 109.101 16.1 109.101 18.4C109.101 20.7 110.401 22.1 112.501 22.1C114.601 22.1 115.901 20.7 115.901 18.4C115.901 16.2 114.501 14.7 112.501 14.7Z" fill="black"/>
<path d="M112.501 21.6C110.501 21.6 109.801 19.9 109.801 18.4C109.801 17.4 110.101 16.5 110.701 15.9C111.201 15.4 111.801 15.2 112.501 15.2C113.201 15.2 113.801 15.4 114.301 15.9C114.901 16.5 115.201 17.4 115.201 18.4C115.201 19.9 114.501 21.6 112.501 21.6ZM112.401 15.7C111.801 15.7 111.301 15.9 110.901 16.3C110.401 16.8 110.101 17.6 110.101 18.5C110.101 19.8 110.701 21.2 112.401 21.2C114.101 21.2 114.701 19.8 114.701 18.5C114.701 17.6 114.401 16.8 113.901 16.3C113.601 15.9 113.101 15.7 112.401 15.7C112.501 15.7 112.501 15.7 112.401 15.7Z" fill="black"/>
<path fill-rule="evenodd" clip-rule="evenodd" d="M96.3006 15.6H98.7006V22.2H99.8006V14.7H95.3006V19.9C95.3006 20.8 95.1006 21.4 94.1006 21.4L94.3006 22.4C95.9006 22.4 96.3006 21.1 96.3006 20.1V15.6Z" fill="black"/>
<path d="M99.8 22.4H98.7C98.6 22.4 98.5 22.3 98.5 22.2V15.8H96.3C96.2 15.8 96.1 15.7 96.1 15.6C96.1 15.5 96.2 15.4 96.3 15.4H98.7C98.8 15.4 98.9 15.5 98.9 15.6V22H99.5V14.9H95.4V19.9C95.4 20 95.3 20.1 95.2 20.1C95.1 20.1 95 20 95 19.9V14.7C95 14.6 95.1 14.5 95.2 14.5H99.7C99.8 14.5 99.9 14.6 99.9 14.7V22.2C100 22.3 99.9 22.4 99.8 22.4Z" fill="black"/>
<path d="M94.1004 21.5C94.0004 21.5 93.9004 21.4 93.9004 21.3C93.9004 21.2 94.0004 21.1 94.1004 21.1C94.8004 21.1 95.0004 20.8 95.0004 19.8C95.0004 19.7 95.1004 19.6 95.2004 19.6C95.3004 19.6 95.4004 19.7 95.4004 19.8C95.5004 20.6 95.3004 21.5 94.1004 21.5Z" fill="black"/>
<path d="M94.3004 22.5C94.2004 22.5 94.1004 22.4 94.1004 22.3L93.9004 21.3C93.9004 21.2 94.0004 21.1 94.1004 21C94.2004 21 94.3004 21.1 94.4004 21.2L94.6004 22.2C94.5004 22.4 94.4004 22.5 94.3004 22.5Z" fill="black"/>
<path d="M94.3006 22.5C94.2006 22.5 94.1006 22.4 94.1006 22.3C94.1006 22.2 94.2006 22.1 94.3006 22.1C95.9006 22.1 96.1006 20.7 96.1006 20C96.1006 19.9 96.2006 19.8 96.3006 19.8C96.4006 19.8 96.5006 19.9 96.5006 20C96.5006 21.2 95.9006 22.5 94.3006 22.5Z" fill="black"/>
<path d="M96.3006 20.2C96.2006 20.2 96.1006 20.1 96.1006 20V15.6C96.1006 15.5 96.2006 15.4 96.3006 15.4C96.4006 15.4 96.5006 15.5 96.5006 15.6V20C96.5006 20.2 96.4006 20.2 96.3006 20.2Z" fill="black"/>
<path fill-rule="evenodd" clip-rule="evenodd" d="M84.0998 19.4H81.0998L82.5998 15.7L84.0998 19.4ZM78.7998 22.2H79.9998L80.7998 20.3H84.4998L85.2998 22.2H86.4998L83.2998 14.7H82.1998L78.7998 22.2Z" fill="black"/>
<path d="M86.4002 22.4H85.2002C85.1002 22.4 85.0002 22.3 85.0002 22.3L84.3002 20.5H80.9002L80.2002 22.3C80.2002 22.4 80.1002 22.4 80.0002 22.4H78.9002C78.8002 22.4 78.8002 22.4 78.7002 22.3C78.7002 22.2 78.7002 22.2 78.7002 22.1L81.9002 14.6C81.9002 14.5 82.0002 14.5 82.1002 14.5H83.2002C83.3002 14.5 83.4002 14.6 83.4002 14.6L86.6002 22.1C86.6002 22.2 86.6002 22.2 86.6002 22.3C86.5002 22.4 86.5002 22.4 86.4002 22.4ZM85.3002 22H86.0002L83.0002 14.9H82.2002L79.2002 22H79.9002L80.6002 20.2C80.6002 20.1 80.7002 20.1 80.8002 20.1H84.5002C84.6002 20.1 84.7002 20.2 84.7002 20.2L85.3002 22Z" fill="black"/>
<path d="M84.1004 19.6H81.1004C81.0004 19.6 81.0004 19.6 80.9004 19.5C80.9004 19.4 80.9004 19.4 80.9004 19.3L82.4004 15.6C82.4004 15.5 82.5004 15.5 82.6004 15.5C82.7004 15.5 82.8004 15.6 82.8004 15.6L84.3004 19.3C84.3004 19.4 84.3004 19.4 84.3004 19.5C84.2004 19.6 84.2004 19.6 84.1004 19.6ZM81.4004 19.2H83.8004L82.6004 16.3L81.4004 19.2Z" fill="black"/>
<path fill-rule="evenodd" clip-rule="evenodd" d="M70.8006 14.8C70.3006 14.6 69.7006 14.5 69.1006 14.5C66.8006 14.5 65.1006 16 65.1006 18.4C65.1006 20.8 66.7006 22.3 69.1006 22.3C69.5006 22.3 70.2006 22.3 70.8006 22L70.7006 21C70.3006 21.2 69.6006 21.4 69.1006 21.4C67.5006 21.4 66.3006 20.2 66.3006 18.4C66.3006 16.7 67.5006 15.4 69.2006 15.4C69.8006 15.4 70.3006 15.5 70.8006 15.8V14.8Z" fill="black"/>
<path d="M69.1004 22.5C66.6004 22.5 64.9004 20.8 64.9004 18.3C64.9004 15.9 66.6004 14.2 69.1004 14.2C69.8004 14.2 70.4004 14.3 70.9004 14.5C71.0004 14.5 71.1004 14.7 71.0004 14.8C71.0004 14.9 70.8004 15 70.7004 14.9C70.2004 14.7 69.7004 14.6 69.1004 14.6C66.9004 14.6 65.3004 16.1 65.3004 18.3C65.3004 20.6 66.8004 22 69.1004 22C69.8004 22 70.3004 21.9 70.7004 21.7C70.8004 21.7 70.9004 21.7 71.0004 21.8C71.0004 21.9 71.0004 22 70.9004 22.1C70.4004 22.4 69.8004 22.5 69.1004 22.5Z" fill="black"/>
<path d="M70.8 22.3C70.7 22.3 70.6 22.2 70.6 22.1L70.5 21.1C70.5 21 70.6 20.9 70.7 20.9C70.8 20.9 70.9 21 70.9 21.1L71 22.1C71 22.2 70.9 22.3 70.8 22.3Z" fill="black"/>
<path d="M69.1 21.6C67.4 21.6 66 20.2 66 18.4C66 16.5 67.3 15.2 69.1 15.2C69.7 15.2 70.3 15.4 70.8 15.7C70.9 15.8 70.9 15.9 70.9 16C70.8 16.1 70.7 16.1 70.6 16.1C70.2 15.8 69.7 15.7 69.2 15.7C67.6 15.7 66.5 16.8 66.5 18.4C66.5 20 67.6 21.1 69.1 21.1C69.6 21.1 70.3 21 70.6 20.8C70.7 20.7 70.8 20.8 70.9 20.9C71 21 70.9 21.1 70.8 21.2C70.4 21.5 69.6 21.6 69.1 21.6Z" fill="black"/>
<path d="M70.7 16.1C70.6 16.1 70.5 16 70.5 15.9L70.6 14.9C70.6 14.8 70.7 14.7 70.8 14.7C70.9 14.7 71 14.8 71 14.9L70.9 15.9C70.9 16 70.8 16.1 70.7 16.1Z" fill="black"/>
<path d="M152 50.7H0V12.2H152V50.7ZM0.6 50.1H151.3V12.8H0.6V50.1Z" fill="black"/>
</svg>
