<svg xmlns="http://www.w3.org/2000/svg" width="205.32" height="45.1" viewBox="0 0 205.32 45.1"><path class="cls-1" d="M38.36,39.65l-.21.21Z"></path><path class="cls-1" d="M35.9,3.5l.36.1c-.59-.28-1.31-.6-2.14-.91l.43.2C35,3.1,35.44,3.33,35.9,3.5Z"></path><path class="cls-1" d="M39.85,38l-.19.24Z"></path><path class="cls-1" d="M33.63,43a17.76,17.76,0,0,0,3.23-2,16.89,16.89,0,0,1-2,1.37C34.45,42.55,34.05,42.77,33.63,43Z"></path><path class="cls-1" d="M37.68,40.29a1.45,1.45,0,0,0,.18-.17l-.31.28Z"></path><path class="cls-1" d="M40.61,36.88l-.49.71C40.3,37.34,40.46,37.1,40.61,36.88Z"></path><path class="cls-1" d="M39,39l.1-.11Z"></path><path class="cls-1" d="M202.25,44.3l-16.1-30,8.26-9.38,1.25-1.42h0a8,8,0,0,1,6-2.89h.3V.1H190.32V.57H192a2.57,2.57,0,0,1,2.44,2.63,2.61,2.61,0,0,1-.62,1.7h0l-7.87,8.94-7,7.9,12.1,22.55h-4.2v.47h18.47V44.3Z"></path><path class="cls-1" d="M38.15,39.86l-.29.26Z"></path><path class="cls-1" d="M39,39c-.2.23-.41.45-.64.68C38.58,39.43,38.79,39.2,39,39Z"></path><path class="cls-1" d="M37.55,40.4c-.23.2-.46.38-.69.57C37.1,40.78,37.32,40.6,37.55,40.4Z"></path><path class="cls-1" d="M39.66,38.19l.19-.24.27-.36.49-.71-.77-.47a15.6,15.6,0,0,1-8.24,6.52c-7.25,2.54-15,.46-19.1-7.32a25,25,0,0,1-2.72-9.85A31.12,31.12,0,0,1,11.46,11.9c4-10.22,13.54-11.69,20.63-9A8.49,8.49,0,0,1,38,10.31c.07.67.29.83.91.62V.29h-.68a24.34,24.34,0,0,1-.62,2.45,1.11,1.11,0,0,1-1.38.86h0l-.36-.1c-.46-.17-.91-.4-1.35-.61l-.43-.2A27.92,27.92,0,0,0,23.18.85c-2.9.1-11.86.42-18,7.67A22.22,22.22,0,0,0,1.56,30.91C5.35,40.38,14.39,43.42,16.7,44.09A24.31,24.31,0,0,0,33.63,43c.42-.21.82-.43,1.19-.64a16.89,16.89,0,0,0,2-1.37c.23-.19.46-.37.69-.57l.31-.28.29-.26.21-.21c.23-.23.44-.45.64-.68l.1-.11Z"></path><path class="cls-1" d="M39.66,38.19l-.56.67C39.29,38.64,39.48,38.42,39.66,38.19Z"></path><path class="cls-1" d="M40.12,37.59l-.27.36Z"></path><path class="cls-1" d="M58.14,0c0,.81,0,4,0,4h.48A3.49,3.49,0,0,1,62,.51H75.27l0,43.79h-4v.48H89v-.48H85L84.92.5H98.17A3.51,3.51,0,0,1,101.58,4h.47V0Z"></path><path class="cls-1" d="M155.65,8.52c-6.17-7.25-15.14-7.57-18-7.67a27.88,27.88,0,0,0-10.94,1.84l-.43.2c-.45.21-.89.44-1.36.61l-.35.1a1.11,1.11,0,0,1-1.38-.86,21.92,21.92,0,0,1-.62-2.45h-.69V10.93c.63.21.85.05.91-.62a8.51,8.51,0,0,1,6-7.46c7.09-2.64,16.62-1.17,20.62,9.05a29.15,29.15,0,0,1,1.8,11.63l-17.13,0a3.5,3.5,0,0,1-3.32-3.49h-.47v7.47h.47A3.5,3.5,0,0,1,134,24l17.12,0c0,.57-.06,1.14-.1,1.71a25.13,25.13,0,0,1-2.72,9.85c-4.06,7.78-11.86,9.86-19.11,7.32A15.63,15.63,0,0,1,121,36.41l-.76.47c.16.24.32.48.49.71L121,38l.19.24c.17.22.36.44.55.67l.11.11c.2.23.41.45.64.68l.21.21.28.26.32.28c.22.2.45.38.68.57a17.84,17.84,0,0,0,2,1.37c.37.21.77.43,1.19.64a24.28,24.28,0,0,0,16.92,1.11c2.31-.67,11.36-3.71,15.15-13.18A22.22,22.22,0,0,0,155.65,8.52Z"></path></svg>